<svg id="803273e8-3a13-4d3d-a9b7-f85738023d40" data-name="Livello 1" xmlns="http://www.w3.org/2000/svg" viewBox="0 0 68 68"><defs><style>.ed5b7a61-135d-4458-bc96-6cc66553064c{fill:#fff;}.\37 7385a02-2e58-4551-928f-038f924179f8{fill:#7ac5ff;}.\38 09cfc98-9a02-44dd-9148-fc0b9825f44c{fill:#c5e6ff;}.fc3c997c-783f-43d1-bdfe-ccf5d667d262{fill:#979eff;}.d906040c-854b-4439-a124-712cfabba9c4{fill:#dbd7f6;}.\38 11c9260-c2d0-4ca0-b404-f5b85fe919f8{fill:#ffcb95;}.e15add07-ebd7-47fa-b2d1-7eb0e804a956{fill:#ffe0bf;}.\38 cf1701f-6a4a-450f-88a3-527ba18076ba{fill:#dcf1ff;}.\31 8affb89-051d-405a-8dc1-1571e0d21477{fill:none;stroke:#666aad;stroke-miterlimit:10;}</style></defs><title>Premium Plan</title><g id="337e988c-ed1e-429a-a017-1f8d5f03980d" data-name="Advanced Design Customization"><path class="ed5b7a61-135d-4458-bc96-6cc66553064c" d="M34.89,29.13l-3.8,4h0a5.89,5.89,0,0,0-5.62-5.62v0l4-3.8Z"/><path class="77385a02-2e58-4551-928f-038f924179f8" d="M56.94,4.51a1,1,0,0,1,0,1.4l-0.86.91L34.89,29.13,29.46,23.7,47,7l5.69-5.41a1,1,0,0,1,1.4,0Z"/><polygon class="809cfc98-9a02-44dd-9148-fc0b9825f44c" points="55.05 2.04 53.23 1.36 29.86 24.11 30.91 25.16 55.05 2.04"/><path class="fc3c997c-783f-43d1-bdfe-ccf5d667d262" d="M66.61,27.32v39h-39L42.86,51.07,61.11,32.82Zm-8,31v-12l-12.31,12H58.61Z"/><polygon class="d906040c-854b-4439-a124-712cfabba9c4" points="66.61 30.79 66.61 27.32 61.1 32.82 42.85 51.07 27.61 66.32 31.08 66.32 66.61 30.79"/><path class="811c9260-c2d0-4ca0-b404-f5b85fe919f8" d="M31.07,33.14A7.69,7.69,0,0,1,28.75,39c-2.86,2.87-13.92,2.75-13.92,2.57l3.74-4.55A2.51,2.51,0,0,0,19,34.47a4.66,4.66,0,0,1,.88-4.95,7.62,7.62,0,0,1,5.54-2A5.89,5.89,0,0,1,31.07,33.14Z"/><path class="e15add07-ebd7-47fa-b2d1-7eb0e804a956" d="M16.83,41.6l3.74-4.55A2.51,2.51,0,0,0,21,34.47a4.66,4.66,0,0,1,.88-4.95,7.84,7.84,0,0,1,4-1.93c-0.16,0-.32-0.06-0.48-0.07a7.62,7.62,0,0,0-5.54,2A4.66,4.66,0,0,0,19,34.47a2.51,2.51,0,0,1-.46,2.58L14.83,41.6a13.38,13.38,0,0,0,2.59.06A1.87,1.87,0,0,1,16.83,41.6Z"/><path class="809cfc98-9a02-44dd-9148-fc0b9825f44c" d="M8.11,37.82a6.49,6.49,0,0,0-6.42,5.51H1.61v-34a6.5,6.5,0,0,1,6.5-6.5h3.5v35H8.11Z"/><path class="8cf1701f-6a4a-450f-88a3-527ba18076ba" d="M8.11,2.82a6.5,6.5,0,0,0-6.5,6.5v3a6.5,6.5,0,0,1,6.5-6.5h3.5v-3H8.11Z"/><path class="809cfc98-9a02-44dd-9148-fc0b9825f44c" d="M31.09,33.14l3.8-4L56.1,6.82h4a1,1,0,0,1,1,1v25L42.86,51.07l-0.25-.25H8.11a6.5,6.5,0,0,1-6.5-6.5,6.4,6.4,0,0,1,.08-1,6.49,6.49,0,0,1,6.42-5.51h3.5v-31H46.78L47,7,29.46,23.7l-4,3.8v0a7.62,7.62,0,0,0-5.54,2A4.66,4.66,0,0,0,19,34.47a2.51,2.51,0,0,1-.46,2.58L14.83,41.6c0,0.18,11.06.3,13.92-2.57a7.69,7.69,0,0,0,2.32-5.89h0Z"/><polygon class="8cf1701f-6a4a-450f-88a3-527ba18076ba" points="46.98 7.04 46.77 6.82 11.61 6.82 11.61 9.82 45.11 9.82 46.98 7.04"/><path class="8cf1701f-6a4a-450f-88a3-527ba18076ba" d="M54.1,9.82h6c0.55,0,1-.55,1,0v-2a1,1,0,0,0-1-1h-4Z"/><path class="18affb89-051d-405a-8dc1-1571e0d21477" d="M1.61,44.32v-35a6.5,6.5,0,0,1,6.5-6.5h3.5v35H8.11a6.49,6.49,0,0,0-6.42,5.51,6.4,6.4,0,0,0-.08,1,6.5,6.5,0,0,0,6.5,6.5h35"/><line class="18affb89-051d-405a-8dc1-1571e0d21477" x1="11.61" y1="6.82" x2="47.31" y2="6.82"/><polygon class="18affb89-051d-405a-8dc1-1571e0d21477" points="66.61 27.32 66.61 66.32 27.61 66.32 66.61 27.32"/><path class="18affb89-051d-405a-8dc1-1571e0d21477" d="M55.95,6.82h4.16a1,1,0,0,1,1,1v25"/><path class="18affb89-051d-405a-8dc1-1571e0d21477" d="M25.45,27.5L47,7l5.69-5.41a1,1,0,0,1,1.4,0l2.86,2.86a1,1,0,0,1,0,1.4l-0.86.91-25,26.32"/><path class="18affb89-051d-405a-8dc1-1571e0d21477" d="M19.56,29.84l0.35-.32a7.62,7.62,0,0,1,5.54-2,5.89,5.89,0,0,1,5.62,5.62A7.69,7.69,0,0,1,28.75,39c-2.86,2.87-13.92,2.75-13.92,2.57l3.74-4.55A2.51,2.51,0,0,0,19,34.47a4.66,4.66,0,0,1,.88-4.95,3.58,3.58,0,0,1,.26-0.29"/><line class="18affb89-051d-405a-8dc1-1571e0d21477" x1="34.89" y1="29.13" x2="29.46" y2="23.7"/><path class="18affb89-051d-405a-8dc1-1571e0d21477" d="M66.61,27.32v39h-39L42.86,51.07,61.11,32.82Zm-8,31v-12l-12.31,12H58.61Z"/></g></svg>