<svg id="0b36a7ff-d322-409e-8213-06bb70694e0b" data-name="Livello 1" xmlns="http://www.w3.org/2000/svg" viewBox="0 0 68 68"><defs><style>.\31 851b872-484a-45be-8d1f-4784bf3d358c{fill:#c5e6ff;}.d08ea6d2-de67-4491-bd34-bddabdec6ba4{fill:#7ac5ff;}.\37 a28d4ef-8f60-44e9-954c-47d22f9b1fa1{fill:#cae8ff;}.\32 8f1f167-6490-45a6-9711-cb63d598f58e,.\38 5307b95-cf54-49d3-a3dd-ff2838298a92{fill:#979eff;}.\37 3a273c2-75fe-4501-8f36-1263482f66b4,.\38 015c145-c192-43f8-87aa-abecc88b4076{fill:none;}.\32 8f1f167-6490-45a6-9711-cb63d598f58e,.\37 3a273c2-75fe-4501-8f36-1263482f66b4,.\38 015c145-c192-43f8-87aa-abecc88b4076{stroke:#666aad;}.\32 8f1f167-6490-45a6-9711-cb63d598f58e,.\38 015c145-c192-43f8-87aa-abecc88b4076{stroke-miterlimit:10;}.\37 3a273c2-75fe-4501-8f36-1263482f66b4{stroke-linejoin:round;}</style></defs><title>Premium Plan</title><g id="93bd174c-e0b5-4135-9682-cc1e1f27673b" data-name="Reports"><path class="1851b872-484a-45be-8d1f-4784bf3d358c" d="M48.32,48.57v-11h-3v11h3Zm3,0h3v-6h-3v6Zm-36,0h3v-7h-3v7Zm9,0v-12h-3v12h3Zm6,0v-6h-3v6h3Zm3,0h3v-5h-3v5Zm9,0v-13h-3v13h3Zm17-26v34h-51v-34h51Z"/><polygon class="d08ea6d2-de67-4491-bd34-bddabdec6ba4" points="61.33 56.57 61.33 62.57 6.33 62.57 6.33 56.57 8.32 56.57 59.33 56.57 61.33 56.57"/><polygon class="7a28d4ef-8f60-44e9-954c-47d22f9b1fa1" points="43.83 56.64 24.89 56.64 6.33 56.64 6.33 58.64 24.89 58.64 43.83 58.64 61.33 58.64 61.33 56.64 43.83 56.64"/><rect class="d08ea6d2-de67-4491-bd34-bddabdec6ba4" x="6.32" y="16.57" width="55" height="6"/><polygon class="7a28d4ef-8f60-44e9-954c-47d22f9b1fa1" points="43.83 16.57 24.89 16.57 6.33 16.57 6.33 18.57 24.89 18.57 43.83 18.57 61.33 18.57 61.33 16.57 43.83 16.57"/><path class="d08ea6d2-de67-4491-bd34-bddabdec6ba4" d="M34.32,7.57a2,2,0,0,1,2,2,2,2,0,0,1-.22.91,2,2,0,0,1-1.78,1.09A2,2,0,0,1,34.32,7.57Z"/><rect class="85307b95-cf54-49d3-a3dd-ff2838298a92" x="51.32" y="42.57" width="3" height="6"/><rect class="85307b95-cf54-49d3-a3dd-ff2838298a92" x="45.32" y="37.57" width="3" height="11"/><rect class="85307b95-cf54-49d3-a3dd-ff2838298a92" x="39.32" y="35.57" width="3" height="13"/><rect class="85307b95-cf54-49d3-a3dd-ff2838298a92" x="33.32" y="43.57" width="3" height="5"/><rect class="85307b95-cf54-49d3-a3dd-ff2838298a92" x="27.32" y="42.57" width="3" height="6"/><rect class="85307b95-cf54-49d3-a3dd-ff2838298a92" x="21.32" y="36.57" width="3" height="12"/><rect class="d08ea6d2-de67-4491-bd34-bddabdec6ba4" x="15.32" y="41.57" width="3" height="7"/><line class="8015c145-c192-43f8-87aa-abecc88b4076" x1="8.32" y1="56.57" x2="8.32" y2="22.57"/><line class="8015c145-c192-43f8-87aa-abecc88b4076" x1="59.32" y1="22.57" x2="59.32" y2="56.57"/><polygon class="73a273c2-75fe-4501-8f36-1263482f66b4" points="43.83 16.57 61.33 16.57 61.33 22.57 6.33 22.57 6.33 16.57 24.89 16.57 43.83 16.57"/><rect class="73a273c2-75fe-4501-8f36-1263482f66b4" x="6.32" y="56.57" width="55" height="6"/><path class="8015c145-c192-43f8-87aa-abecc88b4076" d="M32.54,10.49a2,2,0,1,1,3.78-.92,2,2,0,0,1-.22.91,2,2,0,0,1-1.78,1.09A2,2,0,0,1,32.54,10.49Z"/><polyline class="8015c145-c192-43f8-87aa-abecc88b4076" points="55.83 51.57 11.82 51.57 11.82 26.57"/><rect class="28f1f167-6490-45a6-9711-cb63d598f58e" x="15.32" y="41.57" width="3" height="7"/><rect class="8015c145-c192-43f8-87aa-abecc88b4076" x="21.32" y="36.57" width="3" height="12"/><rect class="8015c145-c192-43f8-87aa-abecc88b4076" x="27.32" y="42.57" width="3" height="6"/><rect class="8015c145-c192-43f8-87aa-abecc88b4076" x="33.32" y="43.57" width="3" height="5"/><rect class="8015c145-c192-43f8-87aa-abecc88b4076" x="39.32" y="35.57" width="3" height="13"/><rect class="8015c145-c192-43f8-87aa-abecc88b4076" x="45.32" y="37.57" width="3" height="11"/><rect class="8015c145-c192-43f8-87aa-abecc88b4076" x="51.32" y="42.57" width="3" height="6"/><polyline class="8015c145-c192-43f8-87aa-abecc88b4076" points="11.82 40.69 22.32 31.57 32.33 36.69 40.83 27.45 48.95 31.57 54.83 26.19"/><line class="8015c145-c192-43f8-87aa-abecc88b4076" x1="36.1" y1="10.48" x2="43.82" y2="16.57"/><polyline class="8015c145-c192-43f8-87aa-abecc88b4076" points="24.82 16.62 24.89 16.57 32.55 10.49 32.55 10.48"/></g></svg>