<svg id="0eed5c99-802b-42f2-9ad4-eff9c553cee1" data-name="Livello 1" xmlns="http://www.w3.org/2000/svg" viewBox="0 0 68 68"><defs><style>.\31 1f60b4e-8fff-4c12-91f3-d873165e3c39{fill:#fff89e;}.d4f7bdc7-093b-4c3a-a07c-f1b81ad1ce46{fill:#fff;}.\39 aac7c3f-4489-4eb1-bd9a-ad932b825904{fill:#7ac5ff;}.\34 ab60a32-ea88-42c7-a4de-31ff8df4d81c{fill:#c5e6ff;}.da3f2677-22b7-4d65-b0e5-8a6aaa4e3232{fill:#979eff;}.de40ab71-b0ae-4fea-b08e-0833096ea4d4{fill:#666aad;}.\34 10e4db0-2520-4377-bb60-5f06ce481216,.\38 4ed0dbf-c080-4e2f-8f66-db18a7ec8e6e{fill:none;stroke:#666aad;}.\34 10e4db0-2520-4377-bb60-5f06ce481216{stroke-linejoin:round;}.\38 4ed0dbf-c080-4e2f-8f66-db18a7ec8e6e{stroke-miterlimit:10;}</style></defs><title>Premium Plan</title><g id="7453345e-27b2-4090-b6b9-ca381609c289" data-name="Rewards Page"><path class="11f60b4e-8fff-4c12-91f3-d873165e3c39" d="M39.5,20.5V24a5.43,5.43,0,0,1-.59,2.48,5.57,5.57,0,0,1-3.41,2.81V32.5h-3V29.29a5.57,5.57,0,0,1-3.41-2.81A5.43,5.43,0,0,1,28.5,24V18.5h11v2Z"/><rect class="d4f7bdc7-093b-4c3a-a07c-f1b81ad1ce46" x="28.5" y="18.5" width="11" height="2"/><path class="9aac7c3f-4489-4eb1-bd9a-ad932b825904" d="M8,10.5a1,1,0,1,0-1-1A1,1,0,0,0,8,10.5Zm56,2H3.5v-5a1,1,0,0,1,1-1h59a1,1,0,0,1,1,1v5H64Zm-52-2a1,1,0,1,0-1-1A1,1,0,0,0,12,10.5Z"/><path class="4ab60a32-ea88-42c7-a4de-31ff8df4d81c" d="M63.5,6.5H4.5a1,1,0,0,0-1,1v2a1,1,0,0,1,1-1h59a1,1,0,0,1,1,1v-2A1,1,0,0,0,63.5,6.5Z"/><polygon class="11f60b4e-8fff-4c12-91f3-d873165e3c39" points="38 32.5 38 35.5 30 35.5 30 32.5 32.5 32.5 35.5 32.5 38 32.5"/><path class="4ab60a32-ea88-42c7-a4de-31ff8df4d81c" d="M42.5,20.5v2a4,4,0,0,1-3.59,4A5.43,5.43,0,0,0,39.5,24V20.5h3Z"/><path class="4ab60a32-ea88-42c7-a4de-31ff8df4d81c" d="M28.5,24a5.43,5.43,0,0,0,.59,2.48,4,4,0,0,1-3.59-4v-2h3V24Z"/><path class="4ab60a32-ea88-42c7-a4de-31ff8df4d81c" d="M35.5,32V29.29a5.57,5.57,0,0,0,3.41-2.81,4,4,0,0,0,3.59-4v-2h-3v-2h-11v2h-3v2a4,4,0,0,0,3.59,4,5.57,5.57,0,0,0,3.41,2.81V32.5H30v3h8v-3H35.5V32Zm29-19.5v45a4,4,0,0,1-4,4H7.5a4,4,0,0,1-4-4v-45h61ZM24.5,44A2.5,2.5,0,1,0,22,46.5,2.5,2.5,0,0,0,24.5,44Zm0,9A2.5,2.5,0,1,0,22,55.5,2.5,2.5,0,0,0,24.5,53Z"/><circle class="da3f2677-22b7-4d65-b0e5-8a6aaa4e3232" cx="22" cy="44" r="2.5"/><circle class="da3f2677-22b7-4d65-b0e5-8a6aaa4e3232" cx="22" cy="53" r="2.5"/><circle class="de40ab71-b0ae-4fea-b08e-0833096ea4d4" cx="12" cy="9.5" r="1"/><circle class="de40ab71-b0ae-4fea-b08e-0833096ea4d4" cx="8" cy="9.5" r="1"/><path class="410e4db0-2520-4377-bb60-5f06ce481216" d="M64.5,12.5v45a4,4,0,0,1-4,4H7.5a4,4,0,0,1-4-4V7.5a1,1,0,0,1,1-1h59a1,1,0,0,1,1,1v5Z"/><line class="84ed0dbf-c080-4e2f-8f66-db18a7ec8e6e" x1="4" y1="12.5" x2="64" y2="12.5"/><circle class="84ed0dbf-c080-4e2f-8f66-db18a7ec8e6e" cx="22" cy="44" r="2.5"/><line class="84ed0dbf-c080-4e2f-8f66-db18a7ec8e6e" x1="29" y1="42.5" x2="49" y2="42.5"/><line class="84ed0dbf-c080-4e2f-8f66-db18a7ec8e6e" x1="29" y1="45.5" x2="39" y2="45.5"/><circle class="84ed0dbf-c080-4e2f-8f66-db18a7ec8e6e" cx="22" cy="53" r="2.5"/><line class="84ed0dbf-c080-4e2f-8f66-db18a7ec8e6e" x1="29" y1="51.5" x2="49" y2="51.5"/><line class="84ed0dbf-c080-4e2f-8f66-db18a7ec8e6e" x1="29" y1="54.5" x2="39" y2="54.5"/><path class="410e4db0-2520-4377-bb60-5f06ce481216" d="M29.09,26.48a4,4,0,0,1-3.59-4v-2h3"/><path class="410e4db0-2520-4377-bb60-5f06ce481216" d="M38.91,26.48a4,4,0,0,0,3.59-4v-2h-3"/><path class="410e4db0-2520-4377-bb60-5f06ce481216" d="M35.5,32V29.29a5.57,5.57,0,0,0,3.41-2.81A5.43,5.43,0,0,0,39.5,24V18.5h-11V24a5.43,5.43,0,0,0,.59,2.48,5.57,5.57,0,0,0,3.41,2.81V32"/><polygon class="d4f7bdc7-093b-4c3a-a07c-f1b81ad1ce46" points="30 32.5 30 34 32.5 34 35.5 34 38 34 38 32.5 30 32.5"/><polygon class="410e4db0-2520-4377-bb60-5f06ce481216" points="35.5 32.5 38 32.5 38 35.5 30 35.5 30 32.5 32.5 32.5 35.5 32.5"/></g></svg>