<svg id="584ceb65-3bb3-4127-8cc5-6dbe999e4aa3" data-name="Livello 1" xmlns="http://www.w3.org/2000/svg" viewBox="0 0 68 68"><defs><style>.\31 d670ba3-ea3c-413d-8e0a-3b8b35a98e29{fill:#7ac5ff;}.c7e1d0ca-3980-4f58-ada6-0375435d08ee{fill:#c5e6ff;}.\30 93d9677-1cdb-46cb-b708-cb7be26a6e71{fill:#dbd7f6;}.fa19e1d4-ba1b-4f02-9921-9da65fe422a9{fill:#fff;}.\38 fca8dbb-0473-4c32-969e-eb732d61c627{fill:#979eff;}.\37 2540e91-2948-4019-a7d1-2b2c797b4e8d{fill:#fff89e;}.\36 d14456a-6114-4ad4-ba1d-4c06ae7574d9{fill:#666aad;}.\36 84ccc34-4b81-42f0-aa53-5205ed0e386c,.e020d6c1-5a2b-42fe-a211-ddc920e1c30b{fill:none;stroke:#666aad;}.e020d6c1-5a2b-42fe-a211-ddc920e1c30b{stroke-linejoin:round;}.\36 84ccc34-4b81-42f0-aa53-5205ed0e386c{stroke-miterlimit:10;}</style></defs><title>Premium Plan</title><g id="52eb0019-0707-4f49-ac53-b3a929caf64e" data-name="VIP program"><path class="1d670ba3-ea3c-413d-8e0a-3b8b35a98e29" d="M22.91,11.07a2.73,2.73,0,0,1,0,.5,2.5,2.5,0,0,1-2.5,2.5A2.73,2.73,0,0,1,20,14V39.5l-3-1.66V8.07H54V37.83l-3,1.66V14a2.73,2.73,0,0,1-.5.05,2.5,2.5,0,0,1-2.5-2.5,2.73,2.73,0,0,1,0-.5H22.91Z"/><rect class="c7e1d0ca-3980-4f58-ada6-0375435d08ee" x="16.96" y="8.07" width="37" height="2.05"/><path class="093d9677-1cdb-46cb-b708-cb7be26a6e71" d="M39.59,45.78A4.44,4.44,0,0,1,40,47.57a4.5,4.5,0,1,1-9,0,4.4,4.4,0,0,1,.37-1.78A4.5,4.5,0,0,1,39.59,45.78Zm-3.13,1.79a1,1,0,1,0-1,1A1,1,0,0,0,36.46,47.57Z"/><path class="fa19e1d4-ba1b-4f02-9921-9da65fe422a9" d="M31.33,47.79a4.5,4.5,0,0,1,8.26,0,4.42,4.42,0,0,1,.25.78,4.49,4.49,0,0,0-8.51-2.77A4.4,4.4,0,0,0,31,47.57a4.48,4.48,0,0,0,.12,1A4.25,4.25,0,0,1,31.33,47.79Z"/><path class="8fca8dbb-0473-4c32-969e-eb732d61c627" d="M59,61.07l-1,1H13l-1-1,19.79-11a4.5,4.5,0,0,0,7.42,0Z"/><path class="8fca8dbb-0473-4c32-969e-eb732d61c627" d="M20,39.5l11.37,6.29A4.4,4.4,0,0,0,31,47.57a4.5,4.5,0,0,0,.79,2.55L12,61.07v-26l5,2.77Z"/><polygon class="093d9677-1cdb-46cb-b708-cb7be26a6e71" points="13.96 36.18 11.96 35.07 11.96 61.07 13.96 59.96 13.96 36.18"/><path class="8fca8dbb-0473-4c32-969e-eb732d61c627" d="M54,37.83l5-2.76v26l-19.79-11A4.5,4.5,0,0,0,40,47.57a4.44,4.44,0,0,0-.37-1.79L51,39.49Z"/><path class="093d9677-1cdb-46cb-b708-cb7be26a6e71" d="M50.75,42L39.65,48.12a4.49,4.49,0,0,0,.09-0.86,4.4,4.4,0,0,0-.37-1.78l11.37-6.29,3-1.66,5-2.77v2.79l-5,2.77Z"/><path class="093d9677-1cdb-46cb-b708-cb7be26a6e71" d="M20,42L31,48.12A4.49,4.49,0,0,1,31,47.25a4.4,4.4,0,0,1,.37-1.78L20,39.18l-3-1.66-5-2.77v2.79l5,2.77Z"/><polygon class="8fca8dbb-0473-4c32-969e-eb732d61c627" points="58.95 35.07 53.95 37.83 53.95 30.57 58.95 35.07"/><path class="c7e1d0ca-3980-4f58-ada6-0375435d08ee" d="M44,31.57a2,2,0,0,1,2,2,2,2,0,0,1-2,2H41v-4h3Z"/><polygon class="72540e91-2948-4019-a7d1-2b2c797b4e8d" points="40.95 21.07 40.95 27.07 29.95 27.07 29.95 21.07 32.95 23.07 35.45 20.07 37.95 23.07 40.95 21.07"/><path class="c7e1d0ca-3980-4f58-ada6-0375435d08ee" d="M41,21.07l-3,2-2.5-3-2.5,3-3-2v6H41v-6Zm0,14.5h3a2,2,0,0,0,2-2,2,2,0,0,0-2-2H41v4ZM51,14V39.49L39.59,45.78a4.5,4.5,0,0,0-8.26,0L20,39.5V14a2.73,2.73,0,0,0,.5.05,2.5,2.5,0,0,0,2.5-2.5,2.73,2.73,0,0,0,0-.5H48a2.73,2.73,0,0,0,0,.5,2.5,2.5,0,0,0,2.5,2.5A2.73,2.73,0,0,0,51,14Z"/><polygon class="8fca8dbb-0473-4c32-969e-eb732d61c627" points="16.95 30.57 16.95 37.84 11.96 35.07 16.95 30.57"/><circle class="6d14456a-6114-4ad4-ba1d-4c06ae7574d9" cx="35.46" cy="47.57" r="1"/><polyline class="e020d6c1-5a2b-42fe-a211-ddc920e1c30b" points="16.95 38.07 16.95 37.84 16.95 8.07 53.95 8.07 53.95 37.83 53.95 38.07"/><path class="684ccc34-4b81-42f0-aa53-5205ed0e386c" d="M39.59,45.78A4.44,4.44,0,0,1,40,47.57a4.5,4.5,0,1,1-9,0,4.4,4.4,0,0,1,.37-1.78A4.5,4.5,0,0,1,39.59,45.78Z"/><path class="684ccc34-4b81-42f0-aa53-5205ed0e386c" d="M51,39.57V14a2.73,2.73,0,0,1-.5.05,2.5,2.5,0,0,1-2.5-2.5,2.73,2.73,0,0,1,0-.5H22.91a2.73,2.73,0,0,1,0,.5,2.5,2.5,0,0,1-2.5,2.5A2.73,2.73,0,0,1,20,14V39.57"/><path class="684ccc34-4b81-42f0-aa53-5205ed0e386c" d="M41,39.07v-7.5h3a2,2,0,0,1,2,2,2,2,0,0,1-2,2H41"/><line class="684ccc34-4b81-42f0-aa53-5205ed0e386c" x1="35.46" y1="39.07" x2="35.46" y2="31.07"/><polyline class="684ccc34-4b81-42f0-aa53-5205ed0e386c" points="31.45 31.26 28.45 37.87 25.45 31.26"/><polygon class="684ccc34-4b81-42f0-aa53-5205ed0e386c" points="40.95 27.07 29.95 27.07 29.95 21.07 32.95 23.07 35.45 20.07 37.95 23.07 40.95 21.07 40.95 27.07"/><path class="e020d6c1-5a2b-42fe-a211-ddc920e1c30b" d="M54,30.57l5,4.5v25a2,2,0,0,1-2,2H14a2,2,0,0,1-2-2v-25l5-4.5"/><line class="684ccc34-4b81-42f0-aa53-5205ed0e386c" x1="35.46" y1="14.57" x2="35.46" y2="17.57"/><line class="684ccc34-4b81-42f0-aa53-5205ed0e386c" x1="28.71" y1="15.7" x2="30.21" y2="18.3"/><line class="684ccc34-4b81-42f0-aa53-5205ed0e386c" x1="41.96" y1="15.7" x2="40.46" y2="18.3"/><line class="684ccc34-4b81-42f0-aa53-5205ed0e386c" x1="31.33" y1="45.79" x2="11.96" y2="35.07"/><line class="684ccc34-4b81-42f0-aa53-5205ed0e386c" x1="58.96" y1="61.07" x2="39.17" y2="50.12"/><line class="684ccc34-4b81-42f0-aa53-5205ed0e386c" x1="31.75" y1="50.12" x2="11.96" y2="61.07"/><line class="684ccc34-4b81-42f0-aa53-5205ed0e386c" x1="58.96" y1="35.07" x2="39.59" y2="45.78"/></g></svg>