<svg id="443bf707-f048-4579-9bb0-2068b258faad" data-name="Livello 1" xmlns="http://www.w3.org/2000/svg" viewBox="0 0 68 68"><defs><style>.\32 d508cae-b4bb-4ca3-bfa4-d6ac6de77aaf{fill:#9299ff;}.\35 91a6d12-c652-43e6-bec0-68377bbd750d{fill:#ffc59d;}.\39 7136671-c6a0-433f-b799-2c3b2a0b6291{fill:#d6d2f1;}.\37 31cee4b-26d3-4a33-b582-eacca5c29945{fill:#7ac0ff;}.e1d87f6b-7e4d-4456-8c70-42da77f1bdb0{fill:#c5e3ff;}.e453f3c2-843d-415b-a9bf-a37b6b288733{fill:#fff;}.\32 4159084-da72-4f58-85cb-17407793aa8b,.abc403f3-5f34-4e6f-9612-f3112696623e{fill:none;stroke:#666aa8;}.abc403f3-5f34-4e6f-9612-f3112696623e{stroke-miterlimit:10;}.\32 4159084-da72-4f58-85cb-17407793aa8b{stroke-linejoin:round;}.\30 36905a3-644a-43d4-bffd-68f8c8e82e1e{fill:#ffdbc3;}</style></defs><title>Startup Plan</title><g id="66fe473a-09d9-405c-a0bd-8a1e8069ff35" data-name="Email Customization"><path class="2d508cae-b4bb-4ca3-bfa4-d6ac6de77aaf" d="M65.86,25.44L55.79,36V35.81L43.59,48.47l-5.24-5.25,17-16.14,0.44-.37V26.66l5.79-5.5a1,1,0,0,1,1.4,0l2.86,2.87A1,1,0,0,1,65.86,25.44Z"/><path class="591a6d12-c652-43e6-bec0-68377bbd750d" d="M40,52.7a5.91,5.91,0,0,0-5.65-5.65,7.24,7.24,0,0,0-3.79.82,4.5,4.5,0,0,0-2.2,1.84h0a4.53,4.53,0,0,0-.39,4.3,2.5,2.5,0,0,1-.46,2.57l-3.74,4.55c0,0.18,11,.3,13.92-2.57A7.66,7.66,0,0,0,40,52.7Z"/><path class="97136671-c6a0-433f-b799-2c3b2a0b6291" d="M55.35,29.08l0.44-.37v0l5.79-5.5a1,1,0,0,1,1.4,0l2.57,2.58,0.31-.32a1,1,0,0,0,0-1.39L63,21.18a1,1,0,0,0-1.4,0l-5.79,5.5v0l-0.44.37-17,16.14,1,1Z"/><path class="731cee4b-26d3-4a33-b582-eacca5c29945" d="M28.81,49.05a4.33,4.33,0,0,0-.49.66H6.27a4,4,0,0,1-4-4v-28A1,1,0,0,1,2.58,17L29,39.67,55.48,17a1,1,0,0,1,.31.73v9l-0.44.42L35.27,46.14c-0.61.3-5.93,2.42-6.46,2.91"/><path class="e1d87f6b-7e4d-4456-8c70-42da77f1bdb0" d="M5.27,45.71V19.29L2.58,17a1,1,0,0,0-.31.73v28a4,4,0,0,0,4,4h3A4,4,0,0,1,5.27,45.71Z"/><path class="731cee4b-26d3-4a33-b582-eacca5c29945" d="M55.79,36v9.67a4,4,0,0,1-4,4h-9Z"/><path class="731cee4b-26d3-4a33-b582-eacca5c29945" d="M55.48,17L29,39.67,2.58,17a1,1,0,0,1,.69-0.27H54.79A1,1,0,0,1,55.48,17Z"/><path class="e1d87f6b-7e4d-4456-8c70-42da77f1bdb0" d="M52.29,19.71L55.48,17a1,1,0,0,0-.69-0.27H3.27a1,1,0,0,0-.69.27l3.18,2.73H52.29Z"/><polygon class="e453f3c2-843d-415b-a9bf-a37b6b288733" points="55.79 35.81 55.79 36.04 43.79 48.67 43.59 48.47 55.79 35.81"/><polygon class="e453f3c2-843d-415b-a9bf-a37b6b288733" points="55.79 26.66 55.79 26.71 55.35 27.08 55.79 26.66"/><polygon class="e453f3c2-843d-415b-a9bf-a37b6b288733" points="43.59 48.47 43.79 48.67 42.8 49.71 42.39 49.71 43.59 48.47"/><path class="e453f3c2-843d-415b-a9bf-a37b6b288733" d="M38.35,43.22l5.24,5.25-1.2,1.24H42.8L40,52.7a5.91,5.91,0,0,0-5.65-5.65Z"/><path class="abc403f3-5f34-4e6f-9612-f3112696623e" d="M28.32,49.71H6.27a4,4,0,0,1-4-4v-28a1,1,0,0,1,1-1H54.79a1,1,0,0,1,1,1v9"/><path class="abc403f3-5f34-4e6f-9612-f3112696623e" d="M55.79,36v9.67a4,4,0,0,1-4,4h-9"/><polyline class="24159084-da72-4f58-85cb-17407793aa8b" points="55.48 16.98 29.03 39.67 2.58 16.98"/><path class="abc403f3-5f34-4e6f-9612-f3112696623e" d="M34.32,47.05L61.58,21.16a1,1,0,0,1,1.4,0l2.86,2.87a1,1,0,0,1,0,1.39L40,52.7"/><polyline class="abc403f3-5f34-4e6f-9612-f3112696623e" points="43.9 48.78 43.79 48.67 38.35 43.22 38.25 43.12"/><path class="036905a3-644a-43d4-bffd-68f8c8e82e1e" d="M25.49,61.21l3-3.63a3.15,3.15,0,0,0,1.19-2.3c0-1-.7-1.42-0.79-2.58a3.68,3.68,0,0,1,.45-2h0a4.5,4.5,0,0,1,2.2-1.84,7.24,7.24,0,0,1,3.79-.82,6.06,6.06,0,0,1,3.37,1.27,5.82,5.82,0,0,0-.44-0.54,6,6,0,0,0-3.93-1.73,7.24,7.24,0,0,0-3.79.82,4.5,4.5,0,0,0-2.2,1.84h0a4.53,4.53,0,0,0-.39,4.3,2.5,2.5,0,0,1-.46,2.57l-3.74,4.55A8.2,8.2,0,0,0,25.49,61.21Z"/><path class="abc403f3-5f34-4e6f-9612-f3112696623e" d="M28.81,49.05a7.74,7.74,0,0,1,5.51-2A5.91,5.91,0,0,1,40,52.7a7.66,7.66,0,0,1-2.32,5.86c-2.87,2.87-13.92,2.75-13.92,2.57l3.74-4.55A2.5,2.5,0,0,0,27.93,54a4.53,4.53,0,0,1,.39-4.3A4.33,4.33,0,0,1,28.81,49.05Z"/></g></svg>