<svg id="fd0fce46-2989-4e14-b129-af03c7e36d5b" data-name="Livello 1" xmlns="http://www.w3.org/2000/svg" viewBox="0 0 68 68"><defs><style>.\37 ece38e0-cf79-460a-8376-1d36266dbad9{fill:#c3e4ff;}.\33 0336d16-b445-4849-859d-71c6df98da8d{fill:#eaf5ff;}.\31 bb92b23-8381-431f-ac93-2c0c1e9521ec{fill:#fff89e;}.\33 dbf26c3-7911-4294-be05-6708830b1097{fill:none;stroke:#666aad;stroke-miterlimit:10;}.\38 d8d95a8-ee8a-46c6-b049-07b6bd354716{fill:#959cff;}.f0c4a76f-87a8-4add-9e58-9618f5f6be73{fill:#d6d2f1;}.\38 7fb6e7d-0caf-41ad-8f8d-2f7c5a2d1455{fill:#fffde2;}</style></defs><title>Startup Plan</title><g id="0aba508f-1c16-4ca6-bd0d-78280669e210" data-name="Import"><polygon class="7ece38e0-cf79-460a-8376-1d36266dbad9" points="49.02 15.5 38.02 15.5 38.02 5.5 49.02 15.5"/><polygon class="30336d16-b445-4849-859d-71c6df98da8d" points="37.98 7.5 46.52 15.5 49.02 15.5 38.02 5.5 37.98 7.5"/><path class="7ece38e0-cf79-460a-8376-1d36266dbad9" d="M7,60.5a3,3,0,0,1-3-3V9.5a4,4,0,0,1,4-4H38v10H49l0.07,44.87"/><path class="30336d16-b445-4849-859d-71c6df98da8d" d="M49,43.8l0.07,0L49,43.5v0.3Z"/><path class="30336d16-b445-4849-859d-71c6df98da8d" d="M8,7.5H38v-2H8a4,4,0,0,0-4,4v2A4,4,0,0,1,8,7.5Z"/><path class="1bb92b23-8381-431f-ac93-2c0c1e9521ec" d="M53.52,43.5a10.48,10.48,0,1,1-2.43.28A10.77,10.77,0,0,1,53.52,43.5Z"/><polyline class="3dbf26c3-7911-4294-be05-6708830b1097" points="49.02 15.5 38.02 15.5 38.02 5.5"/><polyline class="3dbf26c3-7911-4294-be05-6708830b1097" points="48.52 54 53.52 54 58.52 54"/><polyline class="3dbf26c3-7911-4294-be05-6708830b1097" points="53.52 59 53.52 54 53.52 49"/><path class="3dbf26c3-7911-4294-be05-6708830b1097" d="M45,60.5H7a3,3,0,0,1-3-3V9.5a4,4,0,0,1,4-4H38l11,10v29"/><circle class="8d8d95a8-ee8a-46c6-b049-07b6bd354716" cx="26.52" cy="23.5" r="6"/><path class="f0c4a76f-87a8-4add-9e58-9618f5f6be73" d="M26.52,19.5a6,6,0,0,1,5.91,5,6,6,0,1,0-11.82,0A6,6,0,0,1,26.52,19.5Z"/><circle class="3dbf26c3-7911-4294-be05-6708830b1097" cx="26.52" cy="23.5" r="6"/><path class="8d8d95a8-ee8a-46c6-b049-07b6bd354716" d="M12,51.5V40.81a8.29,8.29,0,0,1,8.27-8.31h0.23l6,7,6-7h0.23A8.29,8.29,0,0,1,41,40.81V51.5H12Z"/><line class="3dbf26c3-7911-4294-be05-6708830b1097" x1="18.02" y1="45" x2="18.02" y2="51.5"/><line class="3dbf26c3-7911-4294-be05-6708830b1097" x1="35.02" y1="45" x2="35.02" y2="51.5"/><path class="f0c4a76f-87a8-4add-9e58-9618f5f6be73" d="M32.75,32.5H32.52l-6,7-6-7H20.29c-4.57,0-8.27,4.72-8.27,9.31v2c0-4.59,3.7-9.31,8.27-9.31l6.23,7,6.23-7c4.57,0,8.27,4.72,8.27,9.31v-2C41,37.22,37.32,32.5,32.75,32.5Z"/><path class="3dbf26c3-7911-4294-be05-6708830b1097" d="M12,51.5V40.81a8.29,8.29,0,0,1,8.27-8.31h0.23l6,6,6-6h0.23c4.57,0,8.27,3.72,8.27,6.31V51.5H12Z"/><path class="87fb6e7d-0caf-41ad-8f8d-2f7c5a2d1455" d="M51.09,47.28A10.77,10.77,0,0,1,53.52,47a10.49,10.49,0,0,1,10.34,8.75A10.44,10.44,0,0,0,53.52,43.5a10.77,10.77,0,0,0-2.43.28,10.51,10.51,0,0,0-7.92,12A10.52,10.52,0,0,1,51.09,47.28Z"/><path class="3dbf26c3-7911-4294-be05-6708830b1097" d="M51.09,43.78a10.77,10.77,0,0,1,2.43-.28A10.48,10.48,0,1,1,51.09,43.78Z"/></g></svg>