<svg id="4bb3e5e5-545a-4c43-8516-ba4066f46b4f" data-name="Livello 1" xmlns="http://www.w3.org/2000/svg" viewBox="0 0 68 68"><defs><style>.e51840d1-2168-41bf-86c8-6fa6d3e1c61a{fill:#959cff;}.\36 6fe046e-8dcf-4de6-90df-d73c1880db27{fill:#d6d2f1;}.b528b454-5c8d-4765-8b62-42cdaef2f5ae{fill:#c3e4ff;}.\39 f6fc548-dcc5-4148-8ccc-5fdf9374f471{fill:#fff89e;}.e23e315e-1458-49f8-9c17-bd9a79a32b99{fill:none;stroke:#666aad;stroke-miterlimit:10;}.a5525e57-13c5-47e4-b908-2ecc0f06dbb0{fill:#fffde2;}.\32 399cbb8-f986-4178-8db7-59d578cb7ae2{fill:#eaf5ff;}</style></defs><title>Startup Plan</title><g id="5d548172-e8da-4fe7-9a0b-29a426ffe778" data-name="Integrations"><path class="e51840d1-2168-41bf-86c8-6fa6d3e1c61a" d="M67,22.69V17.31H63.43a11.25,11.25,0,0,0-1.31-3.17l2.53-2.53-3.8-3.8-2.54,2.54a11.23,11.23,0,0,0-3.13-1.3V5.5H49.81V9.06a11.22,11.22,0,0,0-2.89,1.16L44.56,7.85l-3.8,3.8L43,13.91a11.23,11.23,0,0,0-1.47,3.41H38v5.37h3.57a11.25,11.25,0,0,0,1.28,3.14l-2.51,2.51,3.8,3.8,2.5-2.5a11.23,11.23,0,0,0,3.17,1.32V34.5h5.37V30.94a11.25,11.25,0,0,0,3.41-1.46l2.67,2.67,3.8-3.8-2.77-2.77a11.22,11.22,0,0,0,1.15-2.9H67ZM52.5,26a6,6,0,1,1,6-6A6,6,0,0,1,52.5,26Z"/><rect class="66fe046e-8dcf-4de6-90df-d73c1880db27" x="49.81" y="5.5" width="5.37" height="2"/><path class="66fe046e-8dcf-4de6-90df-d73c1880db27" d="M55.19,11.06a11.23,11.23,0,0,1,3.13,1.3l2.54-2.54,2.8,2.8,1-1-3.8-3.8-2.54,2.54a11.23,11.23,0,0,0-3.13-1.3v2Z"/><path class="66fe046e-8dcf-4de6-90df-d73c1880db27" d="M44.56,9.85l2.37,2.37a11.22,11.22,0,0,1,2.89-1.16v-2a11.22,11.22,0,0,0-2.89,1.16L44.56,7.85l-3.8,3.8,1,1Z"/><path class="66fe046e-8dcf-4de6-90df-d73c1880db27" d="M63.43,17.31a11.78,11.78,0,0,0-.63-1.85l-0.68.68a11.25,11.25,0,0,1,1.31,3.17H67v-2H63.43Z"/><path class="66fe046e-8dcf-4de6-90df-d73c1880db27" d="M43,15.91l-0.71-.71a11.29,11.29,0,0,0-.76,2.12H38v2h3.55A11.23,11.23,0,0,1,43,15.91Z"/><path class="b528b454-5c8d-4765-8b62-42cdaef2f5ae" d="M37,40.71V33.29H33.32a14.24,14.24,0,0,0-1.2-3l3-3L29.82,22,27,24.84a14.27,14.27,0,0,0-3.81-1.66V19.5H15.79v3.69a14.26,14.26,0,0,0-3.09,1.24L10.32,22,5.07,27.29,7.3,29.52a14.29,14.29,0,0,0-1.62,3.76H2v7.42H5.68a14.28,14.28,0,0,0,1.66,3.82L5.07,46.79,10.32,52l2.43-2.43a14.26,14.26,0,0,0,3,1.21V54.5h7.42V50.81A14.26,14.26,0,0,0,27,49.19L29.82,52l5.25-5.25-3-3a14.21,14.21,0,0,0,1.23-3.1H37ZM19.5,44.5A7.5,7.5,0,1,1,27,37,7.5,7.5,0,0,1,19.5,44.5Z"/><path class="9f6fc548-dcc5-4148-8ccc-5fdf9374f471" d="M61,55.19V50.81H58.53a9.29,9.29,0,0,0-1.12-2.7l1.77-1.77-3.1-3.1L54.29,45A9.27,9.27,0,0,0,51.69,44V41.5H47.31V44A9.24,9.24,0,0,0,44.72,45l-1.8-1.8-3.1,3.1,1.78,1.78a9.22,9.22,0,0,0-1.15,2.69H38v4.38h2.47a9.3,9.3,0,0,0,1.06,2.6L39.82,59.5l3.1,3.1,1.69-1.69A9.28,9.28,0,0,0,47.31,62V64.5h4.38V62a9.23,9.23,0,0,0,2.69-1.14l1.7,1.7,3.1-3.1-1.72-1.72a9.23,9.23,0,0,0,1.08-2.59H61ZM49.5,58a5,5,0,1,1,5-5A5,5,0,0,1,49.5,58Z"/><path class="e23e315e-1458-49f8-9c17-bd9a79a32b99" d="M67,22.69V17.31H63.43a11.26,11.26,0,0,0-1.31-3.17l2.53-2.53-3.8-3.8-2.54,2.54a11.23,11.23,0,0,0-3.13-1.3V5.5H49.81V9.06a11.23,11.23,0,0,0-2.89,1.16L44.56,7.85l-3.8,3.8L43,13.91a11.23,11.23,0,0,0-1.47,3.41H38v5.37h3.57a11.26,11.26,0,0,0,1.28,3.14l-2.51,2.51,3.8,3.8,2.5-2.5a11.23,11.23,0,0,0,3.17,1.32V34.5h5.37V30.94a11.25,11.25,0,0,0,3.41-1.46l2.67,2.67,3.8-3.8-2.77-2.77a11.22,11.22,0,0,0,1.15-2.9H67Z"/><path class="e23e315e-1458-49f8-9c17-bd9a79a32b99" d="M51.23,14.65a5.64,5.64,0,0,1,1.27-.15A5.49,5.49,0,1,1,51.23,14.65Z"/><path class="e23e315e-1458-49f8-9c17-bd9a79a32b99" d="M48.46,48.73a4.62,4.62,0,0,1,1-.12A4.49,4.49,0,1,1,48.46,48.73Z"/><rect class="a5525e57-13c5-47e4-b908-2ecc0f06dbb0" x="47.31" y="41.5" width="4.38" height="2"/><path class="a5525e57-13c5-47e4-b908-2ecc0f06dbb0" d="M51.69,46A9.27,9.27,0,0,1,54.29,47l1.8-1.8,2.1,2.1,1-1-3.1-3.1L54.29,45A9.27,9.27,0,0,0,51.69,44v2Z"/><path class="a5525e57-13c5-47e4-b908-2ecc0f06dbb0" d="M42.92,45.24l1.8,1.8A9.24,9.24,0,0,1,47.31,46V44A9.24,9.24,0,0,0,44.72,45l-1.8-1.8-3.1,3.1,1,1Z"/><path class="a5525e57-13c5-47e4-b908-2ecc0f06dbb0" d="M58.53,50.81a9.85,9.85,0,0,0-.45-1.37l-0.67.67a9.29,9.29,0,0,1,1.12,2.7H61v-2H58.53Z"/><path class="a5525e57-13c5-47e4-b908-2ecc0f06dbb0" d="M41.6,50.12l-0.69-.69a8.71,8.71,0,0,0-.46,1.38H38v2h2.46A9.22,9.22,0,0,1,41.6,50.12Z"/><path class="e23e315e-1458-49f8-9c17-bd9a79a32b99" d="M61,55.19V50.81H58.53a9.29,9.29,0,0,0-1.12-2.7l1.77-1.77-3.1-3.1L54.29,45A9.27,9.27,0,0,0,51.69,44V41.5H47.31V44A9.24,9.24,0,0,0,44.72,45l-1.8-1.8-3.1,3.1,1.78,1.78a9.22,9.22,0,0,0-1.15,2.69H38v4.38h2.47a9.29,9.29,0,0,0,1.06,2.6L39.82,59.5l3.1,3.1,1.69-1.69A9.27,9.27,0,0,0,47.31,62V64.5h4.38V62a9.23,9.23,0,0,0,2.69-1.14l1.7,1.7,3.1-3.1-1.72-1.72a9.23,9.23,0,0,0,1.08-2.59H61Z"/><rect class="2399cbb8-f986-4178-8db7-59d578cb7ae2" x="15.79" y="19.5" width="7.42" height="3"/><path class="2399cbb8-f986-4178-8db7-59d578cb7ae2" d="M22.21,25.19A24.83,24.83,0,0,1,27,27.84l2.8-2.8,3.75,3.75,1.5-1.5L29.82,22,27,24.84a24.83,24.83,0,0,0-4.81-2.66v3Z"/><path class="2399cbb8-f986-4178-8db7-59d578cb7ae2" d="M10.32,25l2.38,2.38a27.84,27.84,0,0,1,4.09-2.24v-3a27.84,27.84,0,0,0-4.09,2.24L10.32,22,5.07,27.29l1.5,1.5Z"/><path class="2399cbb8-f986-4178-8db7-59d578cb7ae2" d="M33.32,33.29c-0.09-.32-0.2-0.62-0.31-0.93l-0.89.89a14.24,14.24,0,0,1,1.2,3H37v-3H33.32Z"/><path class="2399cbb8-f986-4178-8db7-59d578cb7ae2" d="M7.3,32.52l-1-1a14.42,14.42,0,0,0-.61,1.78H2v3H5.68A14.29,14.29,0,0,1,7.3,32.52Z"/><path class="e23e315e-1458-49f8-9c17-bd9a79a32b99" d="M37,40.71V33.29H33.32a14.24,14.24,0,0,0-1.2-3l3-3L29.82,22,27,24.84a14.27,14.27,0,0,0-3.81-1.66V19.5H15.79v3.69a14.26,14.26,0,0,0-3.09,1.24L10.32,22,5.07,27.29,7.3,29.52a14.29,14.29,0,0,0-1.62,3.76H2v7.42H5.68a14.28,14.28,0,0,0,1.66,3.82L5.07,46.79,10.32,52l2.43-2.43a14.26,14.26,0,0,0,3,1.21V54.5h7.42V50.81A14.26,14.26,0,0,0,27,49.19L29.82,52l5.25-5.25-3-3a14.21,14.21,0,0,0,1.23-3.1H37ZM19.5,44.5A7.5,7.5,0,1,1,27,37,7.5,7.5,0,0,1,19.5,44.5Z"/></g></svg>