<svg id="b397ca9d-48cd-4961-8e99-56d22a0aea38" data-name="Livello 1" xmlns="http://www.w3.org/2000/svg" viewBox="0 0 68 68"><defs><style>.b61f8d16-00de-44f5-86b5-0ce4dbf2b217{fill:#c3e4ff;}.\38 2cb2840-17f4-4ef6-8141-40bd366a87a8{fill:#7ac0ff;}.\31 99ffd3e-ca15-4ed1-830b-776c93e9778a{fill:#eaf5ff;}.\31 5aac477-7a03-439c-aced-242290f91cc7{fill:#fff;}.\37 f56b5d0-c0ae-4128-ae01-ced9dfa69fd5{fill:#959cff;}.\32 c35cd1c-c0da-4368-8c0d-4153cdb5d1a7{fill:none;stroke:#666aad;stroke-miterlimit:10;}.b550d2f6-f68f-4dfe-b8dc-15d753b0bb39{fill:#d6d2f1;}</style></defs><title>Startup Plan</title><g id="75460ac8-6e8a-4d91-a2f4-996cef6db5d4" data-name="Refferals"><path class="b61f8d16-00de-44f5-86b5-0ce4dbf2b217" d="M62.75,8.07v37a1,1,0,0,1-1,1H59.26a2,2,0,0,1-1-.24L36.75,34.07v-15L58.3,7.31a2,2,0,0,1,1-.24h2.49A1,1,0,0,1,62.75,8.07Z"/><path class="82cb2840-17f4-4ef6-8141-40bd366a87a8" d="M36.75,19.07v15h-15a2,2,0,0,1-2-2v-11a2,2,0,0,1,2-2h15Z"/><path class="82cb2840-17f4-4ef6-8141-40bd366a87a8" d="M19.75,21.07v11h-3.5a1,1,0,0,1-1-1v-9a1,1,0,0,1,1-1h3.5Z"/><path class="199ffd3e-ca15-4ed1-830b-776c93e9778a" d="M62.3,7.52a30.41,30.41,0,0,0-4-.21L36.75,19.07v3L58.3,10.31a2,2,0,0,1,1-.24h2.49a1,1,0,0,1,1,1v-2C62.75,8.52,62.85,7.52,62.3,7.52Z"/><path class="b61f8d16-00de-44f5-86b5-0ce4dbf2b217" d="M21.75,19.07a2,2,0,0,0-2,2v2a2,2,0,0,1,2-2h15v-2h-15Z"/><path class="b61f8d16-00de-44f5-86b5-0ce4dbf2b217" d="M16.25,21.07a1,1,0,0,0-1,1v2a1,1,0,0,1,1-1h3.5v-2h-3.5Z"/><path class="82cb2840-17f4-4ef6-8141-40bd366a87a8" d="M23.75,41.07h4a2,2,0,0,0-2,2,2,2,0,0,0,2,2,2,2,0,0,0-2,2,2,2,0,0,0,2,2,2,2,0,0,0-1.66,3.12l-0.34-.12h-2v-11Z"/><polygon class="82cb2840-17f4-4ef6-8141-40bd366a87a8" points="28.75 36.99 28.75 37.07 23.75 37.07 23.75 34.07 28.75 34.07 28.75 36.99"/><path class="15aac477-7a03-439c-aced-242290f91cc7" d="M33.75,41.07a2,2,0,0,1,2,2,2,2,0,0,1-2,2h-6a2,2,0,0,1-2-2,2,2,0,0,1,2-2h6Z"/><path class="15aac477-7a03-439c-aced-242290f91cc7" d="M33.75,45.07a2,2,0,0,1,2,2,2,2,0,0,1-2,2h-6a2,2,0,0,1-2-2,2,2,0,0,1,2-2h6Z"/><path class="15aac477-7a03-439c-aced-242290f91cc7" d="M33.75,49.07a2,2,0,0,1,2,2,2,2,0,0,1-2,2h-6a2,2,0,0,1-1.66-.88,2,2,0,0,1,1.66-3.12h6Z"/><path class="15aac477-7a03-439c-aced-242290f91cc7" d="M23.75,41.07v11h2l0.34,0.12a2,2,0,0,0,1.66.88,2,2,0,0,0-2,2,2,2,0,0,0,2,2H19.53A2,2,0,0,1,19,57l-3.23-.92h-4.5v-14h3.5l4.41-4.41a2,2,0,0,1,1.42-.59H32.65a0.09,0.09,0,0,1,.1.1v0.9a3,3,0,0,1-3,3h-6Z"/><path class="15aac477-7a03-439c-aced-242290f91cc7" d="M30.75,53.07a2,2,0,0,1,2,2,2,2,0,0,1-2,2h-3a2,2,0,0,1-2-2,2,2,0,0,1,2-2h3Z"/><polygon class="7f56b5d0-c0ae-4128-ae01-ced9dfa69fd5" points="11.25 56.07 11.25 58.07 5.25 58.07 5.25 39.07 11.25 39.07 11.25 42.07 11.25 56.07"/><path class="2c35cd1c-c0da-4368-8c0d-4153cdb5d1a7" d="M11.75,42.07h3l4.41-4.41a2,2,0,0,1,1.42-.59H32.65a0.09,0.09,0,0,1,.1.1v0.9a3,3,0,0,1-3,3h-7v1.25a4,4,0,0,1-4,4H18.19"/><path class="2c35cd1c-c0da-4368-8c0d-4153cdb5d1a7" d="M36.75,34.07h-15a2,2,0,0,1-2-2v-11a2,2,0,0,1,2-2h15"/><path class="2c35cd1c-c0da-4368-8c0d-4153cdb5d1a7" d="M19.75,32.07h-3.5a1,1,0,0,1-1-1v-9a1,1,0,0,1,1-1h3.5"/><path class="2c35cd1c-c0da-4368-8c0d-4153cdb5d1a7" d="M36.75,19.07L58.3,7.31a2,2,0,0,1,1-.24h2.49a1,1,0,0,1,1,1v37a1,1,0,0,1-1,1H59.26a2,2,0,0,1-1-.24L36.75,34.07v-15Z"/><path class="2c35cd1c-c0da-4368-8c0d-4153cdb5d1a7" d="M27.75,45.07a2,2,0,0,1-2-2,2,2,0,0,1,2-2h6a2,2,0,0,1,2,2,2,2,0,0,1-2,2"/><path class="2c35cd1c-c0da-4368-8c0d-4153cdb5d1a7" d="M27.75,49.07a2,2,0,0,1-2-2,2,2,0,0,1,2-2h6a2,2,0,0,1,2,2,2,2,0,0,1-2,2"/><path class="2c35cd1c-c0da-4368-8c0d-4153cdb5d1a7" d="M27.75,53.07a2,2,0,0,1-1.66-.88,2,2,0,0,1,1.66-3.12h6a2,2,0,0,1,2,2,2,2,0,0,1-2,2h-3"/><path class="2c35cd1c-c0da-4368-8c0d-4153cdb5d1a7" d="M27.75,57.07a2,2,0,0,1-2-2,2,2,0,0,1,2-2h3a2,2,0,0,1,2,2,2,2,0,0,1-2,2H27.92"/><path class="2c35cd1c-c0da-4368-8c0d-4153cdb5d1a7" d="M27.92,57.07H19.53A2,2,0,0,1,19,57l-3.23-.92h-4"/><polyline class="2c35cd1c-c0da-4368-8c0d-4153cdb5d1a7" points="25.75 52.07 23.75 52.07 23.75 41.07"/><line class="2c35cd1c-c0da-4368-8c0d-4153cdb5d1a7" x1="28.75" y1="34.07" x2="28.75" y2="36.99"/><line class="2c35cd1c-c0da-4368-8c0d-4153cdb5d1a7" x1="23.75" y1="37.07" x2="23.75" y2="34.07"/><rect class="b550d2f6-f68f-4dfe-b8dc-15d753b0bb39" x="5.25" y="39.07" width="6" height="2"/><polyline class="2c35cd1c-c0da-4368-8c0d-4153cdb5d1a7" points="5.25 39.07 11.25 39.07 11.25 58.07 5.25 58.07"/></g></svg>