<svg id="a647ea58-4690-45e3-9440-0751baeaa769" data-name="Livello 1" xmlns="http://www.w3.org/2000/svg" viewBox="0 0 68 68"><defs><style>.\35 bd0d417-d09d-4df7-9e6f-21429da47b0b{fill:#c5e6ff;}.\37 99039b6-510e-4631-ad7b-1be7ea399f21{fill:#eaf6ff;}.\31 c09a120-e0ef-4290-a7ce-30d3fa549fe6{fill:#979eff;}.\38 6d8636e-ceae-40a3-bcfa-6034fe52f79c{fill:#dbd7f6;}.\33 8b2d7f3-a630-4e89-b6de-f2cd880a62b0{fill:#cae8ff;}.\36 ff789fc-24b3-4ed8-98f9-60009104b7df{fill:#7ac5ff;}.\34 edf6afd-0eea-4da5-b07f-341a47389058{fill:none;stroke:#666aad;stroke-miterlimit:10;}</style></defs><title>Ultimate Plan</title><g id="2596c767-dfa2-46f9-8fd1-e9c412b5f16b" data-name="Account Manager"><path class="5bd0d417-d09d-4df7-9e6f-21429da47b0b" d="M52.5,49.92V53H51a9,9,0,0,0-9,8.5H13.5a4,4,0,0,1-4-4v-46a1,1,0,0,1,1-1h9.25a4,4,0,0,0-.25,1.39V14.5h23V11.89a4.11,4.11,0,0,0-.22-1.32l0.22-.07h9a1,1,0,0,1,1,1V37.08A6.49,6.49,0,0,0,47,43.5c0,0.18,0,.35,0,0.53s0,0.29,0,.43a0.06,0.06,0,0,0,0,0A6.49,6.49,0,0,0,52.5,49.92Z"/><path class="799039b6-510e-4631-ad7b-1be7ea399f21" d="M10.5,12.5h9V11.89a4,4,0,0,1,.25-1.39H10.5a1,1,0,0,0-1,1v2A1,1,0,0,1,10.5,12.5Z"/><path class="799039b6-510e-4631-ad7b-1be7ea399f21" d="M51.5,10.5h-9l-0.22.07a4.11,4.11,0,0,1,.22,1.32V12.5h9a1,1,0,0,1,1,1v-2A1,1,0,0,0,51.5,10.5Z"/><path class="1c09a120-e0ef-4290-a7ce-30d3fa549fe6" d="M19.75,10.5a4,4,0,0,1,3.09-2.56L25.5,7.5h0a5.5,5.5,0,0,1,11,0h0l2.66,0.44a4,4,0,0,1,3.12,2.63,4.11,4.11,0,0,1,.22,1.32V14.5h-23V11.89A4,4,0,0,1,19.75,10.5Z"/><path class="86d8636e-ceae-40a3-bcfa-6034fe52f79c" d="M42.28,10.57a4,4,0,0,0-3.12-2.63L36.5,7.5h0a5.5,5.5,0,0,0-11,0h0l-2.66.44a4,4,0,0,0-3.34,4v2a4,4,0,0,1,3.34-4L25.5,9.5h0a5.5,5.5,0,0,1,11,0h0l2.66,0.44a4,4,0,0,1,3.12,2.63,4.11,4.11,0,0,1,.22,1.32v-2A4.11,4.11,0,0,0,42.28,10.57Z"/><path class="38b2d7f3-a630-4e89-b6de-f2cd880a62b0" d="M59.93,44.46c0-.14,0-0.28,0-0.43C60,44.17,60,44.32,59.93,44.46Z"/><path class="6ff789fc-24b3-4ed8-98f9-60009104b7df" d="M56,55H51a9,9,0,0,0-8.64,6.5A8.64,8.64,0,0,0,42,64v2H65V64A9,9,0,0,0,56,55Z"/><path class="6ff789fc-24b3-4ed8-98f9-60009104b7df" d="M53.5,39a6.52,6.52,0,0,0-6.42,5.5,6.49,6.49,0,0,0,5.42,5.42,6.64,6.64,0,0,0,1,.08,6.49,6.49,0,0,0,6.42-5.5A6.51,6.51,0,0,0,53.5,39Z"/><path class="38b2d7f3-a630-4e89-b6de-f2cd880a62b0" d="M53.5,37a6.64,6.64,0,0,0-1,.08A6.49,6.49,0,0,0,47,43.5c0,0.18,0,.35,0,0.53s0,0.29,0,.43a0.06,0.06,0,0,0,0,0,6.5,6.5,0,0,1,12.84,0,0.06,0.06,0,0,0,0,0c0-.14,0-0.28,0-0.43s0-.35,0-0.53A6.5,6.5,0,0,0,53.5,37Z"/><path class="38b2d7f3-a630-4e89-b6de-f2cd880a62b0" d="M56,53H51a9,9,0,0,0-9,8.5h0.35A9,9,0,0,1,51,55h5a9,9,0,0,1,9,9V62A9,9,0,0,0,56,53Z"/><path class="38b2d7f3-a630-4e89-b6de-f2cd880a62b0" d="M47,44c0,0.15,0,.29,0,0.43C47.05,44.32,47,44.17,47,44Z"/><path class="799039b6-510e-4631-ad7b-1be7ea399f21" d="M42,60.5h0.35A8.64,8.64,0,0,0,42,63V61C42,60.83,42,60.66,42,60.5Z"/><path class="4edf6afd-0eea-4da5-b07f-341a47389058" d="M42,61.5H13.5a4,4,0,0,1-4-4v-46a1,1,0,0,1,1-1H20"/><line class="4edf6afd-0eea-4da5-b07f-341a47389058" x1="52.5" y1="49.92" x2="52.5" y2="53"/><path class="4edf6afd-0eea-4da5-b07f-341a47389058" d="M42.5,10.5h9a1,1,0,0,1,1,1V37.08"/><path class="4edf6afd-0eea-4da5-b07f-341a47389058" d="M52.5,37.08a6.63,6.63,0,0,1,1-.08A6.5,6.5,0,0,1,60,43.5c0,0.18,0,.35,0,0.53s0,0.29,0,.43a0.06,0.06,0,0,1,0,0A6.49,6.49,0,0,1,53.5,50a6.63,6.63,0,0,1-1-.08,6.49,6.49,0,0,1-5.42-5.42,0.06,0.06,0,0,1,0,0c0-.14,0-0.29,0-0.43s0-.35,0-0.53A6.49,6.49,0,0,1,52.5,37.08Z"/><path class="4edf6afd-0eea-4da5-b07f-341a47389058" d="M52.5,53H56a9,9,0,0,1,9,9v4H42s0-4.34,0-4.5A9,9,0,0,1,51,53h1.5Z"/><path class="4edf6afd-0eea-4da5-b07f-341a47389058" d="M42.28,10.57a4,4,0,0,0-3.12-2.63L36.5,7.5h0a5.5,5.5,0,0,0-11,0h0l-2.66.44a4,4,0,0,0-3.34,4V14.5h23V11.89A4.11,4.11,0,0,0,42.28,10.57Z"/><line class="4edf6afd-0eea-4da5-b07f-341a47389058" x1="21.5" y1="45.5" x2="40.5" y2="45.5"/><line class="4edf6afd-0eea-4da5-b07f-341a47389058" x1="24.5" y1="50.5" x2="37.5" y2="50.5"/><polyline class="4edf6afd-0eea-4da5-b07f-341a47389058" points="19.3 38 25.49 30.73 33.38 36 41.12 25.05"/><polyline class="4edf6afd-0eea-4da5-b07f-341a47389058" points="42.27 28.41 41.12 25.05 37.5 25.5"/></g></svg>