<svg id="4b0e8148-fe8c-43a4-8da7-a4f6c47945ad" data-name="Livello 1" xmlns="http://www.w3.org/2000/svg" viewBox="0 0 68 68"><defs><style>.\33 beb1543-b8ab-4842-8030-b6f7e138c611{fill:#7ac5ff;}.aeefe775-9b40-4eea-a354-95f989d58485{fill:#cae8ff;}.\39 5b2609c-3107-46e6-8223-63e3976fc070,.d7df03dc-87b7-4876-a13a-9920d75a26f7{fill:none;stroke-miterlimit:10;}.d7df03dc-87b7-4876-a13a-9920d75a26f7{stroke:#666aad;}.\32 34526a5-81d0-4ede-98da-3358d0a0ce58{fill:#fff89e;}.e9513a55-f738-4e99-8c45-3eac2775b5da{fill:#fffdf0;}.\39 5b2609c-3107-46e6-8223-63e3976fc070{stroke:#fff;stroke-width:2px;}</style></defs><title>Ultimate Plan</title><g id="83d9d1da-6539-4d8f-83cc-be88f72fc004" data-name="Custom Domain"><rect class="3beb1543-b8ab-4842-8030-b6f7e138c611" x="2.5" y="16.27" width="63" height="22" rx="4" ry="4"/><path class="aeefe775-9b40-4eea-a354-95f989d58485" d="M61.5,16.27H6.5a4,4,0,0,0-4,4v2a4,4,0,0,1,4-4h55a4,4,0,0,1,4,4v-2A4,4,0,0,0,61.5,16.27Z"/><rect class="d7df03dc-87b7-4876-a13a-9920d75a26f7" x="2.5" y="16.27" width="63" height="22" rx="4" ry="4"/><polygon class="234526a5-81d0-4ede-98da-3358d0a0ce58" points="48.29 48.57 42.66 40.52 47.8 39.15 33.13 34.77 32.23 50.05 35.28 45.69 40.92 53.73 48.29 48.57"/><polygon class="e9513a55-f738-4e99-8c45-3eac2775b5da" points="41.94 40.3 40.63 40.54 46.88 49.56 47.8 48.67 41.94 40.3"/><polygon class="e9513a55-f738-4e99-8c45-3eac2775b5da" points="44.79 39.95 47.8 39.15 33.13 34.77 33.03 36.44 44.79 39.95"/><polyline class="95b2609c-3107-46e6-8223-63e3976fc070" points="8 22.77 11.5 30.77 14.5 25.77 17.5 30.77 21.5 22.77"/><polyline class="95b2609c-3107-46e6-8223-63e3976fc070" points="26 22.77 29.5 30.77 32.5 25.77 35.5 30.77 39.5 22.77"/><polyline class="95b2609c-3107-46e6-8223-63e3976fc070" points="45 22.77 48.5 30.77 51.5 25.77 54.5 30.77 58.5 22.77"/><polygon class="d7df03dc-87b7-4876-a13a-9920d75a26f7" points="48.29 48.57 42.66 40.52 47.8 39.15 33.13 34.77 32.23 50.05 35.28 45.69 40.92 53.73 48.29 48.57"/></g></svg>