<svg id="1f22c209-bb50-4e41-b038-92c187bb0914" data-name="Livello 1" xmlns="http://www.w3.org/2000/svg" viewBox="0 0 68 68"><defs><style>.dd07e9bc-0e34-4fce-a5f1-2d08a81e1678{fill:#7ac5ff;}.\30 942b472-df6d-44c4-977f-e4b1f782ced3{fill:#c5e6ff;}.\33 0ab6dd3-2362-40f4-bce5-1359c807a029{fill:#666aad;}.b6a8d9ae-6c04-4b75-b000-8ef5317c503c{fill:none;stroke:#666aad;stroke-miterlimit:10;}</style></defs><title>Ultimate Plan</title><g id="9ba4fa78-a36e-407d-a7cb-312099ddb38a" data-name="HTML Editor"><path class="dd07e9bc-0e34-4fce-a5f1-2d08a81e1678" d="M10,15a1,1,0,1,0-1-1A1,1,0,0,0,10,15ZM4.5,10.5h59a1,1,0,0,1,1,1v6H3.5v-6A1,1,0,0,1,4.5,10.5ZM15,15a1,1,0,1,0-1-1A1,1,0,0,0,15,15Z"/><path class="0942b472-df6d-44c4-977f-e4b1f782ced3" d="M63.5,10.5H4.5a1,1,0,0,0-1,1v2a1,1,0,0,1,1-1h59a1,1,0,0,1,1,1v-2A1,1,0,0,0,63.5,10.5Z"/><path class="0942b472-df6d-44c4-977f-e4b1f782ced3" d="M64.5,17.5v36a4,4,0,0,1-4,4H7.5a4,4,0,0,1-4-4v-36h61Z"/><circle class="30ab6dd3-2362-40f4-bce5-1359c807a029" cx="15" cy="14" r="1"/><circle class="30ab6dd3-2362-40f4-bce5-1359c807a029" cx="10" cy="14" r="1"/><path class="b6a8d9ae-6c04-4b75-b000-8ef5317c503c" d="M64.5,53.5a4,4,0,0,1-4,4H7.5a4,4,0,0,1-4-4v-42a1,1,0,0,1,1-1h59a1,1,0,0,1,1,1v42Z"/><line class="b6a8d9ae-6c04-4b75-b000-8ef5317c503c" x1="3.5" y1="17.5" x2="64.5" y2="17.5"/><polyline class="b6a8d9ae-6c04-4b75-b000-8ef5317c503c" points="25 43.5 19 38 25 32.5"/><polyline class="b6a8d9ae-6c04-4b75-b000-8ef5317c503c" points="43 43.5 49 38 43 32.5"/><line class="b6a8d9ae-6c04-4b75-b000-8ef5317c503c" x1="29.78" y1="44.22" x2="38.22" y2="30.78"/></g></svg>