<svg xmlns="http://www.w3.org/2000/svg" viewBox="0 0 380 80"><path d="M40.2 50.4L26.9 27.3H13.5c-5.5 0-8.9 6-6.2 10.7l20 34.7c2.7 4.7 9.6 4.8 12.4 0l12.9-22.3c-2.7 4.8-9.6 4.7-12.4 0z" fill="#8759f2"/><path d="M53.6 27.3H26.9l13.3 23.1c2.7 4.7 9.6 4.8 12.4 0L59.8 38c2.7-4.8-.8-10.7-6.2-10.7z" fill="#ff3e80"/><path d="M66.5 5H26.4c-5.5 0-8.9 5.9-6.2 10.7l6.7 11.6h26.7c5.5 0 8.9 6 6.2 10.7l12.9-22.3C75.4 11 72 5 66.5 5z" fill="#ffc300"/><path d="M20.2 15.7a6.95 6.95 0 0 1 0-7.1L7.3 30.9c1.3-2.2 3.6-3.6 6.2-3.6h13.4l-6.7-11.6z" fill="#00d4e6"/><path d="M313.9 26.5c-10.8 0-19.3 8.3-19.3 18.6s8.3 18.6 19.3 18.6 19.3-8.3 19.3-18.6-8.5-18.6-19.3-18.6zm0 29.7c-6.1 0-10.6-4.9-10.6-11s4.7-11 10.6-11c5.9 0 10.6 4.9 10.6 11s-4.6 11-10.6 11zm-126.2-44h-3.1c-2 0-3 1-3 3v44.7c0 2 1 3 3 3h3.1c2 0 3-1 3-3V15.2c0-2-1-3-3-3zm96.6 15.2h-3.1c-2 0-3 1-3 3V60c0 2 1 3 3 3h3.1c2 0 3-1 3-3V30.4c0-2-1.1-3-3-3zm-154.6-.1h-2.9c-2 0-2.9.7-3.6 2.6L114.7 53l-8.5-23.1c-.7-1.9-1.6-2.6-3.6-2.6h-3c-1.9 0-3.6.8-2.6 3.4l11.7 29.1c1 2.6 2 3.1 4.1 3.1h3.7c2.1 0 3.1-.6 4.1-3.1l11.7-29.1c1-2.6-.7-3.4-2.6-3.4zm101.2.1h-3.1c-2 0-3 1-3 3v14.9c-.3 7.1-4.4 10.9-9.4 10.9-4 0-6.2-3.5-6.2-8.8v-17c0-2-1-3-3-3h-3.1c-2 0-3 1-3 3v17.7c0 6.3 2.8 15.7 13.2 15.7 8.3 0 10.9-5.4 11.5-7.2V60c0 2 1 3 3 3h3.1c2 0 3-1 3-3V30.4c0-2-1-3-3-3zM343.3 63h3.1c2 0 3-1 3-3V45c.3-7.1 4.4-10.9 9.4-10.9 4 0 6.2 3.5 6.2 8.8v17c0 2 1 3 3 3h3.1c2 0 3-1 3-3V42.2c0-6.3-2.8-15.7-13.2-15.7-8.3 0-10.9 5.4-11.5 7.2v-3.3c0-2-1-3-3-3h-3.1c-2 0-3 1-3 3V60c0 2 1.1 3 3 3zm-54.9-46.1c0 2.9-2.1 5.3-5.7 5.3s-5.7-2.4-5.7-5.3 2.2-5.3 5.7-5.3 5.7 2.4 5.7 5.3zm-20.1 15.2c.2-.7.2-1.4-.1-2.1-.3-.6-.9-1.1-1.5-1.3-2.8-1-6.6-2.2-11-2.2-7.8 0-13.2 4.4-13.5 10.1-.2 4.6 2.4 7.6 5.7 9.4 3.9 2.1 8.4 2.8 10.4 3.5 2.1.8 3.2 1.7 3.3 3.5 0 1.8-1.7 3.4-5.2 3.4-4.4 0-8.1-1.5-10.5-2.5-1.3-.6-2.8-.1-3.5 1.2l-.7 1.9c-.6 1.3-.1 2.8 1.1 3.5 2.6 1.4 7.5 3.3 13.2 3.3 8.8 0 14.1-4.7 14.1-10.9 0-2.8-.9-6.2-5.6-8.7-2.5-1.4-9.4-2.7-11.7-4-1.6-.8-2.3-2.1-2.1-3.5.2-2 2.1-2.9 4.5-3.1 3.9-.2 6.7 1.1 9.5 1.8 1.3.3 2.6-.5 3-1.7l.6-1.6zm-113.6-5.6c-10.8 0-19.3 8.3-19.3 18.6s8.3 18.6 19.3 18.6S174 55.4 174 45.1s-8.5-18.6-19.3-18.6zm0 29.7c-6.1 0-10.6-4.9-10.6-11s4.7-11 10.6-11c5.9 0 10.6 4.9 10.6 11s-4.5 11-10.6 11z" fill="#221b43"/></svg>