<svg id="eab78aa2-040a-4de4-a9b1-44b584c94425" data-name="Livello 1" xmlns="http://www.w3.org/2000/svg" viewBox="0 0 68 68"><defs><style>.\33 d302cf6-db3e-4312-86e0-164644dfbe74{fill:#949bff;}.\38 5883c92-138d-4555-b0c2-67f21a07d578{fill:#ffc79f;}.\38 e16819d-4206-4cab-9927-5cd1442506df{fill:#d8d4f3;}.e6e870f1-aeee-4a1b-9408-beaa67102e98{fill:#fff;}.\36 e5472e8-6ad5-4b67-86ed-d21100ee1eaa{fill:none;stroke:#666aaa;stroke-miterlimit:10;}.\39 56395f4-29f0-4af5-b11c-9ab3a885028b{fill:#ffddc5;}</style></defs><title>Free Plan</title><path class="3d302cf6-db3e-4312-86e0-164644dfbe74" d="M62.62,11l-14,14.85V25.56l-17,17.74-7.29-7.36L48,13.33l0.61-.52V12.74L56.67,5a1.4,1.4,0,0,1,1.95,0l4,4A1.41,1.41,0,0,1,62.62,11Z"/><path class="85883c92-138d-4555-b0c2-67f21a07d578" d="M26.6,49.23a8.46,8.46,0,0,0-2.39-5.49,8.33,8.33,0,0,0-5.47-2.42,10,10,0,0,0-5.27,1.15A6.28,6.28,0,0,0,10.4,45h0a6.38,6.38,0,0,0-.54,6,3.52,3.52,0,0,1-.64,3.6L4,61c0,0.25,15.38.42,19.37-3.6A10.77,10.77,0,0,0,26.6,49.23Z"/><path class="8e16819d-4206-4cab-9927-5cd1442506df" d="M48,16.13l0.61-.52V15.54l8.06-7.71a1.4,1.4,0,0,1,1.95,0l3.58,3.62L62.62,11a1.41,1.41,0,0,0,0-1.95l-4-4a1.4,1.4,0,0,0-1.95,0l-8.06,7.71v0.07L48,13.33,24.34,35.95l1.43,1.44Z"/><polygon class="e6e870f1-aeee-4a1b-9408-beaa67102e98" points="48.61 25.56 48.61 25.89 31.91 43.58 31.63 43.3 48.61 25.56"/><polygon class="e6e870f1-aeee-4a1b-9408-beaa67102e98" points="48.61 12.74 48.61 12.81 48 13.33 48.61 12.74"/><polygon class="e6e870f1-aeee-4a1b-9408-beaa67102e98" points="31.63 43.3 31.91 43.58 30.54 45.04 29.96 45.04 31.63 43.3"/><path class="e6e870f1-aeee-4a1b-9408-beaa67102e98" d="M24.34,35.95l7.29,7.36L30,45h0.57L26.6,49.23a8.46,8.46,0,0,0-2.39-5.49,8.33,8.33,0,0,0-5.47-2.42Z"/><path class="6e5472e8-6ad5-4b67-86ed-d21100ee1eaa" d="M18.74,41.31L56.67,5a1.4,1.4,0,0,1,1.95,0l4,4a1.41,1.41,0,0,1,0,1.95l-36,38.2"/><polyline class="6e5472e8-6ad5-4b67-86ed-d21100ee1eaa" points="32.07 43.74 31.91 43.58 24.34 35.95 24.2 35.81"/><path class="956395f4-29f0-4af5-b11c-9ab3a885028b" d="M6.45,61.15l4.15-5.08a4.42,4.42,0,0,0,1.65-3.23c0-1.36-1-2-1.1-3.62a5.18,5.18,0,0,1,.63-2.78h0a6.28,6.28,0,0,1,3.06-2.58,10,10,0,0,1,5.27-1.15,8.4,8.4,0,0,1,4.69,1.78,8.15,8.15,0,0,0-.62-0.76,8.33,8.33,0,0,0-5.47-2.42,10,10,0,0,0-5.27,1.15A6.28,6.28,0,0,0,10.4,45h0a6.38,6.38,0,0,0-.54,6,3.52,3.52,0,0,1-.64,3.6L4,61A11.33,11.33,0,0,0,6.45,61.15Z"/><path class="6e5472e8-6ad5-4b67-86ed-d21100ee1eaa" d="M11.07,44.11a10,10,0,0,1,2.39-1.65,10,10,0,0,1,5.27-1.15,8.33,8.33,0,0,1,5.47,2.42,8.46,8.46,0,0,1,2.39,5.49,10.77,10.77,0,0,1-3.23,8.21C19.38,61.46,4,61.29,4,61l5.2-6.38a3.52,3.52,0,0,0,.64-3.6,6.38,6.38,0,0,1,.54-6A6.07,6.07,0,0,1,11.07,44.11Z"/></svg>