<svg id="ecf78e99-80ae-4a31-ae34-a8d3a52206f4" data-name="Livello 1" xmlns="http://www.w3.org/2000/svg" viewBox="0 0 68 68"><defs><style>.c390af57-0b1b-4464-851d-b39e13440876{fill:#7ac2ff;}.a4513342-20b4-4acc-a3e9-4530737594a3{fill:#c7e5ff;}.\36 1bfa894-8a7e-4da4-a149-a7c08c9e34ab{fill:#fff7bf;}.\32 96fa985-33e5-4767-bc55-8bbbb21d8ecd,.\33 9a197ee-4225-4aa4-bae3-251e7bbbdee8,.\37 7a535b2-4102-479d-b172-66bed895afcf{fill:none;}.\32 96fa985-33e5-4767-bc55-8bbbb21d8ecd{stroke:#ffc79f;}.\32 96fa985-33e5-4767-bc55-8bbbb21d8ecd,.\33 9a197ee-4225-4aa4-bae3-251e7bbbdee8{stroke-miterlimit:10;}.\39 7280738-9f8f-42f9-afcd-3fc49592be87{fill:#ffc79f;}.faffe9ad-2829-4563-8de9-c600cd5d96ae{fill:#fff59b;}.\38 8c0dcd6-4b2d-4218-b0bc-f2a1010c93cd{fill:#fff;}.\33 9a197ee-4225-4aa4-bae3-251e7bbbdee8,.\37 7a535b2-4102-479d-b172-66bed895afcf{stroke:#666aaa;}.\37 7a535b2-4102-479d-b172-66bed895afcf{stroke-linejoin:round;}</style></defs><title>Free Plan</title><path class="c390af57-0b1b-4464-851d-b39e13440876" d="M41.64,44.69l4,7.11-3.4-.37L37.93,51l-0.37.82L34.77,58l-5.42-9.49h0a3.39,3.39,0,0,0,2.79-2l0.69-1.5a3.42,3.42,0,0,1,2.7-1.95l1.63-.19a3.39,3.39,0,0,0,2.57-1.71Z"/><path class="a4513342-20b4-4acc-a3e9-4530737594a3" d="M38,42.3a3.36,3.36,0,0,0,1.32-1.63l6.4,11-2.41-.24Z"/><polygon class="a4513342-20b4-4acc-a3e9-4530737594a3" points="36.17 50.12 38.3 50.43 34.97 57.99 33.68 55.77 36.17 50.12"/><path class="c390af57-0b1b-4464-851d-b39e13440876" d="M18.59,48.37l0,0.11L13.06,58,9.94,50.92l-7.67.78,6.4-11a3.36,3.36,0,0,0,2.76,2.15L13.06,43a3.43,3.43,0,0,1,2.69,2l0.67,1.5A3.44,3.44,0,0,0,18.59,48.37Z"/><path class="a4513342-20b4-4acc-a3e9-4530737594a3" d="M10,42.3a3.36,3.36,0,0,1-1.32-1.63l-6.4,11,2.41-.24Z"/><polygon class="a4513342-20b4-4acc-a3e9-4530737594a3" points="11.86 50.12 9.73 50.43 13.06 57.99 14.35 55.77 11.86 50.12"/><path class="61bfa894-8a7e-4da4-a149-a7c08c9e34ab" d="M56.44,30.1a5,5,0,0,1,.77,2.66,3.32,3.32,0,0,1,0,.34c-0.27,3.6-4.56,6.45-9.81,6.45A11.72,11.72,0,0,1,39.74,37a3.39,3.39,0,0,1,1.08-2.87L42,33a3.42,3.42,0,0,0,0-5l-0.63-.59a11.85,11.85,0,0,1,4.18-1.31,14.19,14.19,0,0,1,1.86-.12C51.5,26,55,27.66,56.44,30.1Z"/><path class="296fa985-33e5-4767-bc55-8bbbb21d8ecd" d="M38.7,32.74c0-3.15,3.9-5.68,8.69-5.67S56,29.62,56,32.76A2.62,2.62,0,0,1,56,33c-0.24,3-4,5.4-8.67,5.39S38.69,35.87,38.7,32.74Z"/><path class="c390af57-0b1b-4464-851d-b39e13440876" d="M39.72,41.21a3.39,3.39,0,0,1-2.57,1.71l-1.63.19a3.42,3.42,0,0,0-2.7,1.95l-0.69,1.5a3.39,3.39,0,0,1-2.79,2,3.35,3.35,0,0,1-2-.43l-1.43-.81a3.39,3.39,0,0,0-3.32,0l-1.43.8a3.39,3.39,0,0,1-4.76-1.56L15.75,45a3.43,3.43,0,0,0-2.69-2l-1.62-.2a3.41,3.41,0,0,1-2.92-4.07l0.32-1.6a3.41,3.41,0,0,0-1-3.18l-1.2-1.13a3.4,3.4,0,0,1,0-5l1.21-1.12a3.41,3.41,0,0,0,1-3.17l-0.31-1.6a3.4,3.4,0,0,1,3-4l1.62-.19a3.42,3.42,0,0,0,2.71-1.95l0.69-1.5a3.41,3.41,0,0,1,4.77-1.53l1.43,0.81a3.39,3.39,0,0,0,3.32,0l1.43-.8a3.41,3.41,0,0,1,4.76,1.56l0.67,1.5a3.42,3.42,0,0,0,2.68,2L37.24,18a3.41,3.41,0,0,1,2.92,4.07l-0.32,1.6a3.4,3.4,0,0,0,1,3.18l0.58,0.54L42.06,28a3.42,3.42,0,0,1,0,5L40.82,34.1A3.39,3.39,0,0,0,39.74,37a2.66,2.66,0,0,0,0,.3l0.31,1.6A3.38,3.38,0,0,1,39.72,41.21ZM36.24,30.45a11.91,11.91,0,1,0-12,11.85A11.91,11.91,0,0,0,36.24,30.45Z"/><path class="a4513342-20b4-4acc-a3e9-4530737594a3" d="M8.69,22.52a3.38,3.38,0,0,1,2.84-2.35L13.15,20A3.42,3.42,0,0,0,15.86,18l0.69-1.5A3.41,3.41,0,0,1,21.31,15l1.43,0.81a3.39,3.39,0,0,0,3.32,0L27.5,15a3.41,3.41,0,0,1,4.76,1.56l0.67,1.5a3.42,3.42,0,0,0,2.68,2l1.63,0.2a3.38,3.38,0,0,1,2.81,2.35l0.11-.55A3.41,3.41,0,0,0,37.24,18l-1.63-.2a3.42,3.42,0,0,1-2.68-2l-0.67-1.5a3.41,3.41,0,0,0-4.76-1.56l-1.43.8a3.39,3.39,0,0,1-3.32,0l-1.43-.81a3.41,3.41,0,0,0-4.77,1.53l-0.69,1.5a3.42,3.42,0,0,1-2.71,1.95l-1.62.19a3.4,3.4,0,0,0-3,4Z"/><path class="a4513342-20b4-4acc-a3e9-4530737594a3" d="M39.84,25.94a3.4,3.4,0,0,0,1,3.18l0.58,0.54,0.63,0.59a3.35,3.35,0,0,1,.87,1.35A3.41,3.41,0,0,0,42.06,28l-0.63-.59-0.58-.54a3.38,3.38,0,0,1-.9-1.42Z"/><path class="a4513342-20b4-4acc-a3e9-4530737594a3" d="M8.73,37.68L8.51,38.75a3.33,3.33,0,0,0,.11,1.75l0.22-1.07A3.46,3.46,0,0,0,8.73,37.68Z"/><path class="a4513342-20b4-4acc-a3e9-4530737594a3" d="M39.9,37.84a3.37,3.37,0,0,0-.16,1.41,2.66,2.66,0,0,0,0,.3l0.2,1a3.35,3.35,0,0,0,.11-1.71Z"/><path class="a4513342-20b4-4acc-a3e9-4530737594a3" d="M6.64,30.11L7.85,29a3.41,3.41,0,0,0,1-3.17l-0.11-.56a3.35,3.35,0,0,1-.94,1.45L6.64,27.84a3.39,3.39,0,0,0-.9,3.65A3.34,3.34,0,0,1,6.64,30.11Z"/><path class="61bfa894-8a7e-4da4-a149-a7c08c9e34ab" d="M47.46,25.95a14.19,14.19,0,0,0-1.86.12v0l0-9.19c0,3.75,4.35,6.81,9.75,6.81s9.54-2.84,9.81-6.45h0l0,6.14c0,3.5-3.83,6.38-8.75,6.74C55,27.66,51.5,26,47.46,25.95Z"/><path class="97280738-9f8f-42f9-afcd-3fc49592be87" d="M55.24,23.66c5.25,0,9.54-2.84,9.81-6.45h0V24c-0.52,3.42-4.71,6.09-9.78,6.08Z"/><path class="97280738-9f8f-42f9-afcd-3fc49592be87" d="M55.9,30.1c5.25,0,9.54-2.84,9.81-6.45h0v6.81c-0.52,3.42-4.71,6.09-9.78,6.08Z"/><path class="97280738-9f8f-42f9-afcd-3fc49592be87" d="M55.24,37c5.25,0,9.54-2.84,9.81-6.45h0v6.81c-0.52,3.42-4.71,6.09-9.78,6.08Z"/><path class="97280738-9f8f-42f9-afcd-3fc49592be87" d="M55.24,43.45c5.25,0,9.54-2.84,9.81-6.45h0v6.81c-0.52,3.42-4.71,6.09-9.78,6.08Z"/><path class="61bfa894-8a7e-4da4-a149-a7c08c9e34ab" d="M39.74,37a11.72,11.72,0,0,0,7.65,2.58c5.25,0,9.54-2.84,9.81-6.45h0v6.81C56.66,43.34,52.48,46,47.41,46a12.85,12.85,0,0,1-5.77-1.31l-1.93-3.48a3.38,3.38,0,0,0,.38-2.34l-0.31-1.6A2.66,2.66,0,0,1,39.74,37Z"/><path class="97280738-9f8f-42f9-afcd-3fc49592be87" d="M47.39,39.55c5.25,0,9.54-2.84,9.81-6.45h0v6.81C56.66,43.34,52.48,46,47.41,46Z"/><path class="61bfa894-8a7e-4da4-a149-a7c08c9e34ab" d="M42.2,51.44a13.22,13.22,0,0,0,5.19,1c5.07,0,9.25-2.66,9.78-6.09v5.75c0,3.76-4.41,6.8-9.82,6.79s-9.76-3.06-9.75-6.81V51.78L37.93,51Z"/><path class="61bfa894-8a7e-4da4-a149-a7c08c9e34ab" d="M47.39,52.48a13.22,13.22,0,0,1-5.19-1l3.4,0.37-4-7.11A12.85,12.85,0,0,0,47.41,46c5.07,0,9.25-2.66,9.78-6.08v6.47C56.64,49.82,52.46,52.49,47.39,52.48Z"/><path class="97280738-9f8f-42f9-afcd-3fc49592be87" d="M47.39,46.37c5.25,0,9.54-2.84,9.81-6.45h0v6.81c-0.52,3.42-4.71,6.09-9.78,6.08Z"/><path class="97280738-9f8f-42f9-afcd-3fc49592be87" d="M47.39,52.06c5.25,0,9.54-2.84,9.81-6.45h0v6.81c-0.52,3.42-4.71,6.09-9.78,6.08Z"/><path class="61bfa894-8a7e-4da4-a149-a7c08c9e34ab" d="M65.21,16.87a3.32,3.32,0,0,1,0,.34c-0.27,3.6-4.56,6.45-9.81,6.45s-9.76-3.06-9.75-6.81,4.41-6.8,9.82-6.79S65.23,13.12,65.21,16.87Z"/><path class="296fa985-33e5-4767-bc55-8bbbb21d8ecd" d="M46.77,16.87c0-3.15,3.9-5.68,8.69-5.67s8.63,2.56,8.62,5.7a2.62,2.62,0,0,1,0,.29c-0.24,3-4,5.4-8.67,5.39S46.76,20,46.77,16.87Z"/><polygon class="faffe9ad-2829-4563-8de9-c600cd5d96ae" points="31.55 27.66 27.95 31.15 28.79 36.08 24.34 33.75 19.89 36.07 20.75 31.15 17.15 27.65 22.12 26.94 24.35 22.46 26.57 26.94 31.55 27.66"/><path class="88c0dcd6-4b2d-4218-b0bc-f2a1010c93cd" d="M24.38,18.51a11.9,11.9,0,1,1-12,11.85A11.91,11.91,0,0,1,24.38,18.51Zm3.57,12.64,3.6-3.49-5-.72-2.22-4.48-2.23,4.48-5,.71,3.59,3.49-0.86,4.92,4.45-2.31,4.45,2.33Z"/><path class="39a197ee-4225-4aa4-bae3-251e7bbbdee8" d="M36.24,30.45A11.91,11.91,0,1,1,24.38,18.51,11.91,11.91,0,0,1,36.24,30.45Z"/><polygon class="39a197ee-4225-4aa4-bae3-251e7bbbdee8" points="26.57 26.94 31.55 27.66 27.95 31.15 28.79 36.08 24.34 33.75 19.89 36.07 20.75 31.15 17.15 27.65 22.12 26.94 24.35 22.46 26.57 26.94"/><path class="39a197ee-4225-4aa4-bae3-251e7bbbdee8" d="M8.68,40.68a3.34,3.34,0,0,1-.16-1.92l0.32-1.6a3.41,3.41,0,0,0-1-3.18l-1.2-1.13a3.4,3.4,0,0,1,0-5l1.21-1.12a3.41,3.41,0,0,0,1-3.17l-0.31-1.6a3.4,3.4,0,0,1,3-4l1.62-.19a3.42,3.42,0,0,0,2.71-1.95l0.69-1.5a3.41,3.41,0,0,1,4.77-1.53l1.43,0.81a3.39,3.39,0,0,0,3.32,0l1.43-.8a3.41,3.41,0,0,1,4.76,1.56l0.67,1.5a3.42,3.42,0,0,0,2.68,2L37.24,18a3.41,3.41,0,0,1,2.92,4.07l-0.32,1.6a3.4,3.4,0,0,0,1,3.18l0.58,0.54L42.06,28a3.42,3.42,0,0,1,0,5L40.82,34.1A3.39,3.39,0,0,0,39.74,37a2.66,2.66,0,0,0,0,.3l0.31,1.6a3.42,3.42,0,0,1-3,4l-1.63.19a3.42,3.42,0,0,0-2.7,1.95l-0.69,1.5a3.39,3.39,0,0,1-2.79,2,3.35,3.35,0,0,1-2-.43l-1.43-.81a3.39,3.39,0,0,0-3.32,0l-1.43.8a3.39,3.39,0,0,1-4.76-1.56L15.75,45a3.43,3.43,0,0,0-2.69-2l-1.62-.2A3.36,3.36,0,0,1,8.68,40.68Z"/><polyline class="77a535b2-4102-479d-b172-66bed895afcf" points="18.57 48.48 13.06 57.99 9.94 50.92 2.27 51.7 8.68 40.68"/><polyline class="77a535b2-4102-479d-b172-66bed895afcf" points="39.6 41.01 45.6 51.8 37.93 50.97 34.77 58.02 29.35 48.52"/><path class="39a197ee-4225-4aa4-bae3-251e7bbbdee8" d="M57.17,45.72a4.91,4.91,0,0,1-.11,1"/><path class="39a197ee-4225-4aa4-bae3-251e7bbbdee8" d="M57.14,52.14c0,3.76-4.41,6.8-9.82,6.79s-9.76-3.06-9.75-6.81v-0.5"/><line class="39a197ee-4225-4aa4-bae3-251e7bbbdee8" x1="57.21" y1="33.1" x2="57.14" y2="52.14"/><path class="39a197ee-4225-4aa4-bae3-251e7bbbdee8" d="M57.19,39.92C56.66,43.34,52.48,46,47.41,46a12.85,12.85,0,0,1-5.77-1.31h0"/><path class="39a197ee-4225-4aa4-bae3-251e7bbbdee8" d="M45.64,16.84c0-3.76,4.41-6.8,9.82-6.79s9.76,3.06,9.75,6.81a3.32,3.32,0,0,1,0,.34c-0.27,3.6-4.56,6.45-9.81,6.45S45.62,20.6,45.64,16.84Z"/><path class="39a197ee-4225-4aa4-bae3-251e7bbbdee8" d="M65.19,23.35c0,3.5-3.83,6.38-8.75,6.74"/><path class="39a197ee-4225-4aa4-bae3-251e7bbbdee8" d="M65.16,29.82a4.91,4.91,0,0,1-.11,1"/><line class="39a197ee-4225-4aa4-bae3-251e7bbbdee8" x1="45.6" y1="26.03" x2="45.64" y2="16.84"/><path class="39a197ee-4225-4aa4-bae3-251e7bbbdee8" d="M65.16,29.82c0,3.31-3.45,6-8,6.63h0"/><path class="39a197ee-4225-4aa4-bae3-251e7bbbdee8" d="M65.14,36.25c0,3.29-3.38,6-7.85,6.65"/><line class="39a197ee-4225-4aa4-bae3-251e7bbbdee8" x1="65.21" y1="17.21" x2="65.11" y2="43.45"/><path class="39a197ee-4225-4aa4-bae3-251e7bbbdee8" d="M65.11,43.45c0,3.32-3.44,6.07-8,6.67"/><path class="39a197ee-4225-4aa4-bae3-251e7bbbdee8" d="M41.42,27.38a11.85,11.85,0,0,1,4.18-1.31,14.19,14.19,0,0,1,1.86-.12c4,0,7.5,1.71,9,4.15a5,5,0,0,1,.77,2.66,3.32,3.32,0,0,1,0,.34c-0.27,3.6-4.56,6.45-9.81,6.45A11.72,11.72,0,0,1,39.74,37"/><path class="39a197ee-4225-4aa4-bae3-251e7bbbdee8" d="M57.16,46.39c-0.52,3.43-4.71,6.1-9.78,6.09a13.22,13.22,0,0,1-5.19-1"/></svg>