<svg id="0b7a66c6-94f7-498e-9760-6c17b8efad92" data-name="Livello 1" xmlns="http://www.w3.org/2000/svg" viewBox="0 0 68 68"><defs><style>.ebaf463a-21e6-4e57-981e-68342b3b2376{fill:#d3ffd0;}.\36 1986547-6e37-4cfd-95d8-59347e1b5cf0{fill:#949bff;}.\31 f5d8999-07c8-40d2-8f4f-653fbe0b955b{fill:#d8d4f3;}.\31 404c0a8-b551-47ad-af26-a664564dff33{fill:#7ac2ff;}.c722438b-d5ab-4f55-8680-26bdb1263dff{fill:#c7e5ff;}.\38 17375f1-505e-4752-acf0-d210220a89c4{fill:#ffc79f;}.\36 5753434-2a01-4f17-af79-7e65fd7f0ce6{fill:#fff;}.\34 9b89bbb-4be4-4107-9f71-4d3c443672cc{fill:none;stroke:#666aaa;stroke-miterlimit:10;}.\34 6dcd63b-11c1-4dfe-8eeb-9608dc45273f{fill:#ffddc5;}</style></defs><title>Free Plan</title><polygon class="ebaf463a-21e6-4e57-981e-68342b3b2376" points="55.72 19.18 52.18 22.71 43.03 13.57 46.56 10.03 55.72 19.18"/><polygon class="61986547-6e37-4cfd-95d8-59347e1b5cf0" points="55.72 19.18 52.18 22.71 43.03 13.57 46.56 10.03 55.72 19.18"/><polygon class="1f5d8999-07c8-40d2-8f4f-653fbe0b955b" points="47.94 11.41 46.56 10.03 43.06 13.92 44.21 15.15 47.94 11.41"/><polygon class="1404c0a8-b551-47ad-af26-a664564dff33" points="43.75 38.31 36.03 45.99 35.73 46.29 32.26 42.66 40.07 34.84 43.75 38.31"/><path class="1404c0a8-b551-47ad-af26-a664564dff33" d="M30.64,26L23.3,33.31l-20.1-21a1.45,1.45,0,0,1,0-2l4.21-4.2A1.52,1.52,0,0,1,9.51,6L18,14.08v0.07l0.65,0.54,11.8,11.13Z"/><path class="c722438b-d5ab-4f55-8680-26bdb1263dff" d="M24.77,31.84h0L6.2,12.4a1.45,1.45,0,0,1,0-2l3.83-3.82L9.51,6a1.52,1.52,0,0,0-2.07,0l-4.21,4.2a1.45,1.45,0,0,0,0,2l12.39,13,0,0,20.1,21,1.48-1.48Z"/><path class="61986547-6e37-4cfd-95d8-59347e1b5cf0" d="M58.54,10.69a4,4,0,0,1,0,5.66l-2.82,2.83L46.56,10,49.39,7.2A4,4,0,0,1,55,7.2Z"/><polygon class="61986547-6e37-4cfd-95d8-59347e1b5cf0" points="23.3 33.31 30.64 25.97 43.03 13.57 52.18 22.71 40.07 34.84 32.26 42.66 16.84 58.09 7.69 48.94 23.3 33.31"/><path class="1f5d8999-07c8-40d2-8f4f-653fbe0b955b" d="M49.37,10A4,4,0,0,1,55,10l3.49,3.49a4,4,0,0,1,.92,1.47,4,4,0,0,0-.9-4.25L55,7.2a4,4,0,0,0-5.66,0L46.56,10l1.38,1.38Z"/><polygon class="1f5d8999-07c8-40d2-8f4f-653fbe0b955b" points="23.28 36.09 30.62 28.75 44.21 15.15 43.03 13.57 30.64 25.97 23.3 33.31 7.69 48.94 9.07 50.32 23.28 36.09"/><path class="817375f1-505e-4752-acf0-d210220a89c4" d="M59.79,57.86l4.36,5.51C63.58,63.52,51,66.66,44.84,60c-0.64-.69-3.74-4-3.48-7.83a10.17,10.17,0,0,1,1.38-4.29,8.32,8.32,0,0,1,1.16-1.44,8.87,8.87,0,0,1,5.79-2.53,10.36,10.36,0,0,1,5.59,1.2,7.49,7.49,0,0,1,3.23,3.14,8.68,8.68,0,0,1,.6,5.84,3.67,3.67,0,0,0-.2,1.9A4,4,0,0,0,59.79,57.86Z"/><path class="65753434-2a01-4f17-af79-7e65fd7f0ce6" d="M43.75,38.31l5.94,5.61a8.87,8.87,0,0,0-5.79,2.53,8.32,8.32,0,0,0-1.16,1.44,10.17,10.17,0,0,0-1.38,4.29l-4.17-4.37H37.8L36,46Z"/><polygon class="65753434-2a01-4f17-af79-7e65fd7f0ce6" points="16.84 58.09 4.26 61.53 7.69 48.94 16.84 58.09"/><polygon class="65753434-2a01-4f17-af79-7e65fd7f0ce6" points="36.03 45.99 37.8 47.81 37.19 47.81 35.73 46.29 36.03 45.99"/><polygon class="65753434-2a01-4f17-af79-7e65fd7f0ce6" points="18.69 14.69 18.04 14.15 18.04 14.08 18.69 14.69"/><polyline class="49b89bbb-4be4-4107-9f71-4d3c443672cc" points="32.15 42.55 32.26 42.66 35.73 46.29 37.19 47.81 41.36 52.18"/><path class="49b89bbb-4be4-4107-9f71-4d3c443672cc" d="M30.49,25.82L18.69,14.69,18,14.08,9.51,6a1.52,1.52,0,0,0-2.07,0l-4.21,4.2a1.45,1.45,0,0,0,0,2l20.1,21,0.2,0.21"/><polyline class="49b89bbb-4be4-4107-9f71-4d3c443672cc" points="49.69 43.92 43.75 38.31 40.07 34.84"/><polyline class="49b89bbb-4be4-4107-9f71-4d3c443672cc" points="35.57 46.45 35.73 46.29 36.03 45.99 43.75 38.31 43.9 38.17"/><path class="49b89bbb-4be4-4107-9f71-4d3c443672cc" d="M7.69,48.94L23.3,33.31,30.64,26,43,13.57,46.56,10,49.39,7.2A4,4,0,0,1,55,7.2l3.49,3.49a4,4,0,0,1,0,5.66l-2.82,2.83-3.54,3.53L40.07,34.84l-7.81,7.82L16.84,58.09,4.26,61.53Z"/><polyline class="49b89bbb-4be4-4107-9f71-4d3c443672cc" points="16.86 58.11 16.84 58.09 7.69 48.94 7.67 48.92"/><line class="49b89bbb-4be4-4107-9f71-4d3c443672cc" x1="55.72" y1="19.18" x2="46.56" y2="10.03"/><line class="49b89bbb-4be4-4107-9f71-4d3c443672cc" x1="52.18" y1="22.71" x2="43.03" y2="13.57"/><path class="49b89bbb-4be4-4107-9f71-4d3c443672cc" d="M34.18,31.58L12.27,53.51"/><path class="46dcd63b-11c1-4dfe-8eeb-9608dc45273f" d="M47.33,61.19c-0.64-.69-3.74-4-3.48-7.83a10.17,10.17,0,0,1,1.38-4.29,8.32,8.32,0,0,1,1.16-1.44,8.87,8.87,0,0,1,5.79-2.53,10.63,10.63,0,0,1,4.6.73c-0.33-.22-0.63-0.4-0.87-0.53a10.36,10.36,0,0,0-5.59-1.2,8.87,8.87,0,0,0-5.79,2.53,8.32,8.32,0,0,0-1.16,1.44A10.17,10.17,0,0,0,42,52.36c-0.26,3.81,2.84,7.14,3.48,7.83a11.86,11.86,0,0,0,4,2.77A11.25,11.25,0,0,1,47.33,61.19Z"/><path class="49b89bbb-4be4-4107-9f71-4d3c443672cc" d="M41.36,52.18C41.1,56,44.2,59.32,44.84,60c6.19,6.65,18.74,3.51,19.31,3.36l-4.36-5.51A4,4,0,0,1,58.91,56a3.67,3.67,0,0,1,.2-1.9,8.68,8.68,0,0,0-.6-5.84,7.49,7.49,0,0,0-3.23-3.14,10.36,10.36,0,0,0-5.59-1.2,8.87,8.87,0,0,0-5.79,2.53,8.32,8.32,0,0,0-1.16,1.44A10.17,10.17,0,0,0,41.36,52.18Z"/></svg>