<svg id="6a0825d7-bda5-45c3-a17e-7d5587d154e1" data-name="Livello 1" xmlns="http://www.w3.org/2000/svg" viewBox="0 0 68 68"><defs><style>.a03660b7-5c90-4bd4-9a33-dca35fe27193{fill:#7ac2ff;}.\31 288c968-2fc1-4843-adbc-85d0afcffad9{fill:#c7e5ff;}.a8c79e5c-fdca-491a-9c5c-65cda6d77548{fill:#fff7bf;}.df8c674a-55c0-4f16-80e0-1bbfa79e0dd6{fill:#fff;}.\31 9e8e04f-c219-4a23-aad0-0d0946337459,.d45c475f-706a-4277-abfb-db5e2d63ba35{fill:none;stroke:#666aaa;}.d45c475f-706a-4277-abfb-db5e2d63ba35{stroke-miterlimit:10;}.\31 9e8e04f-c219-4a23-aad0-0d0946337459{stroke-linejoin:round;}.bff8ed85-5639-4626-80ce-325174c1b3fb{fill:#fffdf0;}</style></defs><title>Free Plan</title><path class="a03660b7-5c90-4bd4-9a33-dca35fe27193" d="M58.41,32.68l3.87-2.93v30.1a3.52,3.52,0,0,1-.21,1.2L41.46,45.48Z"/><path class="a03660b7-5c90-4bd4-9a33-dca35fe27193" d="M41.46,45.48L62.07,61a3.63,3.63,0,0,1-3.43,2.44H10.38A3.63,3.63,0,0,1,6.95,61L27.56,45.48l3.66-2.76a5.46,5.46,0,0,1,6.57,0Z"/><path class="a03660b7-5c90-4bd4-9a33-dca35fe27193" d="M10.15,32.33L27.56,45.48,6.95,61a3.52,3.52,0,0,1-.21-1.2V29.75Z"/><polygon class="1288c968-2fc1-4843-adbc-85d0afcffad9" points="58.41 32.68 41.46 45.48 43.27 46.85 58.41 35.41 62.28 32.48 62.28 29.75 58.41 32.68"/><path class="1288c968-2fc1-4843-adbc-85d0afcffad9" d="M8.25,62.8L27.56,48.22l3.66-2.76a5.46,5.46,0,0,1,6.57,0l3.66,2.76L60.77,62.8A3.64,3.64,0,0,0,62.07,61L41.46,45.48,37.8,42.72a5.46,5.46,0,0,0-6.57,0l-3.66,2.76L6.95,61A3.64,3.64,0,0,0,8.25,62.8Z"/><polygon class="1288c968-2fc1-4843-adbc-85d0afcffad9" points="25.75 46.85 27.56 45.48 10.15 32.33 6.74 29.75 6.74 32.48 10.15 35.06 25.75 46.85"/><path class="a03660b7-5c90-4bd4-9a33-dca35fe27193" d="M10.15,26.7v5.63L6.74,29.75v-0.8a0.9,0.9,0,0,1,.51-0.81Z"/><path class="a03660b7-5c90-4bd4-9a33-dca35fe27193" d="M62.28,28.95v0.8l-3.87,2.93V29.83a9.4,9.4,0,0,0,2.52-2.12l0.84,0.42A0.9,0.9,0,0,1,62.28,28.95Z"/><path class="a8c79e5c-fdca-491a-9c5c-65cda6d77548" d="M58.41,29.83a9.42,9.42,0,0,1-4.78,1.29,9.58,9.58,0,0,1,0-19.15,9.42,9.42,0,0,1,4.78,1.29,9.57,9.57,0,0,1,2.52,14.46A9.4,9.4,0,0,1,58.41,29.83Z"/><path class="df8c674a-55c0-4f16-80e0-1bbfa79e0dd6" d="M44.62,24.73a9.56,9.56,0,0,0,9,6.38,9.42,9.42,0,0,0,4.78-1.29v2.85l-17,12.8L37.8,42.72a5.46,5.46,0,0,0-6.57,0l-3.66,2.76L10.15,32.33V10.14a3.64,3.64,0,0,1,3.64-3.65h41a3.64,3.64,0,0,1,3.64,3.65v3.11A9.42,9.42,0,0,0,53.63,12,9.58,9.58,0,0,0,44.62,24.73Z"/><polyline class="d45c475f-706a-4277-abfb-db5e2d63ba35" points="6.74 29.75 10.15 32.33 27.56 45.48"/><polyline class="d45c475f-706a-4277-abfb-db5e2d63ba35" points="62.28 29.75 58.41 32.68 41.46 45.48"/><path class="d45c475f-706a-4277-abfb-db5e2d63ba35" d="M10.15,26.7l-2.9,1.43a0.9,0.9,0,0,0-.51.81v30.9A3.52,3.52,0,0,0,6.95,61a3.63,3.63,0,0,0,3.43,2.44H58.64A3.63,3.63,0,0,0,62.07,61a3.52,3.52,0,0,0,.21-1.2V28.95a0.9,0.9,0,0,0-.51-0.81l-0.84-.42"/><path class="d45c475f-706a-4277-abfb-db5e2d63ba35" d="M6.74,61.21L6.95,61,27.56,45.48l3.66-2.76a5.46,5.46,0,0,1,6.57,0l3.66,2.76L62.07,61l0.21,0.16"/><path class="d45c475f-706a-4277-abfb-db5e2d63ba35" d="M10.15,32.48V10.14a3.64,3.64,0,0,1,3.64-3.65h41a3.64,3.64,0,0,1,3.64,3.65v3.11"/><line class="d45c475f-706a-4277-abfb-db5e2d63ba35" x1="19.94" y1="16.52" x2="45.33" y2="16.52"/><line class="d45c475f-706a-4277-abfb-db5e2d63ba35" x1="19.94" y1="24.73" x2="44.62" y2="24.73"/><line class="d45c475f-706a-4277-abfb-db5e2d63ba35" x1="19.94" y1="32.94" x2="47.26" y2="32.94"/><polyline class="19e8e04f-c219-4a23-aad0-0d0946337459" points="54.07 25.19 54.07 18.35 51.21 20.7"/><polyline class="d45c475f-706a-4277-abfb-db5e2d63ba35" points="58.41 29.75 58.41 29.83 58.41 32.68 58.41 32.94"/><path class="bff8ed85-5639-4626-80ce-325174c1b3fb" d="M53.63,14.7A9.42,9.42,0,0,1,58.41,16a9.57,9.57,0,0,1,4.68,6.9,9.48,9.48,0,0,0-4.68-9.64A9.42,9.42,0,0,0,53.63,12a9.54,9.54,0,0,0-9.45,11A9.56,9.56,0,0,1,53.63,14.7Z"/><path class="d45c475f-706a-4277-abfb-db5e2d63ba35" d="M58.41,13.25a9.57,9.57,0,0,1,2.52,14.46,9.55,9.55,0,0,1-7.3,3.4,9.58,9.58,0,0,1,0-19.15A9.42,9.42,0,0,1,58.41,13.25Z"/></svg>