<!-- Generated by IcoMoon.io -->
<svg version="1.1" xmlns="http://www.w3.org/2000/svg" width="1024" height="1024" viewBox="0 0 1024 1024">
<title></title>
<g id="icomoon-ignore">
</g>
<path fill="#000" d="M453.773 2.209c-94.971 10.842-187.934 49.995-263.63 111.034-80.715 64.653-140.348 154.403-170.867 256.201-13.252 43.972-19.275 89.148-19.275 142.557 0 85.133 16.264 154.202 53.609 229.296 77.704 155.206 230.3 261.622 402.573 280.496 25.098 2.811 86.538 2.811 111.636 0 60.637-6.626 117.258-23.492 173.478-51.401 127.498-63.849 221.867-176.891 263.429-315.834 22.287-74.29 25.7-167.655 9.236-248.169-15.661-75.896-52.405-153.399-103.203-216.245-84.129-104.609-209.418-173.277-342.94-187.934-22.689-2.61-91.959-2.409-114.045 0zM567.216 107.62c41.763 5.421 78.507 16.464 119.266 36.141 86.538 41.562 152.195 107.219 193.757 193.757 27.507 57.424 39.555 110.431 39.555 174.482s-12.047 117.057-39.555 174.482c-41.562 86.538-107.018 151.994-193.757 193.757-57.625 27.708-109.829 39.555-174.482 39.555s-116.856-11.846-174.482-39.555c-86.739-41.763-152.195-107.219-193.757-193.757-27.507-57.424-39.555-110.431-39.555-174.482s12.047-117.057 39.555-174.482c41.562-86.538 107.42-152.195 193.958-193.757 73.085-35.338 147.576-46.984 229.496-36.141z"></path>
<path fill="#000" d="M459.796 357.396v102.4h-204.8v104.408h204.8v204.8h104.408v-204.8h204.8v-104.408h-204.8v-204.8h-104.408v102.4z"></path>
</svg>
