<!-- Generated by IcoMoon.io -->
<svg version="1.1" xmlns="http://www.w3.org/2000/svg" width="892" height="1024" viewBox="0 0 892 1024">
<title></title>
<g id="icomoon-ignore">
</g>
<path fill="#627482" d="M98.869 63.559c-7.945 7.945-10.593 112.993-10.593 418.428 0 362.814 1.766 409.6 14.124 422.841 7.945 7.945 21.186 11.476 30.014 8.828s49.434-15.89 89.159-30.014l73.269-24.717 73.269 30.014 73.269 29.131 73.269-29.131 73.269-30.014 73.269 24.717c39.724 14.124 80.331 27.366 89.159 30.014s22.069-0.883 30.014-8.828c12.359-13.241 14.124-59.145 14.124-415.779 0-260.414-3.531-407.834-8.828-419.31-12.359-22.069-25.6-21.186-120.055 9.71l-80.331 27.366-67.972-27.366c-37.076-14.124-72.386-26.483-77.683-26.483s-40.607 12.359-77.683 27.366l-67.972 28.248-76.8-28.248c-83.862-30.014-102.4-32.662-118.29-16.772zM519.945 155.366c58.262 26.483 62.676 26.483 140.359 0l63.559-22.069v348.69c0 191.559-2.648 347.807-6.179 347.807-4.414 0-35.31-10.593-69.738-22.952l-63.559-22.952-64.441 27.366c-36.193 15.007-71.503 27.366-79.448 27.366s-43.255-12.359-78.566-27.366l-63.559-26.483-58.262 19.421c-32.662 10.593-64.441 21.186-69.738 23.834-8.828 2.648-11.476-69.738-11.476-345.159v-348.69l139.476 45.903 69.738-27.366c73.269-30.014 77.683-30.014 151.834 2.648z"></path>
<path fill="#627482" d="M213.628 240.11c-14.124 14.124-13.241 29.131 3.531 45.903 11.476 12.359 44.138 14.124 222.455 14.124 114.759 0 213.628-3.531 218.924-7.062 15.007-9.71 19.421-30.897 10.593-48.552-7.062-13.241-27.366-15.007-225.986-15.007-158.897 0-221.572 2.648-229.517 10.593z"></path>
<path fill="#627482" d="M217.159 358.4c-16.772 16.772-17.655 22.069-2.648 41.49 9.71 13.241 24.717 15.007 116.524 13.241l105.931-2.648 2.648-25.6c1.766-14.124-1.766-28.248-8.828-32.662-6.179-4.414-53.848-7.945-105.931-7.945-74.152 0-97.103 2.648-107.697 14.124z"></path>
<path fill="#627482" d="M567.614 350.455c-6.179 1.766-11.476 14.124-11.476 26.483 0 13.241-11.476 32.662-30.897 50.317-55.614 52.966-30.897 121.821 47.669 134.179 48.552 7.945 37.076 22.069-11.476 15.89-33.545-5.297-39.724-3.531-44.138 11.476-7.945 23.834 1.766 45.021 21.186 51.2 10.593 3.531 17.655 15.007 19.421 33.545 2.648 24.717 6.179 28.248 29.131 28.248s26.483-3.531 29.131-28.248c1.766-17.655 10.593-32.662 24.717-42.372 62.676-40.607 28.248-136.828-48.552-136.828-9.71 0-20.303-4.414-22.952-9.71-4.414-6.179 7.945-7.945 37.076-6.179 41.49 2.648 42.372 2.648 45.021-25.6 1.766-21.186-0.883-29.131-15.007-33.545-13.241-3.531-18.538-13.241-18.538-30.014 0-36.193-20.303-51.2-50.317-38.841z"></path>
<path fill="#627482" d="M217.159 534.952c-16.772 16.772-17.655 22.069-2.648 41.49 9.71 13.241 24.717 15.007 116.524 13.241l105.931-2.648 2.648-25.6c1.766-14.124-1.766-28.248-8.828-32.662-6.179-4.414-53.848-7.945-105.931-7.945-74.152 0-97.103 2.648-107.697 14.124z"></path>
</svg>
