<!-- Generated by IcoMoon.io -->
<svg version="1.1" xmlns="http://www.w3.org/2000/svg" width="1044" height="1024" viewBox="0 0 1044 1024">
<title></title>
<g id="icomoon-ignore">
</g>
<path fill="#000" d="M505.003 6.315c-8.021 7.168-30.549 36.864-44.885 58.88-13.824 21.163-26.283 48.299-29.525 63.659-8.363 41.643 17.067 84.821 60.075 101.717 8.875 3.413 13.141 3.925 31.573 3.925s22.699-0.512 31.573-3.925c34.304-13.483 55.467-40.107 60.757-76.117 2.731-17.749-0.853-33.621-12.8-57.856-14.336-29.355-46.763-76.288-62.293-90.283-6.485-5.803-7.851-6.315-17.237-6.315s-10.752 0.512-17.237 6.315zM535.040 85.675c16.384 24.235 28.16 47.957 28.16 56.491 0 15.531-8.875 30.208-22.869 37.376-9.728 5.291-26.453 5.291-36.181 0-14.848-7.68-24.405-24.747-22.357-39.936 0.512-3.755 3.755-12.8 7.168-19.627 6.315-12.629 31.403-51.712 33.28-51.712 0.512 0 6.144 7.851 12.8 17.408z"></path>
<path fill="#000" d="M469.845 262.144c-3.072 1.536-7.339 5.632-9.387 9.045-3.925 6.144-3.925 6.656-4.437 79.872l-0.512 73.728-215.723 1.024-13.653 4.608c-19.968 6.827-34.133 15.701-49.493 31.232-15.531 15.701-24.576 29.867-31.061 49.493-4.437 13.312-4.608 15.019-5.291 60.587-0.512 46.763-0.512 46.933 3.413 52.907 5.12 7.509 13.653 11.947 23.552 11.947 4.267 0 9.387 0.512 11.435 1.024l3.925 1.024v199.339h-81.408c-90.965 0-89.259-0.171-97.28 11.776-5.12 7.509-5.291 20.821-0.512 28.672 5.973 9.899 9.557 10.752 48.299 10.752 34.816 0 34.987 0 35.84 3.755 0.512 2.219 5.632 27.648 11.435 56.832 5.632 29.184 11.093 55.296 12.117 58.368s4.437 7.851 7.68 10.752l5.973 5.12h794.965l5.973-5.12c3.243-2.901 6.656-7.68 7.68-10.752s6.485-29.184 12.117-58.368c5.803-29.184 10.923-54.613 11.435-56.661 0.853-3.925 1.024-3.925 35.84-3.925 38.741 0 42.325-0.853 48.299-10.752 4.779-7.851 4.608-21.163-0.512-28.672-8.021-11.947-6.315-11.776-97.109-11.776h-81.579v-199.339l3.925-1.024c2.048-0.512 7.168-1.024 11.435-1.024 9.899 0 18.432-4.437 23.552-11.947 3.925-5.973 3.925-6.144 3.413-52.907-0.683-45.568-0.853-47.275-5.291-60.587-6.485-19.627-15.531-33.792-31.061-49.493-15.36-15.531-29.525-24.405-49.493-31.232l-13.653-4.608-215.723-1.024-0.512-73.728c-0.683-99.499 4.949-91.648-66.56-91.648-39.253 0-47.445 0.512-52.053 2.731zM535.893 367.787v57.173h-27.307v-114.347h27.307v57.173zM809.472 483.328c21.845 10.411 37.376 29.525 42.155 52.053 1.024 4.437 1.536 18.091 1.365 30.208l-0.512 22.016-6.827 2.048c-11.947 3.584-24.064 10.581-40.277 23.893-19.285 15.531-27.477 19.627-40.448 20.821-16.384 1.536-26.112-2.389-47.445-19.115-33.109-25.771-46.592-30.72-80.896-29.355-30.891 1.024-42.837 5.973-72.533 30.208-18.773 15.189-24.747 17.749-41.813 17.749-17.749 0-22.699-2.219-46.251-21.163-26.453-21.333-42.667-27.307-72.875-27.307-30.891 0-44.544 5.291-75.264 29.184-22.187 17.408-31.744 21.333-48.299 19.797-12.971-1.195-21.163-5.291-40.448-20.821-16.213-13.312-28.331-20.309-40.277-23.893l-6.827-2.048-0.512-22.016c-0.512-24.747 1.024-34.304 7.851-48.128 8.704-17.92 29.867-34.816 49.493-39.424 3.584-0.853 123.392-1.365 276.821-1.365l270.507 0.341 13.312 6.315zM425.984 641.365c3.755 1.877 12.288 8.021 18.773 13.312 17.067 14.165 30.037 22.187 43.008 26.624 9.728 3.413 14.848 3.925 34.475 3.925s24.747-0.512 34.475-3.925c12.971-4.437 25.941-12.459 43.008-26.624 16.213-13.483 23.381-16.725 37.888-17.749 17.579-1.195 25.771 2.219 46.080 18.432 29.013 23.381 47.275 30.72 76.629 30.72 16.896 0 33.109-3.243 43.52-8.533l6.827-3.413v163.84h-576.853v-163.84l6.827 3.413c10.411 5.291 26.624 8.533 43.52 8.533 29.355 0 47.616-7.339 76.629-30.72 9.387-7.509 20.139-14.677 23.893-16.213 10.069-3.584 32.256-2.56 41.301 2.219zM904.533 890.368c-0.171 0.853-3.755 19.456-8.192 41.472l-8.192 40.107h-731.819l-8.192-40.107c-4.437-22.016-8.021-40.619-8.192-41.472 0-0.683 172.032-1.195 382.293-1.195s382.293 0.512 382.293 1.195z"></path>
</svg>
