<!-- Generated by IcoMoon.io -->
<svg version="1.1" xmlns="http://www.w3.org/2000/svg" width="1106" height="1024" viewBox="0 0 1106 1024">
<title></title>
<g id="icomoon-ignore">
</g>
<path fill="#000" d="M6.697 6.697c-6.049 5.833-6.697 7.993-6.697 19.443 0 19.659 2.16 21.171 70.211 50.552 32.189 13.61 59.625 25.708 61.138 26.788 1.728 1.080 27.436 120.763 68.483 320.162 36.294 175.203 67.403 322.538 69.131 327.507 1.944 4.969 7.345 12.962 12.098 17.715 16.635 16.419-10.586 15.338 363.153 15.338 367.689 0 343.494 0.864 350.623-12.962 4.753-9.289 4.105-24.196-1.296-31.109-10.154-12.962 13.178-12.098-345.006-12.098h-327.939l-7.777-37.806-7.561-37.806h683.099l11.018-5.185c12.53-5.833 25.060-19.443 28.516-30.893 1.296-4.537 19.443-91.382 40.398-192.918 42.775-206.528 42.343-203.936 30.029-223.811-3.889-6.481-10.37-12.962-16.851-17.067l-10.586-6.481-864.567-2.16-9.073-44.287c-9.722-47.959-14.258-59.409-26.356-68.915-4.321-3.457-36.078-18.363-70.859-33.485-55.305-23.764-64.594-27.22-74.964-27.22-10.154 0-12.53 0.864-18.363 6.697zM1049.060 236.989c-0.864 3.457-17.715 85.333-37.806 182.116l-36.294 176.068-340.469 0.648c-322.754 0.432-340.469 0.216-341.549-3.241-0.648-2.16-17.283-82.093-36.942-177.796s-36.294-176.068-37.158-178.876l-1.080-4.753h832.594l-1.296 5.833z"></path>
<path fill="#000" d="M423.21 320.378c-4.753 3.024-8.425 8.209-10.586 13.826-2.808 8.425-2.592 9.938 1.080 19.227 8.209 19.443-8.641 18.147 219.922 18.147 178.66 0 201.559-0.432 207.824-3.457 19.875-9.289 20.307-39.966 0.864-49.904-4.105-2.16-51.416-2.808-208.473-2.808h-203.288l-7.345 4.969z"></path>
<path fill="#000" d="M444.814 460.8c-4.753 3.241-8.425 8.209-10.586 14.042-2.808 7.993-2.808 10.154 0 18.147 2.16 5.833 5.833 10.802 10.586 14.042l7.345 4.969h363.801l7.345-4.969c4.753-3.241 8.425-8.209 10.586-14.042 2.808-7.993 2.808-10.154 0-18.147-2.16-5.833-5.833-10.802-10.586-14.042l-7.345-4.969h-363.801l-7.345 4.969z"></path>
<path fill="#000" d="M433.148 831.082c-59.409 21.387-85.333 86.846-55.737 141.286 17.067 31.325 48.392 49.472 85.981 49.472 46.663 0 83.389-28.084 95.055-72.371 11.882-45.799-9.505-91.598-52.712-112.986-15.122-7.345-17.499-7.993-38.886-8.641-17.715-0.432-25.276 0.432-33.701 3.241zM481.323 887.683c14.474 7.561 24.196 22.468 24.196 37.59 0 9.938-8.209 24.844-17.931 32.621-10.802 8.641-29.165 10.37-41.695 3.889-32.405-16.635-32.405-57.465 0.216-74.532 8.857-4.753 25.492-4.537 35.214 0.432z"></path>
<path fill="#000" d="M774.481 831.082c-16.635 6.049-29.165 14.258-41.478 27.004-12.53 13.61-18.795 24.628-23.332 42.127-11.882 45.367 9.722 91.382 52.712 112.554 14.69 7.129 17.931 7.993 37.806 8.641 23.98 0.864 40.83-3.024 57.897-13.826 45.799-28.949 58.545-92.462 27.868-138.478-10.37-15.338-21.603-24.628-40.83-33.701-12.962-6.049-16.851-6.913-37.158-7.345-17.499-0.648-25.060 0.216-33.485 3.024zM822.657 887.683c14.474 7.561 24.196 22.468 24.196 37.59 0 9.938-8.209 24.844-17.931 32.621-21.387 16.851-56.601 4.969-64.162-22.035-2.592-9.938-2.592-12.53 0-22.468 6.697-23.98 36.078-36.942 57.897-25.708z"></path>
</svg>
