<!-- Generated by IcoMoon.io -->
<svg version="1.1" xmlns="http://www.w3.org/2000/svg" width="1024" height="1024" viewBox="0 0 1024 1024">
<title></title>
<g id="icomoon-ignore">
</g>
<path fill="#000" d="M511.998 0c-282.314 0-511.998 229.683-511.998 511.998s229.683 511.998 511.998 511.998 511.998-229.683 511.998-511.998-229.679-511.998-511.998-511.998zM511.998 956.617c-245.162 0-444.615-199.458-444.615-444.62s199.453-444.615 444.615-444.615 444.615 199.453 444.615 444.615-199.453 444.62-444.615 444.62z"></path>
<path fill="#000" d="M545.689 481.767v-191.29c19.064 7.080 35.698 20.070 47.264 37.638 10.237 15.541 31.131 19.844 46.667 9.612 15.541-10.233 19.844-31.126 9.607-46.667-24.205-36.752-61.501-61.703-103.538-70.497v-53.521c0-18.607-15.084-33.691-33.691-33.691s-33.691 15.084-33.691 33.691v53.42c-74.569 15.546-130.761 81.769-130.761 160.881s56.197 145.344 130.761 160.891v191.29c-19.064-7.080-35.698-20.070-47.264-37.638-10.237-15.541-31.131-19.849-46.667-9.612-15.541 10.233-19.844 31.126-9.607 46.667 24.205 36.752 61.501 61.703 103.538 70.497v53.516c0 18.607 15.084 33.691 33.691 33.691s33.691-15.084 33.691-33.691v-53.415c74.569-15.546 130.761-81.769 130.761-160.881s-56.192-145.344-130.761-160.891zM414.928 381.343c0-41.647 26.443-77.139 63.378-90.841v181.683c-36.935-13.703-63.378-49.194-63.378-90.841zM545.689 733.494v-181.683c36.935 13.703 63.378 49.194 63.378 90.841s-26.438 77.139-63.378 90.841z"></path>
</svg>
