<!-- Generated by IcoMoon.io -->
<svg version="1.1" xmlns="http://www.w3.org/2000/svg" width="822" height="1024" viewBox="0 0 822 1024">
<title></title>
<g id="icomoon-ignore">
</g>
<path fill="#000" d="M132.042 5.389c-5.12 5.12-5.389 8.623-5.389 94.316v88.926h-57.937c-54.434 0-58.206 0.269-63.326 5.389-5.389 5.389-5.389 8.893-5.389 412.295 0 404.211 0 406.905 5.389 412.295s7.815 5.389 368.64 4.851l362.981-0.808 18.055-8.623c25.331-11.857 43.116-29.373 55.512-54.434l9.971-20.211v-854.771l-9.971-20.211c-12.396-25.061-30.181-42.577-55.512-54.434l-18.055-8.623-299.655-0.808c-297.499-0.539-299.924-0.539-305.314 4.851zM733.238 50.122c37.726 17.516 53.895 60.632 36.109 96.741-7.545 15.629-16.977 25.061-34.762 34.493l-11.048 5.928-553.768 1.347v-145.785l275.672 0.808c274.324 0.808 275.402 0.808 287.798 6.467zM778.24 566.434l-0.808 356.514-7.545 15.36c-8.354 17.246-18.863 27.217-36.918 35.571-12.126 5.659-13.474 5.659-350.855 6.467l-338.998 0.808v-746.712h355.705v158.72c0 87.309 0.808 160.876 1.617 163.301 2.695 6.467 16.707 12.935 24.792 10.779 3.773-0.808 23.983-17.785 45.002-37.457l37.726-36.109 38.535 37.457c33.684 32.876 39.613 37.457 47.427 37.457 5.12 0 12.126-2.425 16.168-5.659l7.006-5.389v-322.291l56.051-1.617c59.015-1.347 76.8-4.851 94.316-17.785 4.042-2.964 8.084-5.659 9.432-5.659 1.078 0 1.617 160.337 1.347 356.244zM571.284 361.634v127.192l-26.678-26.139c-23.983-23.714-27.486-26.139-36.648-26.139s-12.665 2.425-36.648 26.139l-26.678 26.139v-254.383h126.653v127.192z"></path>
</svg>
