<!-- Generated by IcoMoon.io -->
<svg version="1.1" xmlns="http://www.w3.org/2000/svg" width="1024" height="1024" viewBox="0 0 1024 1024">
<title></title>
<g id="icomoon-ignore">
</g>
<path fill="#000" d="M756.837 643.139c-0.348 0-0.688 0.024-1.034 0.024-44.152-42.356-98.838-40.988-99.35-40.988-60.528 0-111.724-44.12-121.74-102.548 17.502-12.494 33.646-28.54 47.922-47.862 30.774-41.66 49.782-94.706 54.896-151.822 11.284-27.336 17.036-56.474 17.036-86.644-0.002-117.614-88.772-213.298-197.882-213.298-28.458 0-56.072 6.538-82.156 19.438-9.908 0.776-19.616 2.528-28.918 5.218-90.962 26.282-142.274 136.648-114.386 246.022 2.592 10.156 5.86 20.148 9.676 29.772 7.934 86.888 47.47 159.482 102.582 198.874-22.768 105.512-123.342 102.892-124.102 102.97-79.108 2.668-142.65 67.81-142.65 147.556v135.294c0 33.2 27.010 60.206 60.206 60.206h373.991c12.328 0 22.322-9.992 22.322-22.322s-9.992-22.322-22.322-22.322h-373.991c-8.582 0-15.564-6.982-15.564-15.562v-135.294c0-56.816 46.226-103.042 103.042-103.042 0.762 0 33.82 0 64.608-14.146 40.122 38.774 93.966 60.724 150.18 60.724 56.184 0 109.998-21.922 150.112-60.658 19.194 8.41 40.198 13.322 62.19 13.966 0.722 0.072 21.706-0.628 40.928 7.674-73.4 26.464-126.024 96.792-126.024 179.2 0 105.002 85.426 190.43 190.43 190.43s190.432-85.428 190.432-190.43-85.43-190.43-190.434-190.43zM358.007 67.54c7.49-2.166 15.41-3.45 23.534-3.814 3.274-0.148 6.476-1.014 9.378-2.538 20.892-10.98 43.020-16.546 65.766-16.546 84.494 0 153.238 75.658 153.238 168.654 0 2.91-0.076 5.806-0.208 8.688-12.872-18.532-34.176-28.998-63.442-28.998h-142.084c-8.13 0-15.85-2.554-22.326-7.388-5.528-4.124-9.8-9.668-12.352-16.026-4.346-10.828-15.084-17.602-26.726-16.866-11.704 0.744-21.556 8.87-24.514 20.228-7.94 30.514-23.544 58.698-44.936 81.788-19.374-84.592 17.91-167.892 84.672-187.182zM337.653 432.909c-27.538-33.642-45.62-79.026-51.484-128.738 27.716-23.668 49.668-53.546 63.952-86.866 1.618 1.418 3.296 2.778 5.030 4.072 14.246 10.636 31.2 16.258 49.030 16.258h142.084c25.062 0 45.67 19.316 47.79 43.84-3.478 83.708-40.746 154.866-92.882 186.908-1.096 0.534-27.156 18.168-61.98 18.168-37.166-0.006-73.228-19.056-101.54-53.642zM439.201 648.747c-40.72 0-79.844-14.552-110.576-40.488 26.778-22.11 46.694-52.33 55.77-87.016 17.438 6.484 35.826 9.948 54.802 9.948 18.766 0 37.090-3.326 54.6-9.764 9.122 34.658 29.072 64.846 55.87 86.928-30.712 25.878-69.796 40.392-110.466 40.392zM756.837 974.398c-77.652 0-140.826-63.174-140.826-140.826s63.174-140.828 140.826-140.828c77.654 0 140.828 63.178 140.828 140.828 0.002 77.652-63.176 140.826-140.828 140.826z"></path>
<path fill="#000" d="M828.828 808.77h-47.188v-47.188c0-13.696-11.104-24.802-24.802-24.802s-24.802 11.106-24.802 24.802v47.188h-47.188c-13.698 0-24.802 11.106-24.802 24.802s11.104 24.802 24.802 24.802h47.188v47.188c0 13.696 11.104 24.802 24.802 24.802s24.802-11.106 24.802-24.802v-47.188h47.188c13.698 0 24.802-11.106 24.802-24.802s-11.104-24.802-24.802-24.802z"></path>
</svg>
