<!-- Generated by IcoMoon.io -->
<svg version="1.1" xmlns="http://www.w3.org/2000/svg" width="870" height="1024" viewBox="0 0 870 1024">
<title></title>
<g id="icomoon-ignore">
</g>
<path fill="#000" d="M398.080 2.048c-87.808 13.824-149.504 68.224-172.032 151.552-11.392 42.368-15.104 110.464-9.088 165.12 11.648 104.576 53.888 178.432 121.728 212.224 55.552 27.776 133.504 28.416 190.72 1.664 81.152-38.144 127.104-134.272 127.36-267.008 0.256-68.608-7.296-111.744-26.368-151.296-19.712-41.216-49.28-71.296-89.984-91.264-19.328-9.6-37.248-15.36-62.336-20.096-14.976-2.816-64.128-3.456-80-0.896zM465.28 60.8c35.2 5.504 65.408 20.48 87.040 43.008 27.008 28.288 40.064 62.976 44.8 118.656 4.224 51.328 1.152 96.768-9.6 139.392-17.792 70.016-54.4 112.896-108.16 126.464-43.008 10.88-90.88 5.12-123.52-14.976-13.056-7.936-28.544-22.528-38.784-36.224-8.832-11.904-22.144-38.528-27.776-55.68-5.12-15.616-10.752-41.088-13.696-61.44-3.2-22.656-3.2-93.184 0-116.48 4.992-35.328 14.72-62.592 30.080-84.48 33.024-46.72 92.8-68.48 159.616-58.24z"></path>
<path fill="#000" d="M281.6 550.784c-2.432 0.896-9.344 4.864-15.36 8.832-48.256 31.232-108.288 58.368-162.048 73.216-40.96 11.392-71.936 39.168-88.064 79.104-10.368 25.728-14.592 51.968-15.744 95.872-1.28 53.248 3.584 91.904 13.568 107.52 4.096 6.528 14.208 12.928 43.392 27.392 88.704 44.16 199.68 72.192 317.056 80 25.088 1.664 98.816 1.664 123.776 0 120.832-8.064 237.44-38.4 326.144-84.736 35.2-18.304 37.12-20.608 43.136-50.816 3.072-15.36 3.84-103.424 1.024-123.392-5.632-41.344-18.304-71.424-39.552-93.952-18.304-19.328-35.072-28.928-66.944-38.272-53.504-15.616-116.352-44.672-159.488-73.728-12.8-8.704-20.992-10.368-31.744-6.784-16.64 5.76-24.32 25.856-15.616 41.728 2.56 4.864 5.76 7.936 14.336 13.696 44.672 30.464 112.128 62.208 167.936 78.976 29.184 8.704 35.328 11.776 46.72 23.040 18.56 18.432 25.984 42.24 28.672 90.752 1.536 29.312-0.64 72.448-4.096 79.232-2.944 5.888-59.52 30.72-102.784 45.056-186.368 62.208-405.12 56.192-583.68-16-22.912-9.344-57.984-26.496-59.392-29.184-1.28-2.56-3.584-23.168-4.608-43.136-1.408-26.24 2.432-69.632 7.808-88.96 7.552-27.008 25.984-47.744 48.64-55.040 4.224-1.28 17.024-5.376 28.672-8.96 47.744-14.976 101.376-39.936 147.84-68.864 24.832-15.36 29.568-21.632 28.544-37.888-0.64-9.984-4.992-17.152-13.44-22.144-6.656-3.84-18.048-5.12-24.704-2.56z"></path>
</svg>
