<!-- Generated by IcoMoon.io -->
<svg version="1.1" xmlns="http://www.w3.org/2000/svg" width="1024" height="1024" viewBox="0 0 1024 1024">
<title></title>
<g id="icomoon-ignore">
</g>
<path fill="#000" d="M975.337 176.658c-3.995-3.991-9.109-5.996-15.325-5.996h-206.010l-46.667-111.327c-6.664-16.448-18.667-30.449-35.991-42.006-17.34-11.554-34.905-17.329-52.677-17.329h-213.34c-17.772 0-35.332 5.775-52.665 17.329-17.336 11.556-29.336 25.555-36.005 42.006l-46.667 111.327h-206.001c-6.228 0-11.332 2.006-15.334 5.996-3.991 4-5.996 9.114-5.996 15.334v42.671c0 6.221 1.996 11.334 5.996 15.327 4.002 3.998 9.116 5.996 15.334 5.996h63.995v634.675c0 36.901 10.445 68.338 31.332 94.333 20.892 26.010 46.003 39.003 75.339 39.003h554.679c29.343 0 54.452-13.441 75.341-40.322 20.887-26.9 31.325-58.783 31.325-95.671v-632.017h64.007c6.216 0 11.332-1.999 15.325-5.996 3.988-3.991 6.001-9.107 6.001-15.327v-42.671c0.005-6.221-2.011-11.334-5.999-15.334zM395.331 92.651c3.108-3.998 6.888-6.449 11.332-7.332h211.334c4.444 0.89 8.231 3.339 11.334 7.332l32.012 78.001h-298.68l32.668-78.001zM810.676 888.010c0 9.775-1.55 18.779-4.668 26.996-3.115 8.215-6.344 14.216-9.67 17.994-3.341 3.787-5.658 5.667-7.001 5.667h-554.679c-1.333 0-3.654-1.88-6.996-5.667-3.337-3.778-6.562-9.779-9.674-17.994-3.108-8.217-4.663-17.231-4.663-26.996v-632.022h597.348v632.022z"></path>
<path fill="#000" d="M319.999 810.674h42.664c6.228 0 11.344-1.996 15.334-5.994 3.991-4.012 5.996-9.109 5.996-15.341v-384.013c0-6.218-2.006-11.332-5.996-15.334-4.002-3.991-9.104-5.989-15.334-5.989h-42.664c-6.228 0-11.334 1.996-15.334 5.989-3.995 4.002-5.996 9.116-5.996 15.334v384.013c0 6.232 1.994 11.332 5.996 15.341 4 3.995 9.107 5.994 15.334 5.994z"></path>
<path fill="#000" d="M490.668 810.674h42.664c6.225 0 11.339-1.996 15.327-5.994 4.012-4.012 5.999-9.109 5.999-15.341v-384.013c0-6.218-1.989-11.332-5.999-15.334-3.988-3.991-9.102-5.989-15.327-5.989h-42.664c-6.221 0-11.334 1.996-15.334 5.989-4.002 4.002-5.996 9.116-5.996 15.334v384.013c0 6.232 1.994 11.332 5.996 15.341 3.998 3.995 9.114 5.994 15.334 5.994z"></path>
<path fill="#000" d="M661.341 810.674h42.657c6.232 0 11.346-1.996 15.341-5.994 3.995-4.012 5.982-9.109 5.982-15.341v-384.013c0-6.218-1.989-11.332-5.982-15.334-3.995-3.991-9.109-5.989-15.341-5.989h-42.657c-6.235 0-11.332 1.996-15.344 5.989-3.995 4.002-5.992 9.116-5.992 15.334v384.013c0 6.232 1.996 11.332 5.992 15.341 4.012 3.995 9.109 5.994 15.344 5.994z"></path>
</svg>
