<!-- Generated by IcoMoon.io -->
<svg version="1.1" xmlns="http://www.w3.org/2000/svg" width="1051" height="1024" viewBox="0 0 1051 1024">
<title></title>
<g id="icomoon-ignore">
</g>
<path fill="#000" d="M626.713 14.775c-19.905 19.085-24.010 24.83-24.010 34.681 0 10.671 5.13 17.648 14.775 20.316 11.697 3.078 17.238 0.205 36.733-19.085 18.469-18.264 21.958-25.446 18.674-37.348-2.668-9.44-8.824-13.339-20.726-13.339-9.44 0-10.466 0.616-25.446 14.775z"></path>
<path fill="#000" d="M811.812 5.335c-4.309 4.309-5.335 7.388-5.335 15.186s1.026 10.876 5.335 15.186c4.309 4.309 7.388 5.335 15.186 5.335s10.876-1.026 15.186-5.335c4.309-4.309 5.335-7.388 5.335-15.186s-1.026-10.876-5.335-15.186c-4.309-4.309-7.388-5.335-15.186-5.335s-10.876 1.026-15.186 5.335z"></path>
<path fill="#000" d="M959.769 30.987c-4.309 2.463-9.645 12.518-9.645 18.264 0 7.593 6.156 16.622 13.339 19.7 21.547 9.029 40.221-17.853 23.804-34.27-4.925-4.72-7.798-5.951-14.98-5.951-4.925 0-10.466 1.026-12.518 2.257z"></path>
<path fill="#000" d="M387.437 196.386c-121.895 122.1-139.543 140.774-145.084 151.856-12.518 25.036-15.391 48.635-9.44 74.081 5.541 23.599 11.287 31.808 51.508 72.439 23.804 24.215 37.964 40.221 38.99 43.915 2.052 8.208-3.489 17.238-20.521 33.449-8.003 7.593-71.003 64.231-139.748 125.794-68.951 61.563-129.488 116.765-134.823 122.716-19.29 21.547-28.319 46.788-28.319 80.237 0 37.964 9.44 61.153 35.707 87.42 17.853 17.853 33.244 26.883 55.612 32.628 15.596 3.899 48.019 3.899 63.205 0 14.98-3.899 34.886-13.749 46.378-23.189 4.72-3.899 60.332-65.873 123.331-137.696s121.895-137.696 130.924-146.52c24.83-24.010 22.778-24.625 68.951 20.931 45.967 45.352 54.586 50.892 85.368 55.817 20.521 3.078 39.811-0.205 60.537-10.466 16.006-7.798 19.7-11.287 155.549-147.136l138.927-139.133v-18.469l-417.603-417.603h-20.521l-138.927 138.927zM525.339 204.184c-52.534 52.739-53.355 53.765-53.355 61.974 0 15.391 14.365 26.062 28.319 20.931 3.078-1.026 28.935-25.241 57.459-53.765l51.713-51.713 28.114 28.319 28.319 28.114-106.709 106.709v9.44c0 8.003 1.026 10.261 6.977 15.596 6.156 5.541 8.003 6.156 16.212 5.13 8.824-1.026 10.876-2.873 61.768-53.56l52.534-52.534 56.433 56.433-53.355 53.355c-52.534 52.739-53.355 53.765-53.355 61.974 0 6.156 1.436 10.261 5.335 14.775 4.72 5.541 6.567 6.362 15.801 6.362h10.466l52.944-52.739 52.944-52.944 27.703 27.703 27.703 27.498-52.123 52.534c-28.524 28.729-52.739 54.586-53.56 57.048-4.925 16.417 10.261 32.423 27.293 28.114 3.489-0.821 24.215-19.905 57.869-53.56l52.329-52.123 41.042 41.042-201.106 201.106-375.535-375.535 201.106-201.106 42.068 42.068-53.355 53.355zM492.71 530.059l187.357 186.126-10.055 10.466c-14.365 14.57-28.935 21.137-45.967 21.137-22.368 0-28.729-4.104-71.824-46.788-33.655-33.039-39.606-38.169-50.071-41.863-13.954-5.335-29.345-5.746-44.12-1.436-8.003 2.463-14.16 6.567-24.215 15.801l-13.339 12.723-84.547-84.547 10.261-11.492c15.596-17.032 20.111-27.498 20.111-47.404 0-25.036-3.489-30.371-46.378-73.876-20.931-21.342-38.374-40.837-41.042-46.172-6.567-12.518-6.772-35.707-0.616-49.251 4.515-9.44 22.778-31.397 25.446-30.371 0.821 0.41 85.778 84.341 188.999 186.947zM347.626 674.937l42.889 42.889-106.915 122.1c-71.003 81.058-110.198 124.152-116.765 128.462-32.013 21.342-76.338 15.801-102.605-12.723-30.987-33.655-29.14-81.469 4.104-113.687 16.622-16.212 233.735-209.93 235.171-209.93 0.616 0 20.521 19.29 44.12 42.889z"></path>
<path fill="#000" d="M265.747 726.445c-2.257 0.821-30.166 28.524-61.974 61.358l-58.075 59.716v9.44c0 12.928 8.003 21.342 20.726 21.342 8.414 0 9.645-0.821 38.374-29.345 16.212-16.006 43.505-43.915 60.537-61.768 30.576-32.013 31.192-32.834 31.192-41.658 0-7.798-1.026-10.055-6.772-15.186-6.772-6.156-15.391-7.593-24.010-3.899z"></path>
<path fill="#000" d="M93.781 899.642c-11.287 10.466-8.208 29.345 5.746 35.296 21.547 9.029 40.221-17.853 23.804-34.27-8.003-8.003-21.547-8.414-29.55-1.026z"></path>
<path fill="#000" d="M758.253 59.716c-6.362 3.489-62.589 59.716-65.873 65.873-10.466 19.905 11.492 41.247 29.961 29.14 8.414-5.541 61.563-58.895 64.846-64.846 8.003-14.98-1.231-32.423-17.032-32.423-4.309 0-9.645 1.231-11.902 2.257z"></path>
<path fill="#000" d="M903.952 88.446c-2.257 1.231-31.192 29.14-64.231 62.179-63.615 63.41-66.283 66.899-61.974 80.032 2.873 9.029 9.85 13.544 20.931 13.544 8.824 0 8.824 0 72.85-64.231 58.485-58.485 64.231-64.641 64.231-71.003 0-17.032-17.443-28.319-31.808-20.521z"></path>
<path fill="#000" d="M1019.485 146.931c-7.388 3.899-9.85 8.824-9.85 19.29 0 6.772 1.231 9.85 5.951 14.57 13.339 13.133 35.091 4.104 35.091-14.57 0-10.671-2.668-15.596-10.261-19.495-7.388-3.899-13.749-3.899-20.931 0.205z"></path>
<path fill="#000" d="M965.31 203.569c-3.899 1.026-21.547 17.032-53.56 49.456-45.352 45.352-47.814 48.224-47.814 55.407 0 10.466 4.72 18.879 12.107 21.958 13.544 5.541 16.417 3.283 68.54-48.84 47.814-48.019 48.635-49.045 48.635-57.254 0-15.391-12.518-24.83-27.909-20.726z"></path>
<path fill="#000" d="M993.218 348.242c-1.642 0.616-11.492 9.44-21.958 19.7-20.316 19.905-22.984 25.446-19.085 37.143 2.873 9.029 9.85 13.544 20.931 13.544 8.208 0 9.645-1.026 28.729-20.111s20.111-20.521 20.111-28.935c0-4.72-1.026-10.466-2.052-12.723-4.104-7.388-17.648-11.902-26.677-8.619z"></path>
</svg>
