<!-- Generated by IcoMoon.io -->
<svg version="1.1" xmlns="http://www.w3.org/2000/svg" width="1095" height="1024" viewBox="0 0 1095 1024">
<title></title>
<g id="icomoon-ignore">
</g>
<path fill="#000" d="M505.41 89.22c-2.028 2.028-3.549 120.65-3.549 263.604v259.549l-54.749-55.255c-48.665-48.665-56.776-55.255-71.984-55.255-20.277 0-40.554 19.77-40.554 39.034 0 17.236 188.071 204.293 205.307 204.293 8.618 0 39.034-26.867 108.99-96.317 90.741-89.727 97.331-97.838 94.796-111.525-4.562-22.812-18.25-35.485-38.527-35.485-15.715 0-23.826 6.083-72.491 55.255l-54.749 55.255-1.014-261.576-1.521-262.083-32.95-1.521c-18.25-1.014-34.978 0-37.006 2.028z"></path>
<path fill="#000" d="M86.178 666.614c0 100.372 2.028 179.96 4.562 179.96s13.687 12.673 25.347 27.881c11.659 15.208 23.826 27.881 27.374 27.881s14.194 6.59 23.826 15.208l17.743 14.701 708.182 0.507 19.263-15.208c10.646-8.618 21.798-15.208 24.84-15.208s14.701-12.673 26.36-27.881c11.659-15.208 22.812-27.881 25.347-27.881s4.562-78.574 4.562-176.919c0-156.642-1.014-177.426-8.111-179.96-16.222-6.083-35.485-2.535-46.131 9.125-11.659 11.659-11.659 14.194-12.166 150.558 0 127.747-1.014 139.913-10.139 154.107-5.069 8.111-11.659 20.277-14.701 26.867-2.535 6.083-8.111 11.152-12.166 11.152-3.549 0-9.632 3.549-13.18 7.604s-12.673 7.604-20.784 7.604c-7.604 0-15.715 2.028-17.236 5.069-2.028 3.042-107.469 5.069-299.089 5.069s-297.061-2.028-299.089-5.069c-1.521-3.042-9.632-5.069-17.236-5.069-8.111 0-17.236-3.549-20.784-7.604s-9.632-7.604-13.18-7.604c-4.055 0-9.632-5.069-12.166-11.659-3.042-6.083-9.632-18.25-14.701-26.36-9.125-14.194-10.139-26.36-10.139-156.135-0.507-133.323-1.014-140.927-10.646-150.558-7.097-7.097-16.729-10.139-32.95-10.139h-22.812v179.96z"></path>
</svg>
