<!-- Generated by IcoMoon.io -->
<svg version="1.1" xmlns="http://www.w3.org/2000/svg" width="1024" height="1024" viewBox="0 0 1024 1024">
<title></title>
<g id="icomoon-ignore">
</g>
<path fill="#000" d="M447.348 5.214c-171.014 23.358-316.585 128.469-393.124 283.633-23.775 48.385-42.128 110.325-47.759 162.046-3.337 29.823-2.92 95.309 0.834 124.090 19.604 149.95 100.732 279.254 227.324 362.675 46.299 30.449 90.721 50.262 145.988 65.277 43.796 11.679 67.78 15.016 120.127 16.267 67.154 1.668 111.576-4.797 171.848-24.609 176.228-58.187 306.574-207.72 341.82-392.499 8.551-44.422 9.593-118.667 2.294-166.218-25.235-164.758-127.635-305.949-276.543-380.82-44.422-22.315-93.224-38.374-142.651-47.133-30.449-5.422-119.084-7.091-150.159-2.711zM560.593 37.54c95.518 10.219 181.651 46.716 257.773 109.282 54.641 45.048 102.609 109.491 131.18 176.437 76.748 180.191 37.331 385.408-100.732 523.47-113.036 113.245-273.623 161.838-431.29 130.138-164.966-32.952-303.446-155.998-356.002-316.168-55.684-170.18-14.39-351.831 109.282-479.883 76.122-78.833 174.143-127.635 284.885-142.234 25.861-3.337 77.999-3.754 104.903-1.043z"></path>
<path fill="#000" d="M495.107 229.409c-40.251 10.428-61.106 31.492-71.951 72.368-3.754 13.556-4.588 24.401-5.422 64.652l-1.251 48.593h-24.818c-23.775 0-31.909 1.668-35.454 7.091-0.834 1.251-1.668 27.321-1.668 57.769 0 51.096 0.209 55.684 3.754 58.812 3.128 2.92 8.759 3.545 31.283 3.545h27.529v121.17c0 120.961 0.417 127.218 7.091 131.598 3.754 2.503 111.368 2.086 116.165-0.417 3.754-2.086 3.963-5.84 3.963-127.218v-125.132h43.796c41.085 0 44.005-0.209 47.967-4.171s4.171-6.882 4.171-58.395v-54.433l-5.214-5.005c-5.005-5.214-5.214-5.214-48.176-5.214h-42.962l0.834-29.198c0.417-19.604 1.46-29.823 3.337-31.7s13.556-2.503 42.962-2.711c36.705 0 40.877-0.417 44.839-3.963 4.171-3.963 4.38-5.631 4.38-59.021 0-52.138-0.209-55.058-4.171-59.021s-6.882-4.171-65.069-3.963c-52.764 0-63.192 0.626-75.914 3.963z"></path>
</svg>
