<!-- Generated by IcoMoon.io -->
<svg version="1.1" xmlns="http://www.w3.org/2000/svg" width="907" height="1024" viewBox="0 0 907 1024">
<title></title>
<g id="icomoon-ignore">
</g>
<path fill="#627482" d="M349.867 97.067c-13.867 7.467-19.2 24.533-19.2 56.533 0 38.4-4.267 48-26.667 57.6-22.4 10.667-30.933 8.533-57.6-13.867-45.867-39.467-76.8-34.133-128 21.333-23.467 25.6-43.733 54.4-43.733 62.933 0 9.6 13.867 32 30.933 51.2 39.467 45.867 27.733 80-29.867 88.533-65.067 10.667-70.4 17.067-73.6 92.8-3.2 84.267 10.667 104.533 73.6 104.533 35.2 0 42.667 4.267 48 26.667 5.333 20.267-1.067 38.4-21.333 67.2-14.933 22.4-27.733 43.733-27.733 48 0 18.133 100.267 114.133 118.4 114.133 9.6 0 33.067-11.733 51.2-26.667 23.467-20.267 38.4-25.6 58.667-20.267 24.533 5.333 27.733 11.733 27.733 51.2 0 24.533 5.333 50.133 12.8 57.6 17.067 17.067 149.333 17.067 166.4 0 7.467-7.467 12.8-33.067 12.8-57.6 0-39.467 3.2-45.867 27.733-51.2 20.267-5.333 35.2 0 58.667 20.267 44.8 36.267 61.867 34.133 114.133-19.2s56.533-82.133 18.133-125.867c-22.4-26.667-24.533-35.2-13.867-57.6 9.6-21.333 20.267-26.667 50.133-26.667 57.6 0 68.267-11.733 73.6-83.2 5.333-74.667-8.533-108.8-45.867-108.8-73.6 0-106.667-44.8-62.933-86.4 39.467-37.333 34.133-82.133-14.933-130.133-46.933-45.867-78.933-50.133-123.733-13.867-25.6 21.333-35.2 23.467-56.533 13.867-19.2-8.533-24.533-19.2-24.533-51.2 0-56.533-21.333-73.6-93.867-73.6-33.067 0-69.333 5.333-78.933 11.733zM458.667 199.467v51.2l65.067 24.533 65.067 25.6 68.267-66.133 46.933 46.933-66.133 68.267 25.6 64 24.533 65.067 48 3.2c45.867 3.2 48 5.333 51.2 37.333l3.2 35.2h-53.333c-40.533 0-54.4 4.267-54.4 16 0 8.533-10.667 37.333-23.467 64l-23.467 48 28.8 29.867c34.133 35.2 35.2 41.6 10.667 68.267-17.067 19.2-19.2 18.133-51.2-12.8l-34.133-33.067-46.933 21.333c-25.6 11.733-55.467 23.467-65.067 26.667-14.933 4.267-19.2 17.067-19.2 54.4 0 45.867-1.067 48-32 48-28.8 0-32-3.2-32-36.267 0-48-9.6-70.4-27.733-70.4-8.533 0-35.2-9.6-59.733-22.4l-42.667-22.4-68.267 66.133-46.933-46.933 33.067-34.133 33.067-35.2-22.4-45.867c-11.733-26.667-22.4-55.467-22.4-65.067 0-14.933-10.667-18.133-54.4-18.133h-53.333l3.2-35.2c3.2-32 5.333-34.133 51.2-37.333 48-3.2 49.067-4.267 69.333-58.667 11.733-30.933 22.4-58.667 24.533-62.933 2.133-3.2-11.733-23.467-28.8-43.733-30.933-35.2-32-37.333-13.867-54.4 26.667-23.467 33.067-21.333 68.267 10.667l28.8 28.8 61.867-26.667c61.867-26.667 61.867-26.667 65.067-76.8 3.2-46.933 5.333-49.067 35.2-49.067s30.933 2.133 30.933 50.133z"></path>
<path fill="#627482" d="M332.8 362.667c-100.267 61.867-113.067 210.133-24.533 291.2 101.333 90.667 253.867 43.733 289.067-89.6 21.333-78.933-18.133-171.733-88.533-204.8-51.2-24.533-132.267-23.467-176 3.2zM493.867 426.667c32 25.6 53.333 83.2 44.8 120.533-4.267 14.933-21.333 40.533-38.4 56.533-87.467 84.267-231.467-24.533-176-132.267 9.6-18.133 27.733-40.533 40.533-49.067 33.067-23.467 96-21.333 129.067 4.267z"></path>
</svg>
