<!-- Generated by IcoMoon.io -->
<svg version="1.1" xmlns="http://www.w3.org/2000/svg" width="1024" height="1024" viewBox="0 0 1024 1024">
<title></title>
<g id="icomoon-ignore">
</g>
<path fill="#000" d="M889.418 479.232v455.242h-753.664v-455.242h-70.218v490.35c0 19.392 15.716 35.108 35.108 35.108h823.882c19.392 0 35.108-15.716 35.108-35.108v-490.35h-70.216z"></path>
<path fill="#000" d="M988.892 215.906h-953.784c-19.392 0-35.108 15.716-35.108 35.108v229.376c0 19.392 15.716 35.108 35.108 35.108h953.782c19.392 0 35.108-15.706 35.108-35.108v-229.376c0.002-19.392-15.714-35.108-35.106-35.108zM953.782 445.294h-883.564v-159.158h883.566v159.158z"></path>
<path fill="#000" d="M546.546 242.132c-2.388-9.104-60.304-222.822-229.4-222.822-73.564 0-133.412 59.848-133.412 133.412s59.322 133.412 132.242 133.412h196.608c10.872 0 21.148-5.044 27.794-13.658s8.918-19.824 6.168-30.344zM315.978 215.918c-34.78 0-62.026-27.76-62.026-63.196 0-34.254 28.942-63.196 63.196-63.196 77.040 0 123.172 75.894 145.35 126.39h-146.52z"></path>
<path fill="#000" d="M708.022 19.31c-169.094 0-227.012 213.718-229.4 222.822-2.762 10.52-0.48 21.732 6.168 30.346s16.91 13.658 27.794 13.658h196.608c72.92 0 132.242-59.848 132.242-133.412 0.002-73.566-59.846-133.414-133.412-133.414zM709.194 215.918h-146.66c22.014-50.498 68.006-126.39 145.502-126.39 34.254 0 63.196 28.942 63.196 63.196-0.002 35.434-27.246 63.194-62.038 63.194z"></path>
<path fill="#000" d="M477.476 251.026h70.218v718.556h-70.218v-718.556z"></path>
</svg>
