<!-- Generated by IcoMoon.io -->
<svg version="1.1" xmlns="http://www.w3.org/2000/svg" width="818" height="1024" viewBox="0 0 818 1024">
<title></title>
<g id="icomoon-ignore">
</g>
<path fill="#000" d="M379.264 1.408c-85.248 12.288-154.88 81.024-168.704 166.912-1.024 6.272-1.92 14.208-1.92 17.408 0 3.328-0.384 7.808-0.768 9.984l-0.768 3.968h-64.256c-59.648 0-64.512 0.256-69.248 2.432-6.016 2.816-11.392 8.192-13.44 13.568-1.92 4.992-60.032 659.072-60.16 676.224 0 16.256 2.56 29.312 8.832 44.544 6.528 15.872 15.104 28.416 28.8 42.24 18.048 17.92 35.584 28.8 60.032 36.992 26.496 8.832 6.4 8.32 311.296 8.32s284.8 0.512 311.296-8.32c24.448-8.192 41.984-19.072 60.032-36.992 24.96-25.088 37.632-54.016 37.632-86.144 0-20.48-58.368-674.176-60.672-678.4-2.56-4.992-8.32-10.112-13.824-12.416-4.096-1.792-13.824-2.048-68.736-2.048h-64l-0.64-7.424c-4.608-48.256-15.36-78.208-39.68-111.616-30.976-42.24-80.896-71.936-133.12-79.232-11.52-1.664-46.592-1.536-57.984 0zM424.96 52.48c71.936 8.832 126.080 64.896 132.48 137.216l0.896 9.984h-298.752l0.896-9.984c2.688-30.976 14.464-59.904 33.664-83.328 32.128-39.040 82.56-59.776 130.816-53.888zM207.616 299.904l0.384 47.872 3.84 6.144c11.136 17.92 37.888 15.872 46.080-3.456 1.664-3.968 1.92-12.288 1.92-51.584v-46.72h298.24v46.72c0 39.296 0.256 47.616 1.92 51.584 8.192 19.328 34.944 21.376 46.080 3.456l3.84-6.144 0.384-47.872 0.384-47.744h99.072l28.416 321.024c27.904 313.856 28.416 321.152 26.624 329.856-3.2 15.232-9.728 26.624-22.272 39.168-9.216 9.088-13.312 12.032-23.936 17.408-7.424 3.712-18.048 7.808-24.96 9.472l-12.032 3.072h-545.28l-11.52-2.944c-6.272-1.536-17.536-5.76-24.832-9.344-11.392-5.504-14.848-8.064-24.448-17.536-12.672-12.672-19.2-24.064-22.4-39.296-1.792-8.832-1.28-15.744 26.624-329.856l28.416-321.024h99.072l0.384 47.744z"></path>
<path fill="#000" d="M349.568 498.176c-4.48 30.464-8.704 58.752-9.344 62.72l-1.28 7.424h-103.424v43.52h97.536l-0.768 3.456c-0.384 2.048-1.536 9.856-2.688 17.664-1.152 7.68-2.304 15.36-2.688 16.896l-0.512 2.944h-90.88v43.52h42.24c23.296 0 42.24 0.384 42.24 0.768 0 1.536-19.2 132.992-19.84 135.808l-0.64 2.944h59.776l4.224-29.056c2.304-16.128 6.912-47.36 10.112-69.504l5.888-40.32 20.864-0.384c19.968-0.256 20.736-0.256 20.736 2.176 0 1.408-4.352 32-9.6 68.096-5.248 35.968-9.6 66.176-9.6 67.2 0 1.536 5.12 1.792 29.312 1.792h29.312l0.768-3.456c0.384-2.048 4.736-31.488 9.728-65.664 4.864-34.176 9.216-64 9.6-66.304l0.768-4.096h102.272v-43.52h-96.256l0.768-3.584c0.384-1.92 1.536-9.856 2.688-17.536 1.024-7.808 2.304-15.36 2.56-17.024l0.64-2.816h89.6v-43.52h-41.6c-22.912 0-41.6-0.384-41.6-0.896s4.096-28.16 8.96-61.44c4.992-33.408 8.96-61.184 8.96-61.824 0-1.152-58.752-2.048-59.008-1.024 0 0.256-4.224 28.288-9.216 62.464l-9.216 62.080-21.248 0.384-21.12 0.256 9.344-62.336c5.12-34.432 9.216-62.592 9.344-62.848 0-0.128-13.44-0.256-29.824-0.256h-29.696l-8.192 55.296zM433.92 614.016c0 1.28-1.152 9.728-2.56 18.944-1.408 9.088-2.56 17.408-2.56 18.176 0 1.28-5.12 1.664-21.12 1.664s-21.12-0.384-21.12-1.664c0-0.768 1.28-9.984 2.816-20.48l2.816-18.816h20.864c19.072 0 20.864 0.256 20.864 2.176z"></path>
</svg>
