<?xml version="1.0" standalone="no"?>
<!DOCTYPE svg PUBLIC "-//W3C//DTD SVG 20010904//EN"
 "http://www.w3.org/TR/2001/REC-SVG-20010904/DTD/svg10.dtd">
<svg version="1.0" xmlns="http://www.w3.org/2000/svg"
 width="426.000000pt" height="494.000000pt" viewBox="0 0 426.000000 494.000000"
 preserveAspectRatio="xMidYMid meet">
<metadata>
Created by potrace 1.15, written by Peter Selinger 2001-2017
</metadata>
<g transform="translate(0.000000,494.000000) scale(0.100000,-0.100000)"
fill="#000000" stroke="none">
<path d="M825 4864 c-253 -39 -504 -148 -724 -315 l-86 -65 -6 -880 c-3 -483
-7 -1458 -8 -2166 l-1 -1288 145 0 145 0 2 1077 3 1077 65 44 c214 145 467
220 695 209 245 -13 443 -95 670 -279 247 -199 456 -305 740 -374 456 -110
1080 -46 1618 168 l127 51 0 1173 c0 646 -2 1174 -5 1174 -2 0 -83 -34 -180
-75 -276 -118 -504 -189 -750 -232 -75 -13 -154 -17 -315 -17 -185 0 -230 3
-320 23 -271 58 -470 157 -716 357 -59 48 -137 106 -173 129 -285 184 -612
258 -926 209z m429 -303 c155 -41 284 -107 429 -219 45 -35 120 -92 167 -128
47 -35 146 -95 222 -133 379 -193 827 -246 1346 -160 130 22 367 77 441 103
24 9 47 16 52 16 5 0 9 -376 9 -860 l0 -859 -67 -21 c-616 -193 -1150 -207
-1551 -40 -128 54 -234 119 -368 227 -179 143 -297 214 -463 278 -344 132
-736 104 -1101 -80 -38 -19 -72 -35 -75 -35 -7 0 -6 1392 2 1554 l6 137 56 38
c127 86 296 159 446 191 121 27 333 22 449 -9z"/>
<path d="M2116 3824 c-3 -9 -6 -45 -6 -80 0 -54 -3 -64 -17 -64 -33 -1 -101
-38 -147 -80 -60 -56 -86 -111 -86 -184 0 -157 64 -221 324 -327 104 -42 146
-79 146 -128 0 -126 -178 -149 -333 -43 -25 18 -52 32 -59 32 -15 0 -98 -104
-98 -123 0 -33 114 -107 205 -133 l64 -19 3 -70 3 -70 75 0 75 0 3 71 3 71 54
17 c143 45 232 208 191 350 -29 99 -90 144 -329 241 -129 53 -169 120 -109
185 59 64 176 63 282 -4 30 -19 59 -32 66 -29 7 2 28 33 46 69 26 51 31 67 22
81 -14 23 -126 80 -181 94 l-43 10 0 59 c0 88 -1 90 -80 90 -53 0 -69 -4 -74
-16z"/>
</g>
</svg>
