<!-- Generated by IcoMoon.io -->
<svg version="1.1" xmlns="http://www.w3.org/2000/svg" width="1101" height="1024" viewBox="0 0 1101 1024">
<title></title>
<g id="icomoon-ignore">
</g>
<path fill="#000" d="M267.248 1.080c-61.368 9.178-115.897 32.934-161.249 70.546-49.67 41.212-86.203 102.94-100.78 170.427-4.859 22.676-6.659 79.364-3.599 107.439 8.098 71.446 26.635 125.795 60.828 177.805 32.934 50.21 50.75 71.626 97.901 117.877 35.273 34.373 47.331 45.531 127.235 115.897 115.178 101.14 174.566 162.868 224.956 233.594 19.076 26.455 21.236 28.254 36.893 28.974s21.596-2.34 30.594-15.297c32.214-46.611 59.028-80.264 97.901-122.916 45.711-49.85 87.103-89.083 188.603-178.165 45.171-39.592 109.599-103.66 129.935-129.035 21.056-26.455 52.91-74.865 65.147-99.161 12.418-24.655 19.976-45.531 27.175-74.146 10.438-41.212 11.518-51.47 11.698-98.981 0-39.412-0.54-46.071-4.139-62.988-26.995-123.456-114.098-210.019-239.713-238.093-14.757-3.239-22.856-3.779-60.288-3.779-41.212-0.18-44.271 0.18-64.787 5.039-49.31 11.518-95.201 34.193-132.634 65.327-14.577 12.238-34.553 32.934-42.652 44.091-2.52 3.779-5.039 6.839-5.579 6.839s-3.059-3.059-5.579-6.839c-8.098-11.158-28.075-31.854-42.652-44.091-37.433-31.314-83.864-53.989-132.634-65.327-19.436-4.319-25.555-5.039-59.388-5.399-20.696-0.18-40.132 0-43.192 0.36zM344.813 69.286c47.511 8.278 93.402 32.394 128.675 67.487 19.616 19.436 29.514 32.934 43.372 58.489 11.518 21.056 17.817 26.095 33.293 26.095 17.996 0 23.755-4.319 36.353-27.715 24.295-44.991 57.949-78.645 100.24-100.42 35.813-18.536 60.288-24.835 101.86-26.095 34.193-1.080 55.969 1.62 82.604 10.258 66.587 21.776 125.975 78.465 149.371 142.352 10.258 27.895 12.598 41.392 13.677 75.405 2.16 74.146-16.557 135.873-61.548 201.741-35.273 51.65-73.966 91.062-203.36 206.78-67.127 60.108-88.183 80.264-123.096 116.977-34.373 36.353-63.888 70.186-82.964 95.741-6.479 8.638-12.238 15.477-12.778 15.297-0.72-0.18-7.019-7.738-14.217-16.557-44.451-54.709-117.517-128.135-199.761-200.661-101.68-89.622-128.675-114.998-157.829-147.031-31.674-35.093-34.013-38.153-56.329-71.626-21.776-33.114-26.455-42.652-38.512-80.084-14.037-43.012-17.637-64.247-17.817-107.079-0.18-37.433 2.879-57.229 12.418-84.044 28.254-78.645 101.32-140.373 183.384-155.13 19.796-3.599 62.988-3.599 82.964-0.18z"></path>
</svg>
