<!-- Generated by IcoMoon.io -->
<svg version="1.1" xmlns="http://www.w3.org/2000/svg" width="1090" height="1024" viewBox="0 0 1090 1024">
<title></title>
<g id="icomoon-ignore">
</g>
<path fill="#000" d="M531.59 1.959c-5.521 3.027-526.069 523.754-529.096 529.096-3.206 6.233-3.206 21.549 0 27.782 8.014 15.494 28.672 22.261 43.275 14.069 2.137-1.247 115.4-113.085 251.637-248.609l247.719-246.472 46.303 46.125c25.466 25.288 136.593 137.305 247.007 248.609 110.236 111.482 202.663 203.375 205.334 204.444 7.658 3.206 24.042 2.493 31.521-1.425 10.329-5.343 14.603-13 14.603-26.535 0-6.233-0.89-13.178-1.959-15.315s-58.769-60.906-128.223-130.538l-126.264-126.62v-88.509c0-98.66 0.356-96.345-12.11-105.784-4.986-3.74-8.548-4.808-17.987-5.343-9.973-0.534-12.644 0-17.809 3.562-8.014 5.521-12.466 11.754-14.425 20.302-0.89 3.74-1.781 30.097-1.781 58.591v51.645l-103.647-103.469c-57.166-56.988-105.606-104.537-107.743-105.606-4.986-2.493-21.727-2.493-26.357 0z"></path>
<path fill="#000" d="M898.805 502.918c-8.904 3.384-13.535 7.48-17.453 16.206-3.206 6.767-3.384 17.453-3.384 224.746v217.8h-220.828v-90.468c0-83.879-0.356-90.824-3.384-97.414-3.918-8.548-7.836-12.288-16.74-16.028-5.521-2.315-19.055-2.671-92.071-2.671-92.071 0-92.961 0-102.934 9.439-9.439 8.726-9.261 6.767-9.261 105.427v91.715h-220.828v-209.786c0-200.882-0.178-209.965-3.384-216.91-6.233-13.713-20.836-20.658-36.686-17.809-8.548 1.603-19.946 12.11-22.261 20.302-1.069 4.274-1.781 85.838-1.781 234.362 0 227.417 0 227.951 3.74 235.609 1.959 4.096 6.233 9.439 9.261 11.576l5.699 4.096 308.447 0.89 6.055-4.096c3.206-2.137 7.836-6.767 9.973-9.973l4.096-6.055v-184.676h97.948v88.865c0 61.262 0.534 90.468 1.959 94.742 2.493 7.302 10.863 16.562 17.453 19.411 3.206 1.247 50.755 1.781 157.785 1.425l153.155-0.534 5.521-4.096c2.849-2.315 6.945-6.589 8.904-9.795 3.384-5.521 3.384-11.576 3.384-246.116v-240.417l-4.096-6.589c-7.836-12.644-24.398-18.343-38.289-13.178z"></path>
</svg>
