<!-- Generated by IcoMoon.io -->
<svg version="1.1" xmlns="http://www.w3.org/2000/svg" width="1024" height="1024" viewBox="0 0 1024 1024">
<title></title>
<g id="icomoon-ignore">
</g>
<path fill="#000" d="M456.305 352.733c0 38.854-31.497 70.351-70.351 70.351s-70.351-31.497-70.351-70.351c0-38.854 31.497-70.351 70.351-70.351s70.351 31.497 70.351 70.351z"></path>
<path fill="#000" d="M963.42 611.664c-33.221-31.267-75.237-51.786-121.16-57.649v-357.618c0-38.107-15.634-72.305-40.061-97.71-25.405-25.405-59.603-40.061-97.71-40.061h-566.718c-38.107 0-72.305 15.634-97.71 40.061-25.405 25.405-40.061 59.603-40.061 97.71v583.328c0 38.107 15.634 72.305 40.061 97.71 25.405 25.405 59.603 40.061 97.71 40.061h548.153c36.153 29.313 81.099 47.878 130.931 47.878 57.649 0 109.435-23.45 146.565-60.58s60.58-88.916 60.58-146.565c0-57.649-23.45-109.435-60.58-146.565zM51.786 196.397c0-23.45 9.771-44.947 25.405-59.603 15.634-15.634 37.13-25.405 60.58-25.405h566.718c23.45 0 44.947 9.771 60.58 25.405s25.405 37.13 25.405 60.58v304.855l-144.611-144.611c-9.771-9.771-26.382-10.748-37.13 0l-217.893 218.87-147.542-148.519c-9.771-9.771-26.382-10.748-37.13 0l-154.382 156.336v-387.908zM136.794 867.664v-1.954c-23.45 0-44.947-9.771-60.58-25.405-14.656-15.634-24.427-37.13-24.427-60.58v-121.16l172.947-173.924 147.542 147.542c9.771 9.771 26.382 9.771 37.13 0l217.893-218.87 142.656 143.634c-2.931 0.977-5.863 1.954-8.794 2.931-3.908 0.977-7.817 1.954-12.702 3.908-3.908 0.977-7.817 2.931-11.725 3.908-2.931 0.977-4.885 1.954-7.817 3.908-3.908 1.954-6.84 2.931-9.771 4.885-4.885 2.931-9.771 5.863-14.656 8.794-2.931 1.954-4.885 2.931-7.817 4.885-1.954 0.977-2.931 1.954-4.885 2.931-8.794 5.863-16.611 12.702-23.45 20.519-37.13 37.13-60.58 88.916-60.58 146.565 0 14.656 1.954 28.336 4.885 42.992 0.977 3.908 1.954 6.84 2.931 10.748 2.931 9.771 5.863 19.542 9.771 29.313v0.977c3.908 7.817 7.817 16.611 12.702 23.45h-501.252zM925.313 867.664c-28.336 28.336-66.443 44.947-109.435 44.947-41.038 0-79.145-16.611-106.504-42.992-3.908-3.908-7.817-8.794-11.725-12.702-2.931-2.931-5.863-6.84-8.794-9.771-3.908-4.885-6.84-10.748-9.771-16.611-1.954-3.908-3.908-6.84-5.863-10.748-1.954-4.885-3.908-10.748-4.885-16.611-0.977-3.908-2.931-8.794-3.908-12.702-1.954-9.771-2.931-20.519-2.931-31.267 0-42.992 17.588-81.099 44.947-109.435s66.443-44.947 109.435-44.947 81.099 17.588 109.435 44.947c28.336 28.336 44.947 66.443 44.947 109.435 0 42.015-17.588 80.122-44.947 108.458z"></path>
<path fill="#000" d="M834.443 653.679c-1.954-1.954-4.885-3.908-8.794-5.863-2.931-0.977-5.863-1.954-8.794-1.954-0.977 0-0.977 0-0.977 0-0.977 0-0.977 0-0.977 0-2.931 0-5.863 0.977-8.794 1.954s-5.863 2.931-8.794 5.863l-60.58 60.58c-9.771 9.771-9.771 26.382 0 37.13 9.771 9.771 26.382 9.771 37.13 0l15.634-15.634v107.481c0 14.656 11.725 26.382 26.382 26.382s26.382-11.725 26.382-26.382v-107.481l15.634 15.634c9.771 9.771 26.382 9.771 37.13 0 9.771-9.771 9.771-26.382 0-37.13l-60.58-60.58z"></path>
</svg>
