<!-- Generated by IcoMoon.io -->
<svg version="1.1" xmlns="http://www.w3.org/2000/svg" width="1054" height="1024" viewBox="0 0 1054 1024">
<title></title>
<g id="icomoon-ignore">
</g>
<path fill="#000" d="M154.349 98.903c-13.986 14.486-36.964 31.469-41.959 30.97-2.498-0.5-6.494 4.496-7.992 10.989s-5.495 10.989-8.492 9.99c-3.497-0.5-5.994 2.997-5.994 7.493 0 4.995-3.497 13.487-7.493 18.482-6.494 8.492-7.493 38.462-7.493 181.323v171.333h19.98c13.487 0 23.477-3.497 29.971-9.99 9.491-9.491 9.99-16.484 9.99-152.351 0-91.411 1.998-142.361 4.995-142.361s4.995-4.496 4.995-9.99c0-5.495 3.497-11.489 7.493-12.987 3.996-1.998 7.493-6.494 7.493-10.49s6.993-9.491 14.985-11.988c8.492-2.997 14.985-7.493 14.985-9.99s7.493-4.496 16.484-4.496c8.991 0 18.981-2.498 21.479-4.995 6.993-6.993 566.447-6.993 573.44 0 2.498 2.498 11.988 4.995 20.48 4.995 9.491 0 19.481 3.996 24.976 9.99 4.995 5.495 10.989 8.492 12.987 6.993 2.498-1.499 5.994 1.499 7.992 6.494 1.499 4.995 5.994 10.989 9.99 12.987 3.497 1.998 6.494 7.493 6.494 11.489 0 4.496 3.497 10.989 7.493 14.985 6.494 6.494 7.493 29.471 7.493 144.859 0 153.35 0.5 156.847 33.967 156.847 31.469 0 30.97 1.998 30.97-171.832 0-101.9-1.998-157.846-4.995-157.846-2.498 0-4.995-6.494-4.995-14.985 0-8.991-2.498-14.486-5.994-13.487-2.997 0.5-6.993-3.996-8.492-10.49s-4.995-11.489-7.992-10.989c-2.498 0.5-5.994-3.996-7.493-9.99s-4.496-10.49-7.493-10.989c-10.49-0.5-17.483-5.495-17.483-11.988 0-3.996-3.497-6.993-7.493-6.993s-7.493-2.498-7.493-5.495c0-2.498-2.498-3.497-4.995-1.998-2.997 1.499-6.494-0.5-7.992-4.496-2.997-6.993-40.46-7.992-356.152-7.493-322.185 0.5-353.155 0.999-360.648 8.492z"></path>
<path fill="#000" d="M494.517 282.224c0 3.996-3.497 7.493-7.493 7.493s-7.493 3.497-7.493 7.493c0 3.996-3.497 7.493-7.493 7.493s-7.493 2.498-7.493 5.495c0 6.993-27.473 34.466-34.466 34.466-2.997 0-5.495 3.497-5.495 7.493s-3.497 7.493-7.493 7.493c-3.996 0-7.493 1.998-7.493 4.995 0 6.494-30.97 37.963-35.965 36.464-1.998-0.999-3.996 1.998-3.996 5.994s-3.497 7.493-7.493 7.493c-3.996 0-7.493 3.497-7.493 7.493s-3.497 7.493-7.493 7.493c-3.996 0-7.493 2.498-7.493 5.495s-2.997 8.492-5.994 11.988c-16.484 17.982-18.981 22.978-18.981 34.466 0 6.494 3.497 12.987 7.493 14.985 3.996 1.499 7.493 5.994 7.493 10.49 0 5.495 5.495 7.493 19.481 7.493 17.483 0 22.978-3.497 52.449-32.968 17.982-17.982 32.968-30.97 33.467-28.972 0 2.498 1.998-0.5 4.995-6.993 2.498-6.494 6.494-9.99 9.491-8.492 2.498 1.499 4.995 0.5 4.995-2.498s2.498-7.992 4.995-11.489c2.997-3.497 8.492-10.49 12.488-15.984 6.494-8.492 6.993 23.477 7.493 253.253v263.742h69.932v-262.743c0-233.272 0.999-262.244 7.493-256.749 3.996 3.497 7.493 7.992 7.493 10.49 0 3.996 66.935 71.93 89.413 90.412 5.994 4.995 18.482 8.991 27.473 8.991 14.486 0 18.482-2.498 24.976-15.984 8.991-17.483 10.49-33.967 2.997-33.967-2.498 0-4.995-4.496-4.995-9.99s-3.497-9.99-7.493-9.99c-3.996 0-7.493-3.497-7.493-7.493s-3.497-7.493-7.493-7.493c-3.996 0-7.493-3.497-7.493-7.493s-2.498-7.493-5.495-7.493c-6.993 0-19.481-12.488-19.481-19.481 0-2.997-3.497-5.495-7.493-5.495s-7.493-3.497-7.493-7.493c0-3.996-3.497-7.493-7.493-7.493s-7.493-3.497-7.493-7.493c0-3.996-3.497-7.493-7.493-7.493s-7.493-3.497-7.493-7.493c0-3.996-2.498-7.493-5.495-7.493-6.993 0-19.481-12.488-19.481-19.481 0-2.997-3.497-5.495-7.493-5.495s-7.493-3.497-7.493-7.493c0-3.996-3.497-7.493-7.493-7.493s-7.493-3.497-7.493-7.493c0-3.996-3.497-7.493-7.493-7.493s-7.493-3.497-7.493-7.493c0-5.495-5.495-7.493-19.98-7.493s-19.98 1.998-19.98 7.493z"></path>
</svg>
