<!-- Generated by IcoMoon.io -->
<svg version="1.1" xmlns="http://www.w3.org/2000/svg" width="972" height="1024" viewBox="0 0 972 1024">
<title></title>
<g id="icomoon-ignore">
</g>
<path fill="#627482" d="M125.156 109.64c-20.687 26.893-21.721 39.305-21.721 394.085v366.158l25.859 24.824 24.824 25.859h225.487c283.41 0 272.032 5.172 272.032-125.156v-92.057h-72.404v134.465h-393.051v-672.323h392.016l3.103 64.129c3.103 65.164 3.103 65.164 37.236 68.267l33.099 3.103v-92.057c0-132.396 13.446-126.19-272.032-126.19h-233.762l-20.687 26.893z"></path>
<path fill="#627482" d="M682.667 322.715c0 26.893 11.378 45.511 53.786 87.919l53.786 54.82h-479.935v72.404h479.935l-53.786 54.82c-42.408 42.408-53.786 61.026-53.786 87.919 0 21.721 5.172 33.099 15.515 33.099 14.481 0 208.937-174.804 225.487-203.766 10.343-17.584-194.457-219.281-222.384-220.315-14.481 0-18.618 8.275-18.618 33.099z"></path>
</svg>
