<!-- Generated by IcoMoon.io -->
<svg version="1.1" xmlns="http://www.w3.org/2000/svg" width="1024" height="1024" viewBox="0 0 1024 1024">
<title></title>
<g id="icomoon-ignore">
</g>
<path fill="#000" d="M982.936 241.412c0-3.89-0.864-7.78-2.593-11.455-3.458-7.348-10.158-12.319-17.506-13.832l-440.247-213.531c-7.132-3.458-15.561-3.458-22.693 0l-444.569 215.477c-8.645 4.106-14.264 12.751-14.696 22.477v0.216c0 0.216 0 0.432 0 0.864v540.745c0 9.942 5.619 19.019 14.696 23.341l444.569 215.477c0.216 0 0.216 0 0.432 0.216 0.648 0.216 1.297 0.432 1.945 0.864 0.216 0 0.432 0.216 0.864 0.216 0.648 0.216 1.297 0.432 1.945 0.648 0.216 0 0.432 0.216 0.648 0.216 0.648 0.216 1.513 0.216 2.161 0.432 0.216 0 0.432 0 0.648 0 0.864 0 1.945 0.216 2.81 0.216s1.945 0 2.81-0.216c0.216 0 0.432 0 0.648 0 0.648 0 1.513-0.216 2.161-0.432 0.216 0 0.432-0.216 0.648-0.216 0.648-0.216 1.297-0.432 1.945-0.648 0.216 0 0.432-0.216 0.864-0.216 0.648-0.216 1.297-0.432 1.945-0.864 0.216 0 0.216 0 0.432-0.216l445.866-216.125c8.861-4.322 14.696-13.4 14.696-23.341v-539.664c-0.432-0.216-0.432-0.432-0.432-0.648zM511.136 54.68l385.567 186.948-141.994 68.944-385.567-186.948 141.994-68.944zM511.136 428.576l-385.567-186.948 184.138-89.26 385.567 186.948-184.138 89.26zM92.501 283.34l392.699 190.406v482.607l-392.699-190.406v-482.607zM537.070 956.353v-482.607l184.355-89.476v126.217c0 14.264 11.671 25.935 25.935 25.935s25.935-11.671 25.935-25.935v-151.504l157.771-76.508v482.607l-393.996 191.271z"></path>
</svg>
