<!-- Generated by IcoMoon.io -->
<svg version="1.1" xmlns="http://www.w3.org/2000/svg" width="1024" height="1024" viewBox="0 0 1024 1024">
<title></title>
<g id="icomoon-ignore">
</g>
<path fill="#000" d="M616.576 295.45c-5.718-4.75-12.076-7.132-19.088-7.132-9.042 0-15.546 3.842-19.524 11.52l-195.282 399.872c-1.45 3.66-2.17 6.77-2.17 9.324 0 6.214 2.486 11.792 7.472 16.73 4.98 4.936 11.158 7.404 18.54 7.404 10.85 0 17.904-4.028 21.162-12.068l195.3-398.228c1.44-2.922 2.168-6.214 2.168-9.872 0-6.938-2.862-12.792-8.578-17.55z"></path>
<path fill="#000" d="M435.306 327.264c-13.748-11.33-32.542-17.004-56.386-17.004-23.848 0-42.57 5.674-56.176 17.004-13.606 11.34-20.406 29.26-20.406 53.756v79.536c0 24.504 6.798 42.424 20.406 53.756 13.602 11.34 32.328 17.004 56.176 17.004 23.844 0 42.64-5.666 56.386-17.004 13.748-11.33 20.62-29.25 20.62-53.756v-79.536c0-24.496-6.874-42.416-20.62-53.756zM410.398 460.556c0 19.746-10.518 29.62-31.54 29.62-20.664 0-30.988-9.874-30.988-29.62v-79.536c0-19.748 10.324-29.62 30.988-29.62 21.022 0 31.54 9.872 31.54 29.62v79.536z"></path>
<path fill="#000" d="M680.496 508.826c-13.748-11.332-32.542-17.006-56.386-17.006s-42.57 5.674-56.176 17.006c-13.606 11.34-20.406 29.26-20.406 53.756v79.536c0 47.174 25.508 70.76 76.516 70.76 23.516 0 42.238-5.666 56.176-17.004 13.928-11.332 20.894-29.252 20.894-53.756v-79.538c0.002-24.492-6.87-42.414-20.618-53.754zM655.588 642.116c0 19.748-10.514 29.62-31.54 29.62-20.664 0-30.988-9.874-30.988-29.62v-79.536c0-19.748 10.324-29.62 30.988-29.62 21.026 0 31.54 9.874 31.54 29.62v79.536z"></path>
<path fill="#000" d="M874.038 149.962c-96.704-96.704-225.278-149.962-362.038-149.962s-265.336 53.258-362.040 149.962c-96.704 96.704-149.96 225.28-149.96 362.038s53.256 265.334 149.96 362.038c96.704 96.704 225.278 149.962 362.040 149.962s265.336-53.256 362.038-149.96 149.962-225.28 149.962-362.040-53.258-265.334-149.962-362.038zM831.508 831.51c-85.344 85.344-198.816 132.346-319.51 132.346s-234.166-47.002-319.508-132.346c-85.346-85.344-132.344-198.814-132.344-319.51s47-234.166 132.346-319.51c85.342-85.342 198.814-132.344 319.508-132.344s234.166 47.002 319.51 132.346c85.344 85.344 132.346 198.814 132.346 319.51-0.002 120.694-47.002 234.164-132.348 319.508z"></path>
</svg>
