<!-- Generated by IcoMoon.io -->
<svg version="1.1" xmlns="http://www.w3.org/2000/svg" width="1002" height="1024" viewBox="0 0 1002 1024">
<title></title>
<g id="icomoon-ignore">
</g>
<path fill="#000" d="M433 1.2c-3.2 0.4-17.2 1.8-31 3-72.8 6.4-157.6 26.6-218 52.2-95.4 40.4-155.8 94.4-178 159.6-6.8 20-8 59.6-2.2 82 26.8 106.4 174 192.6 372.2 217.8 296.4 38 583-62.4 622.2-217.8 5.8-22.4 4.6-62-2.2-82-15.6-45.8-47.4-83.4-99.6-118-71.6-47.6-168.4-79-286.4-93.2-25.4-3-160.4-5.8-177-3.6zM589.6 49c100.2 10.4 193.2 37 258.8 74.2 84.2 47.6 122.4 109.2 104.2 167.8-21.6 68.6-113.6 129.6-245.8 162.6-71 17.8-119.2 23.2-205.8 23.2-50.8 0-73-0.8-96-3.4-145.8-17.4-261.4-63-321-126.8-27.2-29-39-55.6-38.8-86.6 1-108 182.8-202.4 413.8-214.8 26.2-1.4 101.2 0.8 130.6 3.8z"></path>
<path fill="#000" d="M5.8 397.8c-5.4 5.6-5.8 6.8-5.8 21.8 0 42.2 20.4 83 61.2 122.2 87.2 84 251.6 134.2 439.8 134.2s352.8-50.2 440-134.2c40.8-39.4 61-79.8 61-122.2 0-15-0.4-16.2-5.8-21.8-5-4.8-7.6-5.8-15.6-5.8-16 0.2-21.2 6.6-23.6 28.8-5.6 55-50.2 103.2-132 143.2-61.8 30.2-135.4 50.4-223 61.4-41.6 5.2-160.4 5.2-202 0-87.6-11-161.2-31.2-223-61.4-81.8-40-126.4-88.2-132-143.2-2.4-22.2-7.6-28.6-23.6-28.8-8 0-10.6 1-15.6 5.8z"></path>
<path fill="#000" d="M9.6 569.2c-8 4.2-9.6 8.6-9.6 25.4 0 108.8 138.4 208 338 242.2 61.6 10.6 81.6 12.2 163 12.2s101.4-1.6 163-12.2c180-30.8 308.6-112.4 334-211.6 4.2-17 5.4-43 2-49.4-4.8-8.8-21.2-12.4-31.8-6.8-7 3.4-9 9.2-12 31-4 30.2-23.6 63-53 88.4-68.8 59.4-190 101.6-328.2 113.8-33.4 3-114.6 3-148 0-138.2-12.2-259.4-54.4-328.2-113.8-29.4-25.4-49-58.2-53-88.4-1.2-9.4-3.2-19.6-4.2-22.6-4-10.4-20.4-14.6-32-8.2z"></path>
<path fill="#000" d="M10 743c-9 4.8-10.8 10.8-9.4 32.4 1.6 27.6 10.2 51.8 28 78 49.6 73.6 164.2 132.4 307 157.4 59.8 10.6 81.6 12.2 165.4 12.2s105.6-1.6 165.4-12.2c195-34.2 328.8-128 335-235.4 1.4-21.8-0.4-27.8-9.8-32.6-9.6-5-19.2-3.6-26.4 3.6-5.8 5.8-6.8 8.2-8 21.2-3.6 39.4-26.6 75.2-69 107.2-78 58.6-197.8 95-341.6 103.4-140.6 8.2-296-22.4-393.4-77.6-66.8-37.8-104-83.2-108.4-133-1.2-13-2.2-15.4-8-21.2-5-5-8-6.4-14-6.4-4.4 0.2-10 1.4-12.8 3z"></path>
</svg>
