<!-- Generated by IcoMoon.io -->
<svg version="1.1" xmlns="http://www.w3.org/2000/svg" width="970" height="1024" viewBox="0 0 970 1024">
<title></title>
<g id="icomoon-ignore">
</g>
<path fill="#000" d="M740.6 294.8c-17.8 5.8-30.4 18-36.2 35-1.8 5-2.4 90.4-2.4 330.4v323.8h-110v-178.6c0-198.6 0.6-189-13.4-205.4-4.2-4.8-12-10.6-17.4-13.2-10-4.6-11.2-4.8-73.2-4.8-56.6 0-63.8 0.4-71 3.8-12 5.4-20.6 13.4-26.6 25l-5.4 10.2-0.6 181.4-0.6 181.6h-109.8v-97.6c0-90.6-0.4-98-3.8-105.6-5-10.8-16.6-22.2-28-27.6-8.8-4-12.2-4.2-71.2-4.2s-62.4 0.2-71.2 4.2c-11 5.2-21.6 15.4-27 26-3.6 7.4-3.8 13.6-4.4 106.2l-0.6 98.6h-27.6c-27.2 0-27.8 0-33 5.2-7.4 7.6-7.4 22 0 29.6l5.4 5.2h948.6l4.4-4c3.6-3.4 4.4-6.4 4.4-16s-0.8-12.6-4.4-16c-4-3.6-7-4-30-4h-25.6l-0.4-324.6-0.6-324.4-5.6-11.4c-6-12.2-12.8-19-26.2-26.2-7.8-4.2-10.6-4.4-68.2-4.8-45.6-0.4-62 0.2-68.4 2.2zM862.2 337.8l4.8 3.8 0.6 321.2 0.4 321.2h-124v-320.6c0-176.2 0.8-321.4 1.6-322.6 4-6 10.4-6.6 60.6-6.8 47.6 0 51.6 0.2 56 3.8zM546.2 627.8c3.6 4.4 3.8 10.4 3.8 180.4v175.8h-124v-175.6c0-190.2-0.4-182.8 10.6-185 2.4-0.6 27.2-0.8 55-0.6l50.8 0.2 3.8 4.8zM224.6 792.2c2.4 1.4 5 3.4 5.8 4.6s1.6 43.8 1.6 94.6v92.6h-122v-185.8l5.2-4c5-4 7.8-4.2 55.2-4.2 33.8 0 51.2 0.8 54.2 2.2z"></path>
</svg>
