<!-- Generated by IcoMoon.io -->
<svg version="1.1" xmlns="http://www.w3.org/2000/svg" width="1024" height="1024" viewBox="0 0 1024 1024">
<title></title>
<g id="icomoon-ignore">
</g>
<path fill="#000" d="M797 2.2c-95 12.6-183 50-256 109-25.8 20.6-43.4 38.8-82 84.2l-34 40-27 1.2c-87.4 4-170.4 34-244 88.2-50.6 37.2-120 120.6-120 144 0 8.8 5.4 19.8 11.4 22.8 2 1.2 34.6 9.8 72.6 19.4s69.2 17.8 69.4 18c0.4 0.2-5.4 16.4-12.6 36.2-7.4 19.6-14.6 40.8-16 46.8-5.6 23-2.4 46.8 9.4 70.6 5.4 10.6 17.6 23.8 80.6 87 40.8 41 79 77.8 84.8 81.8 18.8 12.4 30.4 15.6 56.4 15.4 21.8 0 24-0.4 45-8.2 12.2-4.6 30.6-11.4 41.2-15.4l19.2-7 17.8 70.4c16.4 65.4 18.2 70.8 24 77 5.6 5.4 7.8 6.4 16.2 6.4s12.6-1.6 25.8-9.6c51.4-30.8 101.8-80.2 137.2-134.4 43.4-66 71.6-156.8 71.6-229.8v-16l48.6-42c49.8-43 67.2-61.2 92.8-96.6 50-69 82.8-153.8 92.6-239.2 3.4-28.6 1.6-113.4-2.8-137.4-11.2-61.6-13-64.8-38.2-71.2-39.8-10.2-57.6-12.2-115-12.8-30.2-0.4-61.2 0.2-69 1.2zM931.2 55.8c13.4 2.2 25.6 4.6 27.4 5.4 4 1.4 6 8.4 10.8 37.8 4.2 26.8 5 101.4 1 125-4.8 29.2-9 50-10.2 50-2.8 0-210.6-209.6-208.8-210.6 2.8-1.8 44-9.4 61.6-11.4 26.2-2.8 90.4-0.8 118.2 3.8zM817.6 206.6l124.6 124.6-4.2 11c-17 42.8-61 109.2-93.4 140-12.8 12.6-328.8 283.8-330.4 283.8-0.6 0-58.8-57.6-129.2-128l-127.8-127.8 4-4.6c2.4-2.6 66.8-77.6 143.2-166.6 102.8-120 143.4-165.8 156.4-177 34.2-29.4 72.6-54 110.8-71.2 10.6-4.8 19.8-8.8 20.4-8.8s57 56 125.6 124.6zM298.6 382.4c-43.6 51-80.6 94.2-82.6 96.2-3.2 3.4-5.8 3-59.6-10.8l-56.2-14.4 6.2-8.6c12.8-18 40.2-47 59-62.8 52.6-44 111.8-73.2 177.2-87 41.8-8.8 46.4-17.8-44 87.4zM239.6 623.6c-12.4 20-23.4 36.4-24.2 36.4-3.2 0-7.4-14-7.4-24.8 0-8.4 2.8-18.6 12.4-44.2l12.2-33.4 29.6 29.6-22.6 36.4zM316 641l15 15-30.4 30.4-30.6 30.4-8-7.8c-4.4-4.4-7.8-8.8-7.6-10 0.8-3.4 44.4-73 45.6-73 0.6 0 7.8 6.8 16 15zM729.2 680.2c-18 88.6-64.4 166.6-133 224.2-10.6 8.8-20.6 16.8-22.4 17.8-3 1.4-5-5.2-17-52.8-7.6-29.8-13.8-55.4-13.8-56.6s42.8-39 95-83.8c76.6-65.8 95.2-81 95.6-77.6 0.4 2.2-1.6 15.2-4.4 28.8zM384 709c9 9 14 15.6 13 16.6-4 3.6-70.6 44.4-72.4 44.4-1 0-5.4-3.6-9.6-8l-7.8-8 29.8-30c16.4-16.6 30.4-30 31-30s7.8 6.8 16 15zM464.4 792c-0.8 0.8-15.8 6.6-33.4 13-35 12.8-45.6 14.2-59.8 8.2-6.8-2.8-7.6-3.6-5-6 1.6-1.6 18.2-12.2 36.8-24l34-21 14.4 14.2c8 8 13.8 15 13 15.6z"></path>
<path fill="#000" d="M618.8 234c-17.4 2.4-27.8 5.4-44.2 13-38.8 17.8-66.6 49-80.8 91-6.2 17.8-6.6 20.8-6.6 46 0 19.8 1 30.4 3.6 39.8 19.8 71.8 83 117.8 156.2 113.6 34.4-2 61-12 87.6-33.2 49.2-39.2 68.4-104.8 48.6-167.2-15.6-49-57.4-87.4-109.2-100-14.8-3.6-40.2-5-55.2-3zM661.8 287c53.8 12.8 88.8 69.4 75.2 121.8-12.2 46.4-51.2 77.2-97.8 77.2-28.6 0-49.8-8.6-70.4-28.4-20.2-19.4-30.8-44-30.8-71.6 0-28.8 8.8-50.4 29-71.2 25.2-25.6 60-36 94.8-27.8z"></path>
<path fill="#000" d="M111 736.2c-6.2 3.6-59 56.2-62.2 62.2-9.8 18.6 7.4 40.6 28.6 36.6 6.4-1.2 12.6-6.2 38-31.6 33.4-33.4 36-38 30.2-53-5-13.2-22.8-20.6-34.6-14.2z"></path>
<path fill="#000" d="M179 809.8c-3.2 2-44.4 42.4-91.4 89.4-57.8 58.2-85.8 87.6-86.8 91.4-2.4 10.4 0.4 22 7.2 27.8 5.2 4.8 7.8 5.6 17.6 5.6h11.4l90.4-90.6 90.6-90.4v-11c0-6.8-1.2-12.8-3.2-15.6-7.2-10.2-24.8-13.6-35.8-6.6z"></path>
<path fill="#000" d="M257 878c-4 1.2-22.4 18.4-53.4 49.6l-47.6 47.6v10.4c0 17.2 9.2 26.4 26.4 26.4 8.4 0 8.8-0.2 58-49.6l49.6-49.4v-9c0-19-15.4-31.2-33-26z"></path>
</svg>
