<!-- Generated by IcoMoon.io -->
<svg version="1.1" xmlns="http://www.w3.org/2000/svg" width="1072" height="1024" viewBox="0 0 1072 1024">
<title></title>
<g id="icomoon-ignore">
</g>
<path fill="#000" d="M521.516 2.949c-3.217 1.474-7.372 5.093-9.382 7.774-1.876 2.681-36.993 73.315-77.738 156.951l-74.387 151.992-169.416 25.198c-175.447 26.136-175.313 26.002-182.149 33.374-4.423 4.691-8.444 14.475-8.444 20.909 0 13.537-3.217 10.052 120.762 130.413 63.263 61.386 118.752 115.133 123.175 119.154l7.908 7.372-28.013 166.735c-15.548 91.677-28.147 169.416-28.147 172.901 0.134 7.908 3.619 15.816 9.784 21.177 6.299 5.495 12.867 7.506 22.785 6.836 8.042-0.536 14.207-3.753 159.095-80.553l150.919-80.017 149.847 78.408c82.429 43.024 151.724 78.945 154.002 79.749 10.454 3.619 21.847 0.67 30.425-7.908 5.093-5.093 6.702-7.908 8.042-13.671 1.742-7.64-0.804-22.919-49.592-300.096l-7.908-44.901 13.671-13.537c7.506-7.506 62.727-61.654 122.639-120.36 59.912-58.84 109.772-108.699 110.844-110.71 2.681-5.093 2.681-22.919 0.134-28.013-2.815-5.227-11.661-13.001-17.022-14.609-2.547-0.804-80.017-12.063-172.23-25.198l-167.673-23.724-75.594-152.26c-41.55-83.77-77.336-154.27-79.481-156.683-5.897-6.702-12.733-9.65-22.517-9.65-5.897 0-10.186 0.804-14.341 2.949zM602.337 232.142c69.83 140.599 69.428 139.929 80.553 143.012 2.681 0.67 69.562 10.454 148.507 21.713 79.079 11.125 144.084 20.775 144.62 21.177s-41.014 41.818-92.214 91.946c-123.443 120.762-120.494 117.68-122.371 126.794-1.474 6.836 0 15.682 23.992 153.198 13.939 80.285 25.332 146.094 25.064 146.228-0.134 0.134-59.108-30.559-130.949-68.222l-130.681-68.49h-21.445l-126.66 67.15c-69.696 36.993-128.536 68.088-130.815 69.294l-4.155 2.145 2.547-14.341c1.34-7.908 12.465-73.717 24.662-146.362 25.198-150.249 24.394-140.197 13.269-152.528-3.217-3.619-51.87-51.066-107.895-105.617-85.646-82.965-101.596-99.183-99.049-99.451 1.742-0.268 67.686-10.052 146.496-21.847 153.466-22.785 151.59-22.383 158.157-31.229 1.742-2.279 31.899-63.129 67.15-135.238 35.25-71.975 64.469-130.949 65.005-130.949s30.291 59.242 66.212 131.619z"></path>
</svg>
