<!-- Generated by IcoMoon.io -->
<svg version="1.1" xmlns="http://www.w3.org/2000/svg" width="910" height="1024" viewBox="0 0 910 1024">
<title></title>
<g id="icomoon-ignore">
</g>
<path fill="#627482" d="M336.162 117.915c-162.392 39.305-266.861 156.186-295.822 332.024-32.065 195.491 59.992 380.638 226.521 458.214 52.752 24.824 71.37 27.927 172.735 27.927 137.568 0 203.766-22.756 283.41-94.125 165.495-148.945 173.77-463.386 15.515-620.606-98.263-98.263-256.517-139.636-402.36-103.434zM561.648 185.147l28.962 11.378-26.893 48.614-25.859 49.648-94.125-1.034-94.125-2.069-24.824-43.442c-14.481-24.824-21.721-48.614-17.584-52.752 27.927-27.927 190.319-34.133 254.448-10.343zM527.515 371.329c43.442 22.756 82.747 92.057 82.747 144.808 0 54.82-39.305 125.156-82.747 147.911-48.614 25.859-130.327 24.824-173.77-2.069-39.305-24.824-73.438-91.022-74.473-144.808 0-53.786 39.305-124.121 82.747-146.877 46.545-23.79 119.984-23.79 165.495 1.034zM222.384 523.378l1.034 94.125-99.297 55.855-9.309-24.824c-18.618-48.614-23.79-138.602-11.378-199.628 7.24-34.133 14.481-64.129 16.549-68.267 3.103-4.137 25.859 5.172 52.752 20.687l47.58 27.927 2.069 94.125zM791.273 483.038c6.206 47.58-8.275 157.22-22.756 182.044-2.069 4.137-26.893-4.137-53.786-19.653l-49.648-26.893 2.069-94.125 1.034-94.125 46.545-28.962 45.511-27.927 12.412 27.927c6.206 15.515 14.481 52.752 18.618 81.713zM559.58 793.341c16.549 26.893 29.996 52.752 29.996 55.855 0 11.378-89.988 29.996-144.808 29.996s-144.808-18.618-144.808-29.996c0-3.103 13.446-29.996 29.996-57.923l29.996-51.717 84.816 2.069 85.851 1.034 28.962 50.683z"></path>
</svg>
