<!-- Generated by IcoMoon.io -->
<svg version="1.1" xmlns="http://www.w3.org/2000/svg" width="940" height="1024" viewBox="0 0 940 1024">
<title></title>
<g id="icomoon-ignore">
</g>
<path fill="#000" d="M162.743 70.531c-29.518 2.612-46.759 9.927-65.045 27.69-7.053 7.053-16.457 19.853-20.898 28.473l-7.576 15.673-0.784 310.857c-0.522 209.763 0.261 316.604 2.090 328.882 5.224 33.959 23.771 60.082 51.722 72.882 12.016 5.486 15.673 5.747 126.171 6.531l114.155 0.784 51.2 51.984c28.473 28.735 53.551 53.29 56.424 54.857 6.531 3.657 23.51 3.135 30.302-0.784 2.873-1.829 27.429-26.384 54.335-54.596l49.11-51.461 207.151-1.567 16.196-7.576c18.808-8.62 35.004-24.555 43.363-42.841l5.747-12.278v-655.673l-8.359-17.241c-10.188-20.898-28.996-39.184-49.894-48.849l-14.89-7.053-308.245-0.261c-169.535-0.261-318.955 0.522-332.278 1.567zM816.327 90.122c15.151 7.314 32.131 25.339 39.967 42.58l7.053 14.89v647.837l-5.747 10.449c-7.837 14.367-22.988 28.735-38.661 35.788-12.8 5.747-15.412 6.008-117.812 7.314l-104.751 1.306-51.722 54.073c-45.453 47.804-52.506 54.335-59.82 54.335-7.053 0-14.629-6.531-62.433-54.857l-54.335-54.857h-225.698l-13.322-6.269c-16.457-7.576-31.347-22.204-38.661-37.878-5.486-12.016-5.486-12.016-6.269-334.629-0.784-363.886-2.351-334.629 20.114-358.661 12.8-13.584 25.339-21.42 41.273-25.078 5.747-1.306 151.771-2.090 335.151-2.090 318.433 0.522 325.486 0.522 335.673 5.747z"></path>
<path fill="#000" d="M464.98 199.837c-8.882 18.547-28.996 61.649-44.931 95.347s-28.996 61.649-29.257 61.91c-0.261 0-49.11 3.396-108.669 7.314-59.559 3.657-111.543 7.576-115.461 8.62-6.531 1.829-1.306 6.531 80.457 74.971 48.327 40.229 88.816 74.449 90.122 76.016 1.567 1.829-7.053 42.58-24.033 113.11-14.367 60.865-25.861 111.020-25.078 111.543 0.784 0.784 44.408-23.771 96.914-54.596l95.608-56.163 99.788 56.686c55.118 31.347 100.31 56.686 100.571 56.686 0.261-0.261-11.755-49.11-26.645-108.669-15.151-59.559-27.429-110.498-27.429-112.849 0-2.612 35.004-34.22 88.816-79.673l88.555-75.233-115.2-10.971c-63.216-6.008-115.461-11.494-115.984-12.016s-21.42-42.58-46.498-93.518l-45.453-92.473-16.196 33.959zM615.184 366.237c11.494 5.224 8.098 12.278-17.241 37.355-29.78 29.518-49.894 54.073-76.278 94.041-17.502 26.384-42.58 73.143-52.767 97.959-1.567 4.18-4.963 6.792-9.143 7.314-5.747 0.522-7.576-1.306-14.106-14.629-9.665-20.376-29.257-46.237-52.767-70.008-19.592-19.592-23.771-27.429-20.637-37.616 4.702-14.629 22.727-13.061 51.2 3.918 10.71 6.531 20.898 11.755 22.988 11.755 1.829 0 21.943-18.547 44.408-41.535 49.11-49.894 91.167-86.465 102.922-89.078 12.016-2.873 13.845-2.873 21.42 0.522z"></path>
</svg>
