<!-- Generated by IcoMoon.io -->
<svg version="1.1" xmlns="http://www.w3.org/2000/svg" width="1024" height="1024" viewBox="0 0 1024 1024">
<title></title>
<g id="icomoon-ignore">
</g>
<path fill="#000" d="M445.263 5.214c-171.014 23.358-316.585 128.469-393.124 283.633-23.775 48.385-42.128 110.325-47.759 162.046-3.337 29.823-2.92 95.309 0.834 124.090 19.604 149.95 100.732 279.254 227.324 362.675 46.299 30.449 90.721 50.262 145.988 65.277 43.796 11.679 67.78 15.016 120.127 16.267 67.154 1.668 111.576-4.797 171.848-24.609 176.228-58.187 306.574-207.72 341.82-392.499 8.551-44.422 9.593-118.667 2.294-166.218-25.235-164.758-127.635-305.949-276.543-380.82-44.422-22.315-93.224-38.374-142.651-47.133-30.449-5.422-119.084-7.091-150.159-2.711zM558.508 37.54c95.518 10.219 181.651 46.716 257.773 109.282 54.641 45.048 102.609 109.491 131.18 176.437 76.748 180.191 37.331 385.408-100.732 523.47-113.036 113.245-273.623 161.838-431.29 130.138-164.966-32.952-303.446-155.998-356.002-316.168-55.684-170.18-14.39-351.831 109.282-479.883 76.122-78.833 174.143-127.635 284.885-142.234 25.861-3.337 77.999-3.754 104.903-1.043z"></path>
<path fill="#000" d="M615.234 305.74c-52.973 11.262-95.726 62.358-95.935 113.87 0 5.631-0.417 10.011-0.834 10.011-6.674 0-39.625-8.134-55.892-13.765-42.754-14.807-71.117-32.952-107.197-67.989-22.732-22.107-26.069-24.609-32.743-24.609-9.802 0-15.85 7.925-22.941 29.198-9.593 28.78-9.176 57.352 1.46 83.422l4.588 11.679-6.882 6.257c-6.048 5.631-6.882 7.925-6.882 16.684 0.209 25.444 12.305 56.31 30.032 75.288 10.845 11.888 11.053 12.096 8.134 18.77-2.294 6.048-2.086 8.134 1.668 18.353 9.385 25.235 31.909 50.887 55.267 62.566l11.679 5.84-14.39 5.84c-23.149 9.176-44.422 12.93-75.079 13.139-30.24 0.209-34.62 1.668-37.331 12.93-2.294 9.176 2.92 15.224 22.107 26.278 34.411 19.604 72.368 31.909 118.667 38.374 22.524 3.337 29.615 3.337 57.352 1.251 61.941-5.005 105.945-19.604 155.581-52.138 23.984-15.642 64.026-55.892 81.127-81.545 31.909-47.967 50.887-103.86 53.807-157.667l1.251-24.818 18.144-17.936c20.647-20.438 33.369-37.957 33.369-46.508 0-7.716-8.342-16.059-16.267-16.059h-6.257l4.797-11.47c5.422-13.347 4.797-20.438-2.711-26.069-6.674-5.214-12.096-5.214-22.315 0.209-13.139 6.674-35.246 15.85-41.919 17.31-5.214 1.251-8.759-0.209-20.021-7.925-29.198-19.396-60.898-25.861-93.432-18.77z"></path>
</svg>
