<!-- Generated by IcoMoon.io -->
<svg version="1.1" xmlns="http://www.w3.org/2000/svg" width="2092" height="1024" viewBox="0 0 2092 1024">
<title></title>
<g id="icomoon-ignore">
</g>
<path fill="#000" d="M1915.586 60.028c-112.993 56.497-119.172 60.91-121.821 87.393-2.648 23.834 1.766 30.897 28.248 48.552 17.655 11.476 30.014 23.834 28.248 29.131-1.766 4.414-57.379 87.393-124.469 183.614l-121.821 175.669-265.71-265.71c-249.821-249.821-267.476-265.71-297.49-265.71-19.421 0-37.076 6.179-45.903 15.007-7.062 8.828-117.407 186.262-244.524 395.476s-234.814 383.117-238.345 387.531c-4.414 4.414-97.103-30.014-210.979-77.683-123.586-51.2-215.393-84.745-233.931-84.745-34.428 0-67.090 32.662-67.090 67.090 0 42.372 34.428 62.676 264.828 158.897 123.586 51.2 236.579 97.103 249.821 100.634 56.497 17.655 57.379 15.89 307.2-392.828l233.048-383.117 260.414 258.648c143.007 143.007 269.241 262.179 280.717 265.71 43.255 13.241 64.441-8.828 200.386-204.8 197.738-286.014 178.317-261.297 201.269-245.407 21.186 15.007 64.441 17.655 72.386 4.414 3.531-5.297 9.71-72.386 15.007-150.069 14.124-198.621 14.124-198.621-169.49-107.697z"></path>
</svg>
