<!-- Generated by IcoMoon.io -->
<svg version="1.1" xmlns="http://www.w3.org/2000/svg" width="1649" height="1024" viewBox="0 0 1649 1024">
<title></title>
<g id="icomoon-ignore">
</g>
<path fill="#000" d="M75.995 7.728c-33.811 14.169-56.996 37.997-69.555 71.809-5.796 15.779-6.762 23.507-5.796 49.268 1.61 35.743 9.66 55.064 33.489 80.503 12.236 13.203 43.15 32.201 52.488 32.201 4.508 0 1.932-19.965 51.844 383.195 24.795 199.326 45.726 366.772 46.692 372.247 0.966 5.796 5.474 14.169 10.304 18.677l8.372 8.372h1241.036l8.372-8.372c4.83-4.508 9.338-12.881 10.304-18.677 0.966-5.474 21.897-172.921 46.692-372.247s45.726-366.772 46.692-372.247c1.288-7.728 3.864-10.948 10.304-12.558 24.795-6.118 54.742-33.167 70.843-63.436 8.372-15.779 9.016-19.965 9.016-52.488 0-33.489-0.644-36.709-10.304-56.674-12.558-25.439-32.845-45.082-58.284-56.996-16.423-7.728-22.219-8.694-53.776-8.694-32.523 0-36.709 0.644-52.488 9.016-62.792 32.845-87.265 106.264-56.996 168.413 4.83 9.66 16.423 24.473 27.371 34.455l18.999 17.711-340.689 360.976-85.011-126.229c-161.328-239.577-155.854-230.883-148.77-235.069 3.542-1.932 13.847-10.304 22.863-18.999 62.47-58.928 45.082-164.87-33.489-201.58-16.101-7.728-22.219-8.694-52.166-8.694s-36.065 0.966-52.166 8.694c-78.571 36.709-95.96 142.652-33.489 201.58 9.016 8.694 19.321 17.067 22.863 18.999 7.084 4.186 12.558-4.508-148.77 235.069l-85.011 126.229-340.689-360.976 18.999-17.711c22.219-20.287 34.133-42.506 38.964-71.487 8.372-52.166-17.711-103.688-65.369-129.127-18.677-9.982-23.185-11.27-52.488-11.914-28.337-0.966-34.455-0.322-51.2 6.762zM140.719 71.165c10.948 4.186 25.761 17.711 31.879 29.303 11.914 22.541-0.644 57.962-24.473 70.199-44.116 22.541-94.35-20.931-76.961-66.657 10.304-27.693 42.828-43.15 69.555-32.845zM842.707 71.165c12.236 4.508 26.727 18.355 31.879 30.913 14.813 34.455-12.558 75.029-50.234 75.029-28.337 0-54.742-26.083-54.742-54.098 0-37.031 38.964-64.725 73.097-51.844zM1544.694 71.165c12.236 4.508 26.727 18.355 31.879 30.913 14.813 34.455-12.558 75.029-50.234 75.029-28.659 0-54.742-25.761-54.742-54.42 0-37.031 38.964-64.403 73.097-51.522zM957.987 475.291c88.875 133.635 134.923 199.648 140.719 202.868 12.558 6.44 25.761 5.474 37.353-2.898 5.796-3.864 84.367-85.655 174.853-181.937s165.192-174.209 166.158-173.243c0.644 0.644-16.423 144.262-38.319 318.792l-39.608 317.504h-575.436c-558.37 0-575.758-0.322-575.758-6.118 0-3.22-0.966-14.813-1.932-25.761l-2.254-19.643h921.6l8.372-7.406c9.982-8.694 13.847-27.049 8.050-40.896-8.372-20.609 22.863-19.321-484.307-19.321h-462.088l-1.932-10.626c-4.186-25.439-62.792-502.662-61.826-505.56 0.322-1.61 75.029 75.673 165.836 171.955s169.379 178.395 175.175 182.259c11.592 8.372 24.795 9.338 37.353 2.898 5.796-3.22 51.844-69.555 140.719-202.868 72.775-108.84 132.669-198.038 133.635-198.038s61.182 89.197 133.635 198.038z"></path>
<path fill="#000" d="M1237.172 845.283c-11.592 9.982-15.457 23.507-10.304 38.319 5.152 16.423 15.135 21.253 41.862 21.253 26.405 0 33.489-2.898 40.252-16.101 8.050-15.779 6.118-28.337-6.118-40.574-10.304-10.304-12.236-10.948-33.489-10.948-19.643 0-24.151 0.966-32.201 8.050z"></path>
</svg>
