<svg id="65f47f94-b869-4bf4-8778-3a5cd7ee6f88" data-name="Livello 1" xmlns="http://www.w3.org/2000/svg" viewBox="0 0 68 68"><defs><style>.\36 233add0-2bd5-4d63-a029-79a46881a52f{fill:#979eff;}.cb2fe6f6-a162-4f8c-8613-8c2a1272b4ed{fill:#dbd7f6;}.a3c8a46d-10e9-4302-9f05-eb1f90233ccd{fill:#7ac5ff;}.a45416c6-7ae8-4952-a610-a53c505c067f{fill:#cae8ff;}.\33 d8788a2-a8c1-498f-9ace-462bd82c3b53{fill:#eaf6ff;}.\33 8337036-c0cd-44af-917e-6ad1b10406b3{fill:none;stroke:#666aad;stroke-miterlimit:10;}.\38 53c129d-b041-45ef-a542-6a85ae993cf0{fill:#666aad;}</style></defs><title>Growth Plan</title><g id="d332c648-5387-4692-acc5-730ede0c16b6" data-name="Customer Segmentation"><polygon class="6233add0-2bd5-4d63-a029-79a46881a52f" points="59.59 11.69 58.87 18.59 45.22 26.45 45.94 19.55 59.59 11.69"/><polygon class="6233add0-2bd5-4d63-a029-79a46881a52f" points="65.2 21.4 51.55 29.27 45.22 26.45 58.87 18.59 65.2 21.4"/><polygon class="cb2fe6f6-a162-4f8c-8613-8c2a1272b4ed" points="45.94 21.59 59.36 13.86 59.59 11.69 45.94 19.55 45.94 21.59"/><polygon class="cb2fe6f6-a162-4f8c-8613-8c2a1272b4ed" points="60.91 19.61 58.87 18.59 45.22 26.45 47.37 27.41 60.91 19.61"/><path class="a3c8a46d-10e9-4302-9f05-eb1f90233ccd" d="M26.5,40.65c0.61,2.65,0,5.12-1.86,6.17-2.46,1.41-6.11-.31-8.16-3.85s-1.71-7.55.73-9c1.77-1,4.18-.41,6.15,1.36Z"/><path class="a45416c6-7ae8-4952-a610-a53c505c067f" d="M18.24,36c1.77-1,4.18-.41,6.15,1.36l2.19,3.69c0-.15,0-0.3-0.08-0.45l-3.13-5.28C21.4,33.6,19,33,17.22,34c-2.45,1.42-2.78,5.43-.73,9,0.08,0.14.17,0.28,0.26,0.42C15.62,40.32,16.17,37.25,18.24,36Z"/><path class="a45416c6-7ae8-4952-a610-a53c505c067f" d="M30.57,35.9c4,7.23,3.14,15.32-1.94,18.24s-12.82-.55-17.08-7.9S8,30.52,13.24,27.53c4.87-2.79,12.33.57,16.68,7L26,36.82l-1.8-3.13-0.83,1.67C21.4,33.6,19,33,17.22,34c-2.45,1.42-2.78,5.43-.73,9s5.7,5.25,8.16,3.85c1.81-1.05,2.47-3.52,1.86-6.17l1.19-.14L26.4,38.45Z"/><path class="3d8788a2-a8c1-498f-9ace-462bd82c3b53" d="M14.26,29.57c4.39-2.52,10.52-.37,14.88,4.8l0.37-.21c-4.35-6.48-11.4-9.43-16.27-6.63-5.16,3-5.93,11.27-1.75,18.58C8.52,39.36,9.57,32.27,14.26,29.57Z"/><path class="a3c8a46d-10e9-4302-9f05-eb1f90233ccd" d="M29.51,34.51c-4.35-6.48-11.4-9.78-16.27-7-5.19,3-5.94,11.36-1.68,18.71s11.9,10.88,17.08,7.9,5.91-11,1.94-18.24l4.92-2.85c5.86,10.51,4.37,22.54-3.44,27s-19.3-.36-25.45-11S1.9,26.23,9.81,21.67c7.57-4.36,18.59.62,24.89,10.3"/><line class="38337036-c0cd-44af-917e-6ad1b10406b3" x1="45.22" y1="26.45" x2="58.87" y2="18.59"/><polygon class="38337036-c0cd-44af-917e-6ad1b10406b3" points="45.22 26.45 51.55 29.27 65.2 21.4 58.87 18.59 59.59 11.69 45.94 19.55 45.22 26.45"/><path class="38337036-c0cd-44af-917e-6ad1b10406b3" d="M29.76,34.45C25.41,28,18.11,24.74,13.24,27.53c-5.19,3-5.94,11.36-1.68,18.71s11.9,10.88,17.08,7.9,5.91-11,1.94-18.24"/><polygon class="853c129d-b041-45ef-a542-6a85ae993cf0" points="46.17 27.08 45.15 25.31 25.72 36.53 24.19 33.88 20.93 40.48 28.27 40.95 26.74 38.3 46.17 27.08"/><path class="a45416c6-7ae8-4952-a610-a53c505c067f" d="M10.83,24.73c6.87-3.95,16.33-.76,22.74,7.08l0.87-.5c-6.3-9.68-17.06-14-24.63-9.64-7,4-8.9,14.05-5.05,23.64C2.41,36.72,4.6,28.32,10.83,24.73Z"/><path class="38337036-c0cd-44af-917e-6ad1b10406b3" d="M35.49,33.05c5.86,10.51,4.37,22.54-3.44,27s-19.3-.36-25.45-11S1.9,26.23,9.81,21.67c7.57-4.36,18.64.27,24.95,10"/><path class="38337036-c0cd-44af-917e-6ad1b10406b3" d="M26.5,40.65c0.61,2.65,0,5.12-1.86,6.17-2.46,1.41-6.11-.31-8.16-3.85s-1.71-7.55.73-9c1.77-1,4.18-.41,6.15,1.36Z"/></g></svg>