<svg id="4d52303d-2d27-4af9-a8f3-51737e189440" data-name="Livello 1" xmlns="http://www.w3.org/2000/svg" viewBox="0 0 68 68"><defs><style>.\34 b22d4e7-137e-44e6-b171-9788a65d0586{fill:#979eff;}.\34 7a4c873-e409-44ea-a8f7-2cbc4437da86{fill:#dbd7f6;}.\38 6f8f6af-5f37-49eb-81f2-5cc12ef2dd17{fill:#7ac5ff;}.\33 05c6d69-ff5d-4cc4-9204-9f43a329fc5c{fill:#cae8ff;}.ea6e0885-c516-479e-8567-472d8f626ce1{fill:#fff;}.\39 2119d53-d1e2-4b92-848d-176de5e7036a{fill:none;stroke:#666aad;stroke-miterlimit:10;}.\37 042aede-2489-4a1f-82c1-a8d3cc428717{fill:#fff89e;}.f478e275-400f-437f-9d5d-dc7360f22914{fill:#fffde2;}</style></defs><title>Growth Plan</title><g id="2432721b-83b0-4c9d-a1f0-96d2f0943a5b" data-name="Earning Limits"><path class="4b22d4e7-137e-44e6-b171-9788a65d0586" d="M21.19,28.07v8H11v-7a1,1,0,0,1,1-1h9.19Z"/><rect class="4b22d4e7-137e-44e6-b171-9788a65d0586" x="21.19" y="28.07" width="10" height="8"/><path class="47a4c873-e409-44ea-a8f7-2cbc4437da86" d="M12,28.07a1,1,0,0,0-1,1v2a1,1,0,0,1,1-1h9.19v-2H12Z"/><rect class="47a4c873-e409-44ea-a8f7-2cbc4437da86" x="21.19" y="28.07" width="10" height="2"/><path class="86f8f6af-5f37-49eb-81f2-5cc12ef2dd17" d="M58.5,14.07v8H3.5v-8a1,1,0,0,1,1-1h7v5h4v-5H29v5h4v-5H46.5v5h4v-5h7A1,1,0,0,1,58.5,14.07Z"/><rect class="305c6d69-ff5d-4cc4-9204-9f43a329fc5c" x="15.5" y="13.07" width="13.5" height="2"/><rect class="305c6d69-ff5d-4cc4-9204-9f43a329fc5c" x="33" y="13.07" width="13.5" height="2"/><path class="305c6d69-ff5d-4cc4-9204-9f43a329fc5c" d="M57.5,13.07h-7v2h7a1,1,0,0,1,1,1v-2A1,1,0,0,0,57.5,13.07Z"/><path class="305c6d69-ff5d-4cc4-9204-9f43a329fc5c" d="M4.5,15.07h7v-2h-7a1,1,0,0,0-1,1v2A1,1,0,0,1,4.5,15.07Z"/><path class="ea6e0885-c516-479e-8567-472d8f626ce1" d="M21.19,44.07v8H12a1,1,0,0,1-1-1v-7H21.19Z"/><rect class="ea6e0885-c516-479e-8567-472d8f626ce1" x="21.19" y="44.07" width="10" height="8"/><rect class="ea6e0885-c516-479e-8567-472d8f626ce1" x="31.19" y="44.07" width="10" height="8"/><path class="ea6e0885-c516-479e-8567-472d8f626ce1" d="M51,44.07v5.68a10.06,10.06,0,0,0-1.94,2.32H41.19v-8H51Z"/><path class="ea6e0885-c516-479e-8567-472d8f626ce1" d="M51,29.07v7H41.19v-8H50A1,1,0,0,1,51,29.07Z"/><rect class="ea6e0885-c516-479e-8567-472d8f626ce1" x="41.19" y="36.07" width="9.81" height="8"/><rect class="ea6e0885-c516-479e-8567-472d8f626ce1" x="31.19" y="36.07" width="10" height="8"/><rect class="ea6e0885-c516-479e-8567-472d8f626ce1" x="31.19" y="28.07" width="10" height="8"/><rect class="ea6e0885-c516-479e-8567-472d8f626ce1" x="21.19" y="36.07" width="10" height="8"/><rect class="ea6e0885-c516-479e-8567-472d8f626ce1" x="11" y="36.07" width="10.19" height="8"/><path class="305c6d69-ff5d-4cc4-9204-9f43a329fc5c" d="M58.5,47.07H58a10.48,10.48,0,0,0-7,2.68V29.07a1,1,0,0,0-1-1H12a1,1,0,0,0-1,1v22a1,1,0,0,0,1,1H49.06a10.41,10.41,0,0,0-1.56,5.5c0,0.17,0,.33,0,0.5H7.5a4,4,0,0,1-4-4v-32h55v25Z"/><polygon class="86f8f6af-5f37-49eb-81f2-5cc12ef2dd17" points="46.5 9.07 46.5 13.07 46.5 18.07 50.5 18.07 50.5 13.07 50.5 9.07 46.5 9.07"/><polygon class="86f8f6af-5f37-49eb-81f2-5cc12ef2dd17" points="29 9.07 29 13.07 29 18.07 33 18.07 33 13.07 33 9.07 29 9.07"/><polygon class="86f8f6af-5f37-49eb-81f2-5cc12ef2dd17" points="11.5 9.07 11.5 13.07 11.5 18.07 15.5 18.07 15.5 13.07 15.5 9.07 11.5 9.07"/><path class="92119d53-d1e2-4b92-848d-176de5e7036a" d="M47.51,58.07H7.5a4,4,0,0,1-4-4v-40a1,1,0,0,1,1-1h7"/><line class="92119d53-d1e2-4b92-848d-176de5e7036a" x1="58.5" y1="22.07" x2="3.5" y2="22.07"/><path class="92119d53-d1e2-4b92-848d-176de5e7036a" d="M50.5,13.07h7a1,1,0,0,1,1,1v33"/><line class="92119d53-d1e2-4b92-848d-176de5e7036a" x1="33" y1="13.07" x2="46.5" y2="13.07"/><line class="92119d53-d1e2-4b92-848d-176de5e7036a" x1="15.5" y1="13.07" x2="29" y2="13.07"/><path class="92119d53-d1e2-4b92-848d-176de5e7036a" d="M49.06,52.07H12a1,1,0,0,1-1-1v-22a1,1,0,0,1,1-1H50a1,1,0,0,1,1,1V49.75"/><line class="92119d53-d1e2-4b92-848d-176de5e7036a" x1="51" y1="44.07" x2="11" y2="44.07"/><line class="92119d53-d1e2-4b92-848d-176de5e7036a" x1="11" y1="36.07" x2="51" y2="36.07"/><line class="92119d53-d1e2-4b92-848d-176de5e7036a" x1="21.19" y1="52.07" x2="21.19" y2="28.07"/><line class="92119d53-d1e2-4b92-848d-176de5e7036a" x1="31.19" y1="28.07" x2="31.19" y2="52.07"/><line class="92119d53-d1e2-4b92-848d-176de5e7036a" x1="41.19" y1="52.07" x2="41.19" y2="28.07"/><rect class="305c6d69-ff5d-4cc4-9204-9f43a329fc5c" x="46.5" y="9.07" width="4" height="3"/><rect class="305c6d69-ff5d-4cc4-9204-9f43a329fc5c" x="29" y="9.07" width="4" height="3"/><rect class="305c6d69-ff5d-4cc4-9204-9f43a329fc5c" x="11.5" y="9.07" width="4" height="3"/><rect class="92119d53-d1e2-4b92-848d-176de5e7036a" x="11.5" y="9.07" width="4" height="9"/><rect class="92119d53-d1e2-4b92-848d-176de5e7036a" x="46.5" y="9.07" width="4" height="9"/><rect class="92119d53-d1e2-4b92-848d-176de5e7036a" x="29" y="9.07" width="4" height="9"/><path class="7042aede-2489-4a1f-82c1-a8d3cc428717" d="M56.5,45.08a10.5,10.5,0,1,1-11,11c0-.17,0-0.33,0-0.5a10.41,10.41,0,0,1,1.56-5.5A10.06,10.06,0,0,1,49,47.75a10.48,10.48,0,0,1,7-2.68h0.5Z"/><path class="f478e275-400f-437f-9d5d-dc7360f22914" d="M45.57,56.65a10.39,10.39,0,0,1,1.49-4.57A10.06,10.06,0,0,1,49,49.75a10.48,10.48,0,0,1,7-2.68h0.5a10.5,10.5,0,0,1,10,9.48c0-.32,0-0.65,0-1a10.5,10.5,0,0,0-10-10.49H56a10.48,10.48,0,0,0-7,2.68,10.06,10.06,0,0,0-1.94,2.32,10.41,10.41,0,0,0-1.56,5.5c0,0.17,0,.33,0,0.5S45.55,56.46,45.57,56.65Z"/><path class="92119d53-d1e2-4b92-848d-176de5e7036a" d="M56.06,59a1.81,1.81,0,0,0,2-1.48,1.36,1.36,0,0,0-.5-1L55,54.86a1.44,1.44,0,0,1-.84-1.26,1.81,1.81,0,0,1,2-1.48,2,2,0,0,1,1.89,1.12"/><line class="92119d53-d1e2-4b92-848d-176de5e7036a" x1="56.19" y1="50.57" x2="56.17" y2="51.68"/><polyline class="92119d53-d1e2-4b92-848d-176de5e7036a" points="56.06 58.91 56.06 59.01 56.03 60.56"/><path class="92119d53-d1e2-4b92-848d-176de5e7036a" d="M56.05,59a1.81,1.81,0,0,1-2-1.55"/><path class="92119d53-d1e2-4b92-848d-176de5e7036a" d="M56.5,45.08a10.5,10.5,0,1,1-11,11c0-.17,0-0.33,0-0.5a10.41,10.41,0,0,1,1.56-5.5A10.06,10.06,0,0,1,49,47.75a10.48,10.48,0,0,1,7-2.68h0.5Z"/></g></svg>