<svg id="163384c0-768f-4deb-816d-546d31455b72" data-name="Livello 1" xmlns="http://www.w3.org/2000/svg" viewBox="0 0 68 68"><defs><style>.\30 5bc3567-7613-480c-8afa-28421268f1ee{fill:#7ac5ff;}.d3b28063-48ff-46a8-a11f-2f3169419fd0{fill:#cae8ff;}.\33 51e17b8-fc44-4a05-8181-09816a721a3f{fill:#666aad;}.\35 09ae6d8-b4ce-4d5a-869e-33c5c938564a{fill:none;stroke:#666aad;stroke-miterlimit:10;}.\36 ca180df-73b3-47a1-ac3f-fb8098da3e8c{fill:#eaf6ff;}</style></defs><title>Growth Plan</title><g id="0c696c95-f460-44f0-837c-00d6dc6f813a" data-name="Employee Access"><rect class="05bc3567-7613-480c-8afa-28421268f1ee" x="5" y="13.5" width="61" height="43" rx="4" ry="4"/><circle class="d3b28063-48ff-46a8-a11f-2f3169419fd0" cx="22.5" cy="27" r="6.5"/><path class="d3b28063-48ff-46a8-a11f-2f3169419fd0" d="M34,45.5v4H11v-4a9,9,0,0,1,9-9h5A9,9,0,0,1,34,45.5Z"/><rect class="351e17b8-fc44-4a05-8181-09816a721a3f" x="41.5" y="27" width="18" height="1"/><rect class="351e17b8-fc44-4a05-8181-09816a721a3f" x="41.5" y="35" width="18" height="1"/><rect class="351e17b8-fc44-4a05-8181-09816a721a3f" x="41.5" y="43" width="18" height="1"/><path class="d3b28063-48ff-46a8-a11f-2f3169419fd0" d="M62,13.5H9a4,4,0,0,0-4,4v3a4,4,0,0,1,4-4H62a4,4,0,0,1,4,4v-3A4,4,0,0,0,62,13.5Z"/><rect class="509ae6d8-b4ce-4d5a-869e-33c5c938564a" x="5" y="13.5" width="61" height="43" rx="4" ry="4"/><path class="6ca180df-73b3-47a1-ac3f-fb8098da3e8c" d="M22.5,22.5A6.5,6.5,0,0,1,28.92,28a6.5,6.5,0,1,0-12.83,0A6.5,6.5,0,0,1,22.5,22.5Z"/><path class="6ca180df-73b3-47a1-ac3f-fb8098da3e8c" d="M25,36.5H20a9,9,0,0,0-9,9v2a9,9,0,0,1,9-9h5a9,9,0,0,1,9,9v-2A9,9,0,0,0,25,36.5Z"/><circle class="509ae6d8-b4ce-4d5a-869e-33c5c938564a" cx="22.5" cy="27" r="6.5"/><path class="509ae6d8-b4ce-4d5a-869e-33c5c938564a" d="M34,45.5v4H11v-4a9,9,0,0,1,9-9h5A9,9,0,0,1,34,45.5Z"/></g></svg>