<svg id="4b6f147b-3ac8-4762-90f9-3113b9e2d584" data-name="Livello 1" xmlns="http://www.w3.org/2000/svg" viewBox="0 0 68 68"><defs><style>.\33 7c8113c-f94d-4be8-8da3-a69046764251{fill:#fff89e;}.\32 a5d7e47-2c0b-4c80-b4b3-d2a57dd4f77a{fill:#fffde2;}.db902c1d-1214-48be-9ab7-07af2aeea89b{fill:#7ac5ff;}.\32 b4279a6-4cc9-4838-9faf-a63bbfce2325{fill:#cae8ff;}.\35 a8c8c48-a721-4410-a8ba-b849889e4008{fill:none;}.\33 b5f835c-926a-4025-96ce-852b0afa935a,.\35 a8c8c48-a721-4410-a8ba-b849889e4008{stroke:#666aad;stroke-miterlimit:10;}.\33 b5f835c-926a-4025-96ce-852b0afa935a,.d7362f2e-7e24-4c07-9b39-465830322901{fill:#fff;}.\36 c2944b7-f6b3-466b-9cc6-5f1758a686c3{fill:#eaf6ff;}</style></defs><title>Growth Plan</title><g id="ac03141f-ab9a-4891-a00f-d4cc89dc57ad" data-name="Remove Lootly Branding"><path class="37c8113c-f94d-4be8-8da3-a69046764251" d="M58.66,44.92a9.63,9.63,0,0,0-3.11-.5A10,10,0,1,0,58.66,44.92Z"/><path class="2a5d7e47-2c0b-4c80-b4b3-d2a57dd4f77a" d="M55.55,46.31a9.63,9.63,0,0,1,3.11.5,9.94,9.94,0,0,1,6.79,8.5c0-.31,0-0.63,0-1a9.93,9.93,0,0,0-6.84-9.44,9.63,9.63,0,0,0-3.11-.5,9.94,9.94,0,0,0-9.95,9.94c0,0.29,0,.58.05,0.87A9.94,9.94,0,0,1,55.55,46.31Z"/><path class="db902c1d-1214-48be-9ab7-07af2aeea89b" d="M55.55,44.42A9.93,9.93,0,0,0,46.73,59a6,6,0,0,1-9.55,3l-0.11-.09a6,6,0,0,0-7.56,0L29.4,62a6,6,0,0,1-9.59-3.16l0-.09a6,6,0,0,0-6.14-4.5H13.56A6.07,6.07,0,0,1,7.63,46h0a6.13,6.13,0,0,0-2.35-7.32h0a6.12,6.12,0,0,1,0-10.22h0A6.13,6.13,0,0,0,7.63,21.1h0a6.07,6.07,0,0,1,5.93-8.27h0.09a6,6,0,0,0,6.14-4.5l0-.09A6,6,0,0,1,29.4,5.07l0.11,0.09a6,6,0,0,0,7.56,0l0.11-.09a6,6,0,0,1,9.59,3.16l0,0.09a6,6,0,0,0,6.14,4.5H53A6.07,6.07,0,0,1,59,21.09h0a6.13,6.13,0,0,0,2.35,7.32h0a6.12,6.12,0,0,1,0,10.22h0a6.1,6.1,0,0,0-2.64,6.27A9.63,9.63,0,0,0,55.55,44.42ZM33.29,52A18.46,18.46,0,1,0,14.82,33.54,18.47,18.47,0,0,0,33.29,52Z"/><path class="2b4279a6-4cc9-4838-9faf-a63bbfce2325" d="M7.63,48.75a6.1,6.1,0,0,0,.23-3.57,6.07,6.07,0,0,1-.23.8h0a6.07,6.07,0,0,0-.25,3.58,6.3,6.3,0,0,1,.25-0.81h0Z"/><path class="2b4279a6-4cc9-4838-9faf-a63bbfce2325" d="M45.61,57.14a9.85,9.85,0,0,0,.54,3.2A6.16,6.16,0,0,0,46.73,59a9.83,9.83,0,0,1-1-3.19A10,10,0,0,0,45.61,57.14Z"/><path class="2b4279a6-4cc9-4838-9faf-a63bbfce2325" d="M61.3,31.19h0a6,6,0,0,1,2.6,3.72,6.09,6.09,0,0,0-2.6-6.5h0a6.09,6.09,0,0,1-2.58-3.75A6.12,6.12,0,0,0,61.3,31.19Z"/><path class="2b4279a6-4cc9-4838-9faf-a63bbfce2325" d="M13.56,15.59h0.09a6,6,0,0,0,6.14-4.5l0-.09A6,6,0,0,1,29.4,7.85l0.11,0.09a6,6,0,0,0,7.56,0l0.11-.09A6,6,0,0,1,46.77,11l0,0.09a6,6,0,0,0,6.14,4.5H53a6,6,0,0,1,6.18,4.69A6.06,6.06,0,0,0,53,12.82H52.93a6,6,0,0,1-6.14-4.5l0-.09a6,6,0,0,0-9.59-3.16l-0.11.09a6,6,0,0,1-7.56,0L29.4,5.07a6,6,0,0,0-9.59,3.16l0,0.09a6,6,0,0,1-6.14,4.5H13.56a6.06,6.06,0,0,0-6.18,7.47A6,6,0,0,1,13.56,15.59Z"/><path class="2b4279a6-4cc9-4838-9faf-a63bbfce2325" d="M5.26,31.2h0a6.12,6.12,0,0,0,2.58-6.52,6.09,6.09,0,0,1-2.58,3.75h0a6.09,6.09,0,0,0-2.6,6.5A6,6,0,0,1,5.26,31.2Z"/><ellipse class="2b4279a6-4cc9-4838-9faf-a63bbfce2325" cx="33.29" cy="33.54" rx="18.47" ry="18.46"/><path class="5a8c8c48-a721-4410-a8ba-b849889e4008" d="M58.66,44.92a6.1,6.1,0,0,1,2.64-6.27h0a6.12,6.12,0,0,0,0-10.22h0A6.13,6.13,0,0,1,59,21.1h0A6.07,6.07,0,0,0,53,12.82H52.93a6,6,0,0,1-6.14-4.5l0-.09a6,6,0,0,0-9.59-3.16l-0.11.09a6,6,0,0,1-7.56,0L29.4,5.07a6,6,0,0,0-9.59,3.16l0,0.09a6,6,0,0,1-6.14,4.5H13.56a6.07,6.07,0,0,0-5.93,8.27h0a6.13,6.13,0,0,1-2.35,7.32h0a6.12,6.12,0,0,0,0,10.22h0A6.13,6.13,0,0,1,7.63,46h0a6.07,6.07,0,0,0,5.93,8.27h0.09a6,6,0,0,1,6.14,4.5l0,0.09A6,6,0,0,0,29.4,62l0.11-.09a6,6,0,0,1,7.56,0L37.18,62a6,6,0,0,0,9.55-3"/><polyline class="5a8c8c48-a721-4410-a8ba-b849889e4008" points="21.76 35.52 19.39 35.52 19.39 30.32"/><ellipse class="5a8c8c48-a721-4410-a8ba-b849889e4008" cx="25.08" cy="33.16" rx="1.42" ry="2.37"/><ellipse class="5a8c8c48-a721-4410-a8ba-b849889e4008" cx="30.76" cy="33.16" rx="1.42" ry="2.37"/><line class="5a8c8c48-a721-4410-a8ba-b849889e4008" x1="35.97" y1="30.79" x2="35.97" y2="36"/><line class="5a8c8c48-a721-4410-a8ba-b849889e4008" x1="34.08" y1="30.79" x2="37.87" y2="30.79"/><polyline class="5a8c8c48-a721-4410-a8ba-b849889e4008" points="42.6 35.52 40.24 35.52 40.24 30.32"/><line class="3b5f835c-926a-4025-96ce-852b0afa935a" x1="45.61" y1="32.97" x2="45.61" y2="35.9"/><polyline class="5a8c8c48-a721-4410-a8ba-b849889e4008" points="47.58 30.52 45.6 32.97 45.6 32.97 43.63 30.52"/><polygon class="d7362f2e-7e24-4c07-9b39-465830322901" points="13.24 16.02 14.01 17.58 15.73 17.83 14.48 19.05 14.78 20.76 13.24 19.95 11.7 20.76 11.99 19.05 10.75 17.83 12.47 17.58 13.24 16.02"/><polygon class="d7362f2e-7e24-4c07-9b39-465830322901" points="25.55 7.51 26.32 9.06 28.04 9.31 26.8 10.53 27.09 12.24 25.55 11.43 24.01 12.24 24.31 10.53 23.06 9.31 24.78 9.06 25.55 7.51"/><polygon class="d7362f2e-7e24-4c07-9b39-465830322901" points="40.71 7.03 41.48 8.59 43.2 8.84 41.96 10.05 42.25 11.77 40.71 10.96 39.17 11.77 39.47 10.05 38.22 8.84 39.94 8.59 40.71 7.03"/><polygon class="d7362f2e-7e24-4c07-9b39-465830322901" points="53.03 16.5 53.8 18.06 55.52 18.31 54.27 19.52 54.56 21.23 53.03 20.42 51.49 21.23 51.78 19.52 50.54 18.31 52.26 18.06 53.03 16.5"/><polygon class="d7362f2e-7e24-4c07-9b39-465830322901" points="57.76 30.7 58.53 32.26 60.25 32.51 59.01 33.72 59.3 35.43 57.76 34.62 56.22 35.43 56.52 33.72 55.27 32.51 56.99 32.26 57.76 30.7"/><polygon class="d7362f2e-7e24-4c07-9b39-465830322901" points="8.5 31.17 9.27 32.73 10.99 32.98 9.74 34.19 10.04 35.9 8.5 35.09 6.96 35.9 7.25 34.19 6.01 32.98 7.73 32.73 8.5 31.17"/><polygon class="d7362f2e-7e24-4c07-9b39-465830322901" points="13.24 45.37 14.01 46.93 15.73 47.18 14.48 48.39 14.78 50.1 13.24 49.29 11.7 50.1 11.99 48.39 10.75 47.18 12.47 46.93 13.24 45.37"/><polygon class="d7362f2e-7e24-4c07-9b39-465830322901" points="25.55 53.89 26.32 55.45 28.04 55.7 26.8 56.91 27.09 58.62 25.55 57.81 24.01 58.62 24.31 56.91 23.06 55.7 24.78 55.45 25.55 53.89"/><path class="5a8c8c48-a721-4410-a8ba-b849889e4008" d="M58.66,44.92a9.63,9.63,0,0,0-3.11-.5A10,10,0,1,0,58.66,44.92Z"/><line class="5a8c8c48-a721-4410-a8ba-b849889e4008" x1="51.76" y1="50.57" x2="59.8" y2="58.61"/><line class="5a8c8c48-a721-4410-a8ba-b849889e4008" x1="51.76" y1="58.61" x2="59.8" y2="50.57"/><polygon class="d7362f2e-7e24-4c07-9b39-465830322901" points="41.66 53.89 42.43 55.45 44.15 55.7 42.9 56.91 43.2 58.62 41.66 57.81 40.12 58.62 40.41 56.91 39.17 55.7 40.89 55.45 41.66 53.89"/><path class="6c2944b7-f6b3-466b-9cc6-5f1758a686c3" d="M33.29,17.92a18.46,18.46,0,0,1,18.4,17c0-.47.07-0.94,0.07-1.42a18.47,18.47,0,0,0-36.95,0c0,0.48,0,.95.07,1.42A18.46,18.46,0,0,1,33.29,17.92Z"/><ellipse class="5a8c8c48-a721-4410-a8ba-b849889e4008" cx="33.29" cy="33.54" rx="18.47" ry="18.46"/></g></svg>